<svg xmlns="http://www.w3.org/2000/svg" fill="none" viewBox="-1 -1 24 24" height="24" width="24"><g id="ai-science-robot--atom-scientific-experiment-artificial-intelligence-ai"><path id="Rectangle 1096" stroke="#000" d="M20.546625 7.945666666666666c-0.058666666666666666 0.7874166666666667 -0.6398333333333333 1.42725 -1.4244999999999999 1.5216666666666665C18.43875 9.549375 17.528958333333332 9.625 16.5 9.625s-1.9382916666666665 -0.075625 -2.622125 -0.15766666666666665c-0.7846666666666666 -0.09441666666666666 -1.3658333333333332 -0.73425 -1.4244999999999999 -1.5216666666666665 -0.041249999999999995 -0.5609999999999999 -0.078375 -1.21 -0.078375 -1.7581666666666664 0 -1.9240833333333334 1.546875 -3.4145833333333333 3.4709583333333334 -3.4342916666666667a65.19333333333333 65.19333333333333 0 0 1 1.3080833333333333 0C19.078125 2.7724583333333332 20.625 4.263416666666666 20.625 6.1875c0 0.5477083333333334 -0.03666666666666667 1.1971666666666667 -0.078375 1.7581666666666664Z" stroke-width="2"></path><path id="Vector 857" stroke="#000" stroke-linecap="round" stroke-linejoin="round" d="m16.5 0.9166666666666666 0 1.8333333333333333" stroke-width="2"></path><path id="Vector 858" stroke="#000" stroke-linecap="round" stroke-linejoin="round" d="m15.125 5.958333333333333 0 0.4583333333333333" stroke-width="2"></path><path id="Vector 859" stroke="#000" stroke-linecap="round" stroke-linejoin="round" d="m17.875 5.958333333333333 0 0.4583333333333333" stroke-width="2"></path><path id="Ellipse 22" stroke="#000" stroke-linecap="round" stroke-linejoin="round" d="M7.333333333333333 12.375a2.2916666666666665 2.2916666666666665 0 1 0 4.583333333333333 0 2.2916666666666665 2.2916666666666665 0 1 0 -4.583333333333333 0" stroke-width="2"></path><path id="Exclude" stroke="#000" stroke-linecap="round" stroke-linejoin="round" d="M2.4855416666666668 12.375C0.6893333333333334 9.40775 0.29012499999999997 6.566999999999999 2.0533333333333332 4.803333333333334c1.7636666666666665 -1.7632083333333333 4.604416666666666 -1.3639999999999999 7.571666666666666 0.4322083333333333 -1.3245833333333334 0.8020833333333333 -2.6752916666666664 1.8828333333333331 -3.9659583333333335 3.1735C4.367916666666666 9.699708333333334 3.287625 11.049958333333334 2.4855416666666668 12.375Zm0 0C0.6893333333333334 15.342249999999998 0.29012499999999997 18.182999999999996 2.0533333333333332 19.94666666666667c1.7636666666666665 1.7632083333333333 4.604416666666666 1.3639999999999999 7.571666666666666 -0.4322083333333333M2.4855416666666668 12.375c0.8020833333333333 1.3245833333333334 1.8828333333333331 2.6752916666666664 3.1735 3.9659583333333335 1.2906666666666666 1.2906666666666666 2.6409166666666666 2.3714166666666667 3.9659583333333335 3.1735m0 0c2.96725 1.7962083333333332 5.808 2.1954166666666666 7.571666666666666 0.4322083333333333 1.7632083333333333 -1.7636666666666665 1.3639999999999999 -4.604416666666666 -0.4322083333333333 -7.571666666666666 -0.8020833333333333 1.3245833333333334 -1.8828333333333331 2.6752916666666664 -3.1735 3.9659583333333335 -1.2906666666666666 1.2906666666666666 -2.6409166666666666 2.3714166666666667 -3.9659583333333335 3.1735Z" stroke-width="2"></path></g></svg>