<svg xmlns="http://www.w3.org/2000/svg" fill="none" viewBox="0 0 60 60" height="60" width="60"><g id="ai-edit-robot--change-edit-modify-pencil-write-writing-artificial-intelligence-ai"><path id="Union" fill="#2859c5" fill-rule="evenodd" d="M9.14 4.375H0v18.75h23.279999999999998v-18.75H14.139999999999999V0h-5v4.375Z" clip-rule="evenodd" stroke-width="2.5"></path><path id="Union_2" fill="#8fbffa" fill-rule="evenodd" d="m25.924999999999997 56.959999999999994 -0.55 0.55h-0.7775l-11 0h-1.875l0 -1.875 0 -11v-0.7775l0.55 -0.55 32.75 -32.75 1.3250000000000002 -1.3250000000000002 1.3250000000000002 1.3250000000000002 11 11 1.3250000000000002 1.3250000000000002 -1.3250000000000002 1.3250000000000002 -32.75 32.75ZM5.34 15.91v-5h3.75v5h-3.75Zm8.54 -5v5h3.75v-5h-3.75Z" clip-rule="evenodd" stroke-width="2.5"></path><path id="Intersect" fill="#2859c5" fill-rule="evenodd" d="m35.825 19.7575 13.65 13.6525 2.6500000000000004 -2.6500000000000004 -13.65 -13.6525 -2.6500000000000004 2.6500000000000004Z" clip-rule="evenodd" stroke-width="2.5"></path></g></svg>