<svg xmlns="http://www.w3.org/2000/svg" fill="none" viewBox="0 0 60 60" height="60" width="60"><g id="deepfake-technology-1--automated-face-head-fake-generated-artificial-intelligence-ai"><path id="Union" fill="#8FBFFA" fill-rule="evenodd" d="M26.365714285714287 3.814285714285714a2.142857142857143 2.142857142857143 0 0 1 2.142857142857143 -2.142857142857143c10.319999999999999 0 17.16857142857143 4.2299999999999995 21.900000000000002 10.542857142857143 0.5828571428571429 0.7714285714285714 1.1271428571428572 1.5771428571428572 1.6414285714285715 2.4000000000000004 3.6128571428571425 5.785714285714286 5.798571428571428 12.81857142857143 7.628571428571428 19.53 0.07714285714285714 0.2742857142857143 0.13714285714285715 0.5614285714285714 0.17142857142857143 0.8528571428571429 0.27 2.031428571428571 -0.40285714285714286 4.289999999999999 -2.3314285714285714 5.644285714285714a8.19 8.19 0 0 1 -4.362857142857143 1.5642857142857143v7.547142857142856a8.571428571428571 8.571428571428571 0 0 1 -8.571428571428571 8.571428571428571h-16.07142857142857a2.142857142857143 2.142857142857143 0 0 1 -2.142857142857143 -2.142857142857143V3.8185714285714285Z" clip-rule="evenodd" stroke-width="4.285714285714286"></path><path id="Subtract" fill="#2859C5" fill-rule="evenodd" d="M26.369999999999997 10.757142857142856H17.57142857142857c-0.8057142857142857 -2.1 -2.6871428571428573 -3.244285714285714 -5.451428571428571 -3.244285714285714 -3.7714285714285714 0 -5.892857142857142 2.1214285714285714 -5.892857142857142 5.897142857142857 0 3.7714285714285714 2.1214285714285714 5.892857142857142 5.892857142857142 5.892857142857142 2.742857142857143 0 4.615714285714286 -1.1271428571428572 5.43 -3.1928571428571426h8.819999999999999V10.757142857142856Zm0 9.505714285714285H21.364285714285714a2.6785714285714284 2.6785714285714284 0 1 0 0 5.357142857142857h5.005714285714285v-5.357142857142857Zm0 8.065714285714286H11.7c-0.8271428571428572 -2.031428571428571 -2.6871428571428573 -3.137142857142857 -5.408571428571428 -3.137142857142857 -3.7714285714285714 0 -5.892857142857142 2.1214285714285714 -5.892857142857142 5.897142857142857 0 3.7714285714285714 2.1214285714285714 5.892857142857142 5.892857142857142 5.892857142857142 2.79 0 4.675714285714285 -1.1614285714285715 5.468571428571429 -3.295714285714286h14.605714285714285V28.32857142857143Zm0 17.575714285714284h-3.5057142857142853V39.84428571428572a2.6785714285714284 2.6785714285714284 0 0 0 -2.6785714285714284 -2.6785714285714284H15.398571428571428a2.6785714285714284 2.6785714285714284 0 1 0 0 5.357142857142857h2.1085714285714285v3.3857142857142857h-3.3985714285714286c-0.8142857142857143 -2.0742857142857143 -2.6871428571428573 -3.2014285714285715 -5.434285714285714 -3.2014285714285715 -3.7714285714285714 0 -5.897142857142857 2.1214285714285714 -5.897142857142857 5.892857142857142s2.1214285714285714 5.892857142857142 5.897142857142857 5.892857142857142c2.76 0 4.637142857142857 -1.1400000000000001 5.442857142857143 -3.2314285714285713h12.252857142857142v-5.357142857142857Z" clip-rule="evenodd" stroke-width="4.285714285714286"></path><path id="Vector 1296 (Stroke)" fill="#2859C5" fill-rule="evenodd" d="M43.53428571428571 25.178571428571427c1.4785714285714284 0 2.6785714285714284 1.2000000000000002 2.6785714285714284 2.6785714285714284v0.7071428571428572a2.6785714285714284 2.6785714285714284 0 1 1 -5.357142857142857 0V27.857142857142858c0 -1.4785714285714284 1.2000000000000002 -2.6785714285714284 2.6785714285714284 -2.6785714285714284Z" clip-rule="evenodd" stroke-width="4.285714285714286"></path></g></svg>