<svg xmlns="http://www.w3.org/2000/svg" fill="none" viewBox="0 0 28 28" height="28" width="28"><g id="time-lapse--time-lapse-mode-photo-picture-image-setting"><path id="Vector (Stroke)" fill="#ff9900" fill-rule="evenodd" d="M20.206 3.044a1.5 1.5 0 0 1 2.016 -0.666 9.26 9.26 0 0 1 3.432 2.936 1.5 1.5 0 1 1 -2.448 1.734 6.262 6.262 0 0 0 -2.334 -1.99 1.5 1.5 0 0 1 -0.666 -2.014Z" clip-rule="evenodd" stroke-width="2"></path><path id="Vector (Stroke)_2" fill="#ff9900" fill-rule="evenodd" d="M26.034 18.04a1.5 1.5 0 0 1 -1.232 -1.724c0.12 -0.712 0.18 -1.482 0.18 -2.316 0 -0.834 -0.06 -1.606 -0.18 -2.316a1.5 1.5 0 0 1 2.96 -0.494c0.148 0.89 0.22 1.828 0.22 2.81 0 0.98 -0.072 1.92 -0.22 2.81a1.5 1.5 0 0 1 -1.728 1.232Z" clip-rule="evenodd" stroke-width="2"></path><path id="Vector (Stroke)_3" fill="#ffffff" fill-rule="evenodd" d="M5.81 5.81C4.042 7.58 3 10.276 3 14c0 3.724 1.042 6.42 2.81 8.19C7.58 23.958 10.276 25 14 25c4.73 0 7.83 -1.672 9.484 -4.492a1.5 1.5 0 0 1 2.586 1.518C23.734 26.01 19.476 28 14 28c-4.276 0 -7.828 -1.208 -10.31 -3.69C1.208 21.83 0 18.276 0 14c0 -4.276 1.208 -7.828 3.69 -10.31C6.17 1.208 9.724 0 14 0h0.012c0.64 0.006 2.288 0.06 3.3 0.288a1.5 1.5 0 1 1 -0.656 2.926c-0.66 -0.148 -2.008 -0.208 -2.662 -0.214 -3.72 0 -6.416 1.044 -8.184 2.81Z" clip-rule="evenodd" stroke-width="2"></path><path id="Vector (Stroke)_4" fill="#ff9900" fill-rule="evenodd" d="M14 8a1.5 1.5 0 0 1 1.5 1.5v4.444l3.76 4.384a1.5 1.5 0 0 1 -2.276 1.954L12.862 15.476a1.5 1.5 0 0 1 -0.362 -0.976v-5A1.5 1.5 0 0 1 14 8Z" clip-rule="evenodd" stroke-width="2"></path></g></svg>