<svg xmlns="http://www.w3.org/2000/svg" fill="none" viewBox="0 0 60 60" height="60" width="60"><g id="ai-chip-robot--chip-processor-artificial-intelligence-ai"><path id="Union" fill="#8fbffa" fill-rule="evenodd" d="M30.012857142857143 9.942857142857141c-4.101428571428571 0 -8.1 0.46285714285714286 -11.828571428571427 0.8999999999999999l-1.3928571428571428 0.15857142857142856a6.6 6.6 0 0 0 -5.807142857142857 5.815714285714286l-0.12857142857142856 1.1357142857142857c-0.4285714285714286 3.7885714285714287 -0.8828571428571428 7.855714285714285 -0.8828571428571428 12.025714285714285 0 4.174285714285714 0.4585714285714286 8.237142857142857 0.8828571428571428 12.03l0.12857142857142856 1.1357142857142857a6.6 6.6 0 0 0 5.807142857142857 5.815714285714286l1.3928571428571428 0.16285714285714284c3.7285714285714286 0.4285714285714286 7.727142857142857 0.8957142857142857 11.828571428571427 0.8957142857142857 4.097142857142857 0 8.1 -0.46285714285714286 11.828571428571427 -0.8999999999999999l1.3928571428571428 -0.15857142857142856a6.6 6.6 0 0 0 5.807142857142857 -5.815714285714286l0.12857142857142856 -1.1357142857142857c0.42428571428571427 -3.7928571428571427 0.8785714285714284 -7.855714285714285 0.8785714285714284 -12.03 0 -4.17 -0.45428571428571424 -8.237142857142857 -0.8828571428571428 -12.025714285714285l-0.12857142857142856 -1.1357142857142857a6.6 6.6 0 0 0 -5.802857142857143 -5.815714285714286l-1.3928571428571428 -0.16285714285714284c-3.7285714285714286 -0.4285714285714286 -7.731428571428571 -0.8999999999999999 -11.828571428571427 -0.8999999999999999Z" clip-rule="evenodd" stroke-width="4.285714285714286"></path><path id="Subtract" fill="#ffffff" fill-rule="evenodd" d="m42.36857142857142 10.89857142857143 -0.5228571428571428 -0.06a185.80285714285714 185.80285714285714 0 0 0 -5.905714285714285 -0.6214285714285713l0 -6.514285714285714a3.2142857142857144 3.2142857142857144 0 1 1 6.428571428571429 0l0 7.199999999999999Zm7.448571428571428 13.512857142857143a185.51999999999998 185.51999999999998 0 0 0 -0.6428571428571428 -6.428571428571429h7.088571428571428a3.2142857142857144 3.2142857142857144 0 0 1 0 6.428571428571429h-6.445714285714286Zm-0.6428571428571428 17.56714285714286c0.23142857142857143 -2.07 0.4714285714285714 -4.2214285714285715 0.6428571428571428 -6.428571428571429h6.445714285714286a3.2142857142857144 3.2142857142857144 0 0 1 0 6.428571428571429h-7.088571428571428Zm-13.234285714285715 7.765714285714286c2.0228571428571427 -0.17142857142857143 3.9985714285714287 -0.40285714285714286 5.905714285714285 -0.6214285714285713l0.5228571428571428 -0.06428571428571428 0 7.238571428571428a3.2142857142857144 3.2142857142857144 0 0 1 -6.428571428571429 0l0 -6.557142857142857Zm-18.274285714285714 -0.6857142857142857 0.5185714285714286 0.06428571428571428c1.907142857142857 0.21857142857142856 3.882857142857143 0.44999999999999996 5.91 0.6214285714285713l0 6.5528571428571425a3.2142857142857144 3.2142857142857144 0 0 1 -6.428571428571429 0l0 -7.234285714285714Zm-7.457142857142857 -13.508571428571429c0.17142857142857143 2.2071428571428573 0.4157142857142857 4.358571428571428 0.6471428571428571 6.428571428571429H3.741428571428571a3.2142857142857144 3.2142857142857144 0 0 1 0 -6.428571428571429h6.4714285714285715Zm0.6471428571428571 -17.57142857142857c-0.23142857142857143 2.0742857142857143 -0.4714285714285714 4.225714285714286 -0.6428571428571428 6.428571428571429H3.741428571428571a3.2142857142857144 3.2142857142857144 0 0 1 0 -6.428571428571429h7.114285714285714Zm13.238571428571428 -7.761428571428571c-2.027142857142857 0.17142857142857143 -4.002857142857143 0.3985714285714286 -5.91 0.6214285714285713l-0.5185714285714286 0.06 0 -7.195714285714286a3.2142857142857144 3.2142857142857144 0 0 1 6.428571428571429 0l0 6.514285714285714Z" clip-rule="evenodd" stroke-width="4.285714285714286"></path><path id="Union_2" fill="#ffffff" fill-rule="evenodd" d="M32.691428571428574 19.067142857142855a2.6785714285714284 2.6785714285714284 0 1 0 -5.357142857142857 0v3.3214285714285716H24.814285714285713a6.428571428571429 6.428571428571429 0 0 0 -6.428571428571429 6.428571428571429V34.24285714285714a6.428571428571429 6.428571428571429 0 0 0 6.428571428571429 6.428571428571429h10.405714285714286a6.428571428571429 6.428571428571429 0 0 0 6.428571428571429 -6.428571428571429V28.81714285714286a6.428571428571429 6.428571428571429 0 0 0 -6.428571428571429 -6.428571428571429h-2.524285714285714V19.071428571428573Z" clip-rule="evenodd" stroke-width="4.285714285714286"></path><path id="Vector 404 (Stroke)" fill="#8fbffa" fill-rule="evenodd" d="M25.560000000000002 28.607142857142854a2.142857142857143 2.142857142857143 0 0 1 2.142857142857143 2.142857142857143l0 1.5557142857142856a2.142857142857143 2.142857142857143 0 1 1 -4.285714285714286 0l0 -1.5557142857142856a2.142857142857143 2.142857142857143 0 0 1 2.142857142857143 -2.142857142857143Z" clip-rule="evenodd" stroke-width="4.285714285714286"></path><path id="Vector 405 (Stroke)" fill="#8fbffa" fill-rule="evenodd" d="M34.465714285714284 28.607142857142854a2.142857142857143 2.142857142857143 0 0 1 2.142857142857143 2.142857142857143l0 1.5557142857142856a2.142857142857143 2.142857142857143 0 1 1 -4.285714285714286 0l0 -1.5557142857142856a2.142857142857143 2.142857142857143 0 0 1 2.142857142857143 -2.142857142857143Z" clip-rule="evenodd" stroke-width="4.285714285714286"></path></g></svg>