<svg xmlns="http://www.w3.org/2000/svg" fill="none" viewBox="-1.145 -1.145 32 32" height="32" width="32"><g id="chat-bubble-typing-oval--messages-message-bubble-typing-chat"><g id="Group 4482"><path id="Vector" stroke="#512bd4" stroke-linecap="round" stroke-linejoin="round" d="M14.859138178571426 15.385535714285712c-0.29300426428571424 0 -0.5305357142857142 -0.23753144999999998 -0.5305357142857142 -0.5305357142857142s0.23753144999999998 -0.5305357142857142 0.5305357142857142 -0.5305357142857142" stroke-width="2.29"></path><path id="Vector_2" stroke="#512bd4" stroke-linecap="round" stroke-linejoin="round" d="M14.859138178571426 15.385535714285712c0.29300426428571424 0 0.5305357142857142 -0.23753144999999998 0.5305357142857142 -0.5305357142857142s-0.23753144999999998 -0.5305357142857142 -0.5305357142857142 -0.5305357142857142" stroke-width="2.29"></path></g><g id="Group 4493"><path id="Vector_3" stroke="#512bd4" stroke-linecap="round" stroke-linejoin="round" d="M9.02324532142857 15.385535714285712c-0.29300426428571424 0 -0.5305357142857142 -0.23753144999999998 -0.5305357142857142 -0.5305357142857142s0.23753144999999998 -0.5305357142857142 0.5305357142857142 -0.5305357142857142" stroke-width="2.29"></path><path id="Vector_4" stroke="#512bd4" stroke-linecap="round" stroke-linejoin="round" d="M9.02324532142857 15.385535714285712c0.29300426428571424 0 0.5305357142857142 -0.23753144999999998 0.5305357142857142 -0.5305357142857142s-0.23753144999999998 -0.5305357142857142 -0.5305357142857142 -0.5305357142857142" stroke-width="2.29"></path></g><g id="Group 4494"><path id="Vector_5" stroke="#512bd4" stroke-linecap="round" stroke-linejoin="round" d="M20.695031035714283 15.385535714285712c-0.29300426428571424 0 -0.5305357142857142 -0.23753144999999998 -0.5305357142857142 -0.5305357142857142s0.23753144999999998 -0.5305357142857142 0.5305357142857142 -0.5305357142857142" stroke-width="2.29"></path><path id="Vector_6" stroke="#512bd4" stroke-linecap="round" stroke-linejoin="round" d="M20.695031035714283 15.385535714285712c0.29300426428571424 0 0.5306418214285713 -0.23753144999999998 0.5306418214285713 -0.5305357142857142s-0.23763755714285711 -0.5305357142857142 -0.5306418214285713 -0.5305357142857142" stroke-width="2.29"></path></g><path id="Vector_7" stroke="#512bd4" stroke-linecap="round" stroke-linejoin="round" d="M14.851074035714284 1.1895629342857141c-2.4719144428571425 0.000770337857142857 -4.897353957142856 0.672012612142857 -7.017968871428571 1.9422318299999997 -2.1205936928571427 1.2702298285714284 -3.8569521999999994 3.0918560357142852 -5.024130771428571 5.270872321428571C1.6417915771428568 10.58168337142857 1.087509084285714 13.036493342857142 1.2051564399999997 15.505606557142857 1.3228016735714285 17.974740992857143 2.107973309285714 20.365716907142854 3.4770461857142854 22.42383471428571L1.185416267142857 28.520963357142854l7.67378741142857 -1.387669214285714c1.8478346714285712 0.9029717857142856 3.8756270571428564 1.3772707142857141 5.932259364285714 1.387457 2.056632307142857 0.010186285714285712 4.089029742857143 -0.44395228571428563 5.9457137499999995 -1.3286736428571426 1.856641564285714 -0.8845091428571428 3.4898427071428566 -2.176894142857143 4.777346778571427 -3.7805975 1.2877162857142856 -1.6034911428571428 2.1970545 -3.477131071428571 2.6596816428571426 -5.481049349999999 0.46283935714285707 -2.003897057142857 0.46750807142857137 -4.086419507142857 0.013369499999999998 -6.092311378571428 -0.4541385714285714 -2.0059130928571425 -1.354988214285714 -3.883457764285714 -2.635701428571428 -5.492678692857142 -1.2807132142857143 -1.6092421499999998 -2.908184571428571 -2.908630221428571 -4.760942614285713 -3.8013520571428567C18.938130185714286 1.651360319285714 16.90772756428571 1.1883490685714284 14.851074035714284 1.1895629342857141v0Z" stroke-width="2.29"></path></g></svg>