<svg viewBox="-0.5 -0.5 64 64" xmlns="http://www.w3.org/2000/svg" height="64" width="64"><path d="M6.615 32.10375a24.885 24.885 0 1 0 49.77 0 24.885 24.885 0 1 0 -49.77 0Z" fill="#ffe500" stroke-width="1"></path><path d="M31.5 7.21875a24.9375 24.9375 0 1 0 24.9375 24.9375 24.9375 24.9375 0 0 0 -24.9375 -24.9375Zm0 46.029375a22.70625 22.70625 0 1 1 22.70625 -22.70625A22.70625 22.70625 0 0 1 31.5 53.248125Z" fill="#ebcb00" stroke-width="1"></path><path d="M24.031875 12.193124999999998a7.468125000000001 1.86375 0 1 0 14.936250000000001 0 7.468125000000001 1.86375 0 1 0 -14.936250000000001 0Z" fill="#fff48c" stroke-width="1"></path><path d="M11.589375 59.71875a19.910625 1.96875 0 1 0 39.82125 0 19.910625 1.96875 0 1 0 -39.82125 0Z" fill="#45413c" opacity=".15" stroke-width="1"></path><path d="M6.615 32.10375a24.885 24.885 0 1 0 49.77 0 24.885 24.885 0 1 0 -49.77 0Z" fill="none" stroke="#45413c" stroke-linecap="round" stroke-linejoin="round" stroke-width="1"></path><path d="M24.661875 30.1875a4.3575 4.3575 0 1 1 -4.3575 -4.3575A4.3575 4.3575 0 0 1 24.661875 30.1875Z" fill="#ffffff" stroke="#45413c" stroke-linecap="round" stroke-linejoin="round" stroke-width="1"></path><path d="M49.533750000000005 38.324999999999996c0 1.02375 -1.39125 1.86375 -3.110625 1.86375S43.3125 39.375 43.3125 38.324999999999996s1.4043750000000002 -1.86375 3.110625 -1.86375 3.110625 0.826875 3.110625 1.86375Z" fill="#ffaa54" stroke-width="1"></path><path d="M13.46625 38.324999999999996c0 1.02375 1.39125 1.86375 3.110625 1.86375S19.6875 39.375 19.6875 38.324999999999996s-1.4043750000000002 -1.86375 -3.110625 -1.86375 -3.110625 0.826875 -3.110625 1.86375Z" fill="#ffaa54" stroke-width="1"></path><path d="m37.104375 0.65625 0 22.39125" fill="none" stroke="#45413c" stroke-linecap="round" stroke-linejoin="round" stroke-width="1"></path><path d="m42.695625 2.86125 0 20.5275" fill="none" stroke="#45413c" stroke-linecap="round" stroke-linejoin="round" stroke-width="1"></path><path d="m48.3 6.601875000000001 0 19.280625" fill="none" stroke="#45413c" stroke-linecap="round" stroke-linejoin="round" stroke-width="1"></path><path d="M47.053125 30.1875a4.3575 4.3575 0 1 1 -4.3575 -4.3575A4.3575 4.3575 0 0 1 47.053125 30.1875Z" fill="#ffffff" stroke="#45413c" stroke-linecap="round" stroke-linejoin="round" stroke-width="1"></path><path d="M31.5 48.0375a18.729375 18.729375 0 0 1 7.573124999999999 1.60125c2.54625 1.141875 5.48625 0.406875 6.11625 -2.9662499999999996 0.8662500000000001 -4.6725 -5.604374999999999 -11.458125 -13.689375 -11.458125S16.944375 42 17.810625 46.6725c0.63 3.373125 3.5700000000000003 4.108125 6.11625 2.9662499999999996A18.729375 18.729375 0 0 1 31.5 48.0375Z" fill="#ffb0ca" stroke="#45413c" stroke-linecap="round" stroke-linejoin="round" stroke-width="1"></path><path d="M31.5 48.0375a18.729375 18.729375 0 0 1 7.573124999999999 1.60125 4.423125 4.423125 0 0 0 4.6725 -0.34125 15.500625000000001 15.500625000000001 0 0 0 -24.49125 0 4.423125 4.423125 0 0 0 4.6725 0.34125A18.729375 18.729375 0 0 1 31.5 48.0375Z" fill="#ff87af" stroke="#45413c" stroke-linecap="round" stroke-linejoin="round" stroke-width="1"></path></svg>