<svg viewBox="-0.5 -0.5 64 64" xmlns="http://www.w3.org/2000/svg" height="64" width="64"><path d="M35.083125 47.53875a3.4125 3.4125 0 0 0 -3.4125 -3.4256249999999997h3.4125a3.6487499999999997 3.6487499999999997 0 1 0 0 -7.297499999999999 3.6487499999999997 3.6487499999999997 0 0 0 0 -7.297499999999999h16.288125a3.17625 3.17625 0 1 0 0 -6.3525H27.1425a10.696875 10.696875 0 0 0 6.2475 -2.02125 5.158125 5.158125 0 0 0 1.7325000000000002 -6.5625 2.0475 2.0475 0 0 0 -2.835 -0.8662500000000001l-5.25 2.8875A34.965 34.965 0 0 1 19.333125 19.6875a16.1175 16.1175 0 0 0 -9.345 6.969374999999999 16.45875 16.45875 0 0 0 -2.625 8.859375v5.420625a9.975 9.975 0 0 0 9.975 9.975h14.3325a3.399375 3.399375 0 0 0 3.4125 -3.373125Z" fill="#ffe500" stroke-width="1"></path><path d="M33.718125 25.64625h17.653125A3.15 3.15 0 0 1 54.285 27.5625a3.031875 3.031875 0 0 0 0.2625 -1.246875 3.189375 3.189375 0 0 0 -3.17625 -3.17625h-24.01875c1.640625 2.0343750000000003 2.9400000000000004 2.506875 6.365625 2.506875Z" fill="#fff48c" stroke-width="1"></path><path d="M19.333125 22.207500000000003a35.555625 35.555625 0 0 0 7.74375 -3.163125l5.25 -2.900625a2.07375 2.07375 0 0 1 2.848125 0.8662500000000001 5.709375 5.709375 0 0 1 0.39375 1.089375 5.25 5.25 0 0 0 -0.39375 -3.5700000000000003 2.07375 2.07375 0 0 0 -2.848125 -0.8662500000000001l-5.25 2.8875a34.965 34.965 0 0 1 -7.74375 3.1368750000000003 16.1175 16.1175 0 0 0 -9.345 6.969374999999999 16.45875 16.45875 0 0 0 -2.625 8.859375V38.0625a16.485 16.485 0 0 1 2.625 -8.859375 16.1175 16.1175 0 0 1 9.345 -6.995625Z" fill="#fff48c" stroke-width="1"></path><path d="M35.083125 47.53875a3.4125 3.4125 0 0 0 -3.4125 -3.4256249999999997h3.4125a3.6487499999999997 3.6487499999999997 0 1 0 0 -7.297499999999999 3.6487499999999997 3.6487499999999997 0 0 0 0 -7.297499999999999h16.288125a3.17625 3.17625 0 1 0 0 -6.3525H27.1425a10.696875 10.696875 0 0 0 6.2475 -2.02125 5.158125 5.158125 0 0 0 1.7325000000000002 -6.5625 2.0475 2.0475 0 0 0 -2.835 -0.8662500000000001l-5.25 2.8875A34.965 34.965 0 0 1 19.333125 19.6875a16.1175 16.1175 0 0 0 -9.345 6.969374999999999 16.45875 16.45875 0 0 0 -2.625 8.859375v5.420625a9.975 9.975 0 0 0 9.975 9.975h14.3325a3.399375 3.399375 0 0 0 3.4125 -3.373125Z" fill="none" stroke="#45413c" stroke-linecap="round" stroke-linejoin="round" stroke-width="1"></path><path d="m35.083125 36.815625000000004 -2.743125 0" fill="none" stroke="#45413c" stroke-linecap="round" stroke-linejoin="round" stroke-width="1"></path><path d="m35.083125 29.518124999999998 -2.743125 0" fill="none" stroke="#45413c" stroke-linecap="round" stroke-linejoin="round" stroke-width="1"></path><path d="m27.1425 23.165625 -2.44125 0" fill="none" stroke="#45413c" stroke-linecap="round" stroke-linejoin="round" stroke-width="1"></path><path d="M11.8125 59.71875a19.6875 1.96875 0 1 0 39.375 0 19.6875 1.96875 0 1 0 -39.375 0Z" fill="#45413c" opacity=".15" stroke-width="1"></path></svg>