<svg viewBox="-0.5 -0.5 64 64" xmlns="http://www.w3.org/2000/svg" height="64" width="64"><path d="M43.614374999999995 26.25a3.4256249999999997 3.4256249999999997 0 0 0 -3.4256249999999997 3.4256249999999997V26.25a3.6487499999999997 3.6487499999999997 0 0 0 -7.297499999999999 0 3.6487499999999997 3.6487499999999997 0 0 0 -7.297499999999999 0V9.935625a3.17625 3.17625 0 1 0 -6.339375 0V34.125a10.68375 10.68375 0 0 0 -2.0343750000000003 -6.260624999999999 5.17125 5.17125 0 0 0 -6.5625 -1.7325000000000002 2.07375 2.07375 0 0 0 -0.879375 2.848125l2.900625 5.25A35.72625 35.72625 0 0 1 15.75 42a16.104375 16.104375 0 0 0 6.969374999999999 9.358125 16.524375 16.524375 0 0 0 8.859375 2.625h5.43375a9.988125 9.988125 0 0 0 9.975 -9.975V29.636249999999997A3.4256249999999997 3.4256249999999997 0 0 0 43.614374999999995 26.25Z" fill="#ffe500" stroke-width="1"></path><path d="M10.224375 29.872500000000002a2.008125 2.008125 0 0 1 0.39375 -0.249375 5.80125 5.80125 0 0 1 7.153125 1.5225A9.279375 9.279375 0 0 1 19.254375 34.125a10.68375 10.68375 0 0 0 -2.0343750000000003 -6.260624999999999 5.17125 5.17125 0 0 0 -6.5625 -1.7325000000000002 2.07375 2.07375 0 0 0 -0.879375 2.848125Z" fill="#fff48c" stroke-width="1"></path><path d="M22.417499999999997 10.21125a3.163125 3.163125 0 0 1 3.17625 3.163125V9.935625a3.17625 3.17625 0 1 0 -6.339375 0v3.43875a3.163125 3.163125 0 0 1 3.163125 -3.163125Z" fill="#fff48c" stroke-width="1"></path><path d="M43.614374999999995 26.25a3.4256249999999997 3.4256249999999997 0 0 0 -3.4256249999999997 3.4256249999999997V26.25a3.6487499999999997 3.6487499999999997 0 0 0 -7.297499999999999 0 3.6487499999999997 3.6487499999999997 0 0 0 -7.297499999999999 0v3.12375a3.6487499999999997 3.6487499999999997 0 1 1 7.297499999999999 0 3.6487499999999997 3.6487499999999997 0 0 1 3.6487499999999997 -3.6487499999999997 3.9375 3.9375 0 0 1 3.6487499999999997 3.9375v0.44625000000000004c0 -1.89 1.75875 -2.625 3.4256249999999997 -2.3625000000000003a4.48875 4.48875 0 0 1 3.4256249999999997 4.2525v-2.3625000000000003A3.4256249999999997 3.4256249999999997 0 0 0 43.614374999999995 26.25Z" fill="#fff48c" stroke-width="1"></path><path d="M43.614374999999995 26.25a3.4256249999999997 3.4256249999999997 0 0 0 -3.4256249999999997 3.4256249999999997V26.25a3.6487499999999997 3.6487499999999997 0 0 0 -7.297499999999999 0 3.6487499999999997 3.6487499999999997 0 0 0 -7.297499999999999 0V9.935625a3.17625 3.17625 0 1 0 -6.339375 0V34.125a10.68375 10.68375 0 0 0 -2.0343750000000003 -6.260624999999999 5.17125 5.17125 0 0 0 -6.5625 -1.7325000000000002 2.07375 2.07375 0 0 0 -0.879375 2.848125l2.900625 5.25A35.72625 35.72625 0 0 1 15.75 42a16.104375 16.104375 0 0 0 6.969374999999999 9.358125 16.524375 16.524375 0 0 0 8.859375 2.625h5.43375a9.988125 9.988125 0 0 0 9.975 -9.975V29.636249999999997A3.4256249999999997 3.4256249999999997 0 0 0 43.614374999999995 26.25Z" fill="none" stroke="#45413c" stroke-linecap="round" stroke-linejoin="round" stroke-width="1"></path><path d="m32.89125 26.210625 0 2.75625" fill="none" stroke="#45413c" stroke-linecap="round" stroke-linejoin="round" stroke-width="1"></path><path d="m25.59375 26.210625 0 2.75625" fill="none" stroke="#45413c" stroke-linecap="round" stroke-linejoin="round" stroke-width="1"></path><path d="m19.254375 34.164375 0 2.44125" fill="none" stroke="#45413c" stroke-linecap="round" stroke-linejoin="round" stroke-width="1"></path><path d="M17.0625 59.71875a14.4375 1.96875 0 1 0 28.875 0 14.4375 1.96875 0 1 0 -28.875 0Z" fill="#45413c" opacity=".15" stroke-width="1"></path></svg>