<svg viewBox="-0.5 -0.5 64 64" xmlns="http://www.w3.org/2000/svg" height="64" width="64"><path d="M36.30375 14.555625a8.82 8.82 0 1 0 17.64 0 8.82 8.82 0 1 0 -17.64 0Z" fill="#debb7e" stroke-width="1"></path><path d="M9.05625 14.555625a8.82 8.82 0 1 0 17.64 0 8.82 8.82 0 1 0 -17.64 0Z" fill="#debb7e" stroke-width="1"></path><path d="M45.12375 9.1875A8.82 8.82 0 0 1 53.8125 16.30125a8.5575 8.5575 0 0 0 0.170625 -1.745625 8.82 8.82 0 1 0 -17.626875 0 8.570625 8.570625 0 0 0 0.18375000000000002 1.745625A8.82 8.82 0 0 1 45.12375 9.1875Z" fill="#f0d5a8" stroke-width="1"></path><path d="M17.87625 9.1875a8.82 8.82 0 0 1 8.63625 7.06125 8.570625 8.570625 0 0 0 0.18375000000000002 -1.745625 8.82 8.82 0 1 0 -17.626875 0A8.5575 8.5575 0 0 0 9.1875 16.30125 8.82 8.82 0 0 1 17.87625 9.1875Z" fill="#f0d5a8" stroke-width="1"></path><path d="M36.30375 14.555625a8.82 8.82 0 1 0 17.64 0 8.82 8.82 0 1 0 -17.64 0Z" fill="none" stroke="#45413c" stroke-linecap="round" stroke-linejoin="round" stroke-width="1"></path><path d="M9.05625 14.555625a8.82 8.82 0 1 0 17.64 0 8.82 8.82 0 1 0 -17.64 0Z" fill="none" stroke="#45413c" stroke-linecap="round" stroke-linejoin="round" stroke-width="1"></path><path d="M13.072500000000002 59.285625a18.4275 2.401875 0 1 0 36.855 0 18.4275 2.401875 0 1 0 -36.855 0Z" fill="#45413c" opacity=".15" stroke-width="1"></path><path d="M49.756874999999994 25.764374999999998v-1.6275C49.756874999999994 15.474374999999998 42.341249999999995 9.1875 33.18 9.1875h-3.36c-9.1875 0 -16.576875 6.234375 -16.576875 14.896875v1.614375a14.07 14.07 0 0 0 -4.974375 10.749374999999999C8.268749999999999 43.824375 14.581875 49.875 22.378125 49.875H40.6875c7.796250000000001 0 14.109375 -5.984999999999999 14.109375 -13.36125a14.07 14.07 0 0 0 -5.04 -10.749374999999999Z" fill="#debb7e" stroke-width="1"></path><path d="M49.756874999999994 25.764374999999998v-1.6275C49.756874999999994 15.474374999999998 42.341249999999995 9.1875 33.18 9.1875h-3.36c-9.1875 0 -16.576875 6.234375 -16.576875 14.896875v1.614375a14.07 14.07 0 0 0 -4.974375 10.749374999999999 12.46875 12.46875 0 0 0 0.2625 2.533125 14.188125000000001 14.188125000000001 0 0 1 3.661875 -7.192500000000001 3.740625 3.740625 0 0 0 1.05 -2.625c0 -8.675625 7.415625 -14.896875 16.576875 -14.896875h3.36c9.1875 0 16.576875 6.22125 16.576875 14.896875a3.740625 3.740625 0 0 0 1.05 2.625 14.188125000000001 14.188125000000001 0 0 1 3.661875 7.192500000000001 12.46875 12.46875 0 0 0 0.2625 -2.533125 14.07 14.07 0 0 0 -4.974375 -10.68375Z" fill="#f0d5a8" stroke-width="1"></path><path d="M49.756874999999994 25.764374999999998h0v-1.6275C49.756874999999994 15.474374999999998 42.341249999999995 9.1875 33.18 9.1875h-3.36c-9.1875 0 -16.576875 6.234375 -16.576875 14.896875v1.614375h0a14.07 14.07 0 0 0 -4.974375 10.749374999999999C8.268749999999999 43.824375 14.581875 49.875 22.378125 49.875H40.6875c7.796250000000001 0 14.109375 -5.984999999999999 14.109375 -13.36125a14.07 14.07 0 0 0 -5.04 -10.749374999999999Z" fill="none" stroke="#45413c" stroke-linecap="round" stroke-linejoin="round" stroke-width="1"></path><path d="M25.095000000000002 49.809375a6.405 4.003125 0 1 0 12.81 0 6.405 4.003125 0 1 0 -12.81 0Z" fill="#f0d5a8" stroke="#45413c" stroke-linecap="round" stroke-linejoin="round" stroke-width="1"></path><path d="M33.901875 36.98625h-4.80375a8.019375 8.019375 0 0 0 -8.019375 8.00625A5.59125 5.59125 0 0 0 31.5 47.840625a5.59125 5.59125 0 0 0 10.42125 -2.848125 8.019375 8.019375 0 0 0 -8.019375 -8.00625Z" fill="#f7e5c6" stroke-width="1"></path><path d="M29.098125000000003 41.29125h4.80375a8.00625 8.00625 0 0 1 7.63875 5.69625 5.565 5.565 0 0 0 0.380625 -1.995 8.019375 8.019375 0 0 0 -8.019375 -8.00625h-4.80375a8.019375 8.019375 0 0 0 -8.019375 8.00625 5.565 5.565 0 0 0 0.380625 1.995 8.00625 8.00625 0 0 1 7.63875 -5.69625Z" fill="#fff5e3" stroke-width="1"></path><path d="M33.901875 36.98625h-4.80375a8.019375 8.019375 0 0 0 -8.019375 8.00625A5.59125 5.59125 0 0 0 31.5 47.840625a5.59125 5.59125 0 0 0 10.42125 -2.848125 8.019375 8.019375 0 0 0 -8.019375 -8.00625Z" fill="none" stroke="#45413c" stroke-linecap="round" stroke-linejoin="round" stroke-width="1"></path><path d="M35.503125000000004 39.375A4.108125 4.108125 0 0 1 27.5625 39.375c0 -1.3125 1.7850000000000001 -2.401875 4.003125 -2.401875s3.9375 1.089375 3.9375 2.401875Z" fill="#87898c" stroke="#45413c" stroke-linecap="round" stroke-linejoin="round" stroke-width="1"></path><path d="M39.519375 32.1825a2.401875 2.401875 0 1 0 4.80375 0 2.401875 2.401875 0 1 0 -4.80375 0Z" fill="#45413c" stroke="#45413c" stroke-linecap="round" stroke-linejoin="round" stroke-width="1"></path><path d="M18.676875 32.1825a2.401875 2.401875 0 1 0 4.80375 0 2.401875 2.401875 0 1 0 -4.80375 0Z" fill="#45413c" stroke="#45413c" stroke-linecap="round" stroke-linejoin="round" stroke-width="1"></path><path d="M50.728125 39.9c0 0.721875 -1.3125 1.3125 -2.9137500000000003 1.3125s-2.9137500000000003 -0.5906250000000001 -2.9137500000000003 -1.3125 1.3125 -1.3125 2.9137500000000003 -1.3125 2.9137500000000003 0.5906250000000001 2.9137500000000003 1.3125Z" fill="#fff5e3" stroke-width="1"></path><path d="M18.099375 39.9c0 0.721875 -1.3125 1.3125 -2.9137500000000003 1.3125s-2.9137500000000003 -0.5906250000000001 -2.9137500000000003 -1.3125 1.3125 -1.3125 2.9137500000000003 -1.3125 2.9137500000000003 0.5906250000000001 2.9137500000000003 1.3125Z" fill="#fff5e3" stroke-width="1"></path></svg>