<svg viewBox="-0.5 -0.5 64 64" xmlns="http://www.w3.org/2000/svg" height="64" width="64"><path d="M46.934999999999995 44.3625s0.669375 -9.463125 6.1425 -6.95625 -2.12625 8.019375 -2.12625 8.019375Z" fill="#ffccdd" stroke-width="1"></path><path d="M51.988125 40.13625c1.4175 0.65625 1.981875 1.4831249999999998 2.0343750000000003 2.375625 1.3125 -1.70625 1.9425 -3.78 -0.945 -5.105625 -3.451875 -1.588125 -4.9875 1.60125 -5.656874999999999 4.160625a3.255 3.255 0 0 1 4.5675 -1.430625Z" fill="#ffe5ee" stroke-width="1"></path><path d="M46.934999999999995 44.3625s0.669375 -9.463125 6.1425 -6.95625 -2.12625 8.019375 -2.12625 8.019375Z" fill="none" stroke="#45413c" stroke-linecap="round" stroke-linejoin="round" stroke-width="1"></path><path d="m50.623125 45.33375 -0.2625 -1.8112499999999998a6.733125 6.733125 0 0 1 0.459375 -3.255" fill="#ebcb00" stroke="#45413c" stroke-linecap="round" stroke-linejoin="round" stroke-width="1"></path><path d="M50.360625 45.373125a11.9175 11.9175 0 0 1 5.105625 -1.39125 13.88625 13.88625 0 0 1 5.565 1.86375l-1.39125 4.17375a12.311250000000001 12.311250000000001 0 0 0 -4.17375 -3.255 6.37875 6.37875 0 0 0 -4.64625 0Z" fill="#ffccdd" stroke="#45413c" stroke-linecap="round" stroke-linejoin="round" stroke-width="1"></path><path d="m28.14 24.01875 2.0475 1.3125a9.358125 9.358125 0 0 1 3.17625 3.5700000000000003 57.579375 57.579375 0 0 0 5.919375 9.909374999999999 192.9375 192.9375 0 0 0 14.83125 15.75l1.850625 -1.86375a198.095625 198.095625 0 0 1 -13.899375 -14.7525 51.89625 51.89625 0 0 1 -5.06625 -8.045625 9.31875 9.31875 0 0 1 -0.695625 -7.69125Z" fill="#6dd627" stroke="#45413c" stroke-linecap="round" stroke-linejoin="round" stroke-width="1"></path><path d="M14.805 58.40625a20.34375 1.96875 0 1 0 40.6875 0 20.34375 1.96875 0 1 0 -40.6875 0Z" fill="#45413c" opacity=".15" stroke-width="1"></path><path d="m14.161874999999998 21.249375 0.931875 0.2625a11.353125 11.353125 0 0 1 5.0531250000000005 2.9400000000000004l32.99625 32.983125 1.850625 -1.850625 -31.854375 -31.8675A11.8125 11.8125 0 0 1 19.6875 15.671249999999999Z" fill="#6dd627" stroke="#45413c" stroke-linecap="round" stroke-linejoin="round" stroke-width="1"></path><path d="M13.610624999999999 18.073125h0a7.53375 7.53375 0 0 1 -7.783125 -7.244999999999999L5.683125 6.5625l3.661875 3.38625a13.860000000000001 13.860000000000001 0 0 1 4.265625 8.124375Z" fill="#ff6242" stroke="#45413c" stroke-linecap="round" stroke-linejoin="round" stroke-width="1"></path><path d="M16.183125 16.14375a7.507499999999999 7.507499999999999 0 0 0 -5.998125 -8.780625L5.683125 6.5625 8.793750000000001 10.696875a13.938749999999999 13.938749999999999 0 0 0 7.389375 5.446875Z" fill="#ff6242" stroke-width="1"></path><path d="M10.276875 9.961875a7.520625000000001 7.520625000000001 0 0 1 5.95875 5.85375 7.520625000000001 7.520625000000001 0 0 0 -6.050625 -8.4525L5.683125 6.5625 7.875 9.52875Z" fill="#ff866e" stroke-width="1"></path><path d="M16.183125 16.14375h0a7.507499999999999 7.507499999999999 0 0 0 -5.998125 -8.780625L5.683125 6.5625 8.793750000000001 10.696875a13.938749999999999 13.938749999999999 0 0 0 7.389375 5.446875Z" fill="none" stroke="#45413c" stroke-linecap="round" stroke-linejoin="round" stroke-width="1"></path><path d="M17.495625 21.70875a9.1875 9.1875 0 0 0 0 -12.99375L13.78125 5.000625v6.129375a16.944375 16.944375 0 0 0 3.714375 10.578750000000001Z" fill="#ff6242" stroke-width="1"></path><path d="M16.51125 11.116875a9.1875 9.1875 0 0 1 2.415 8.74125 9.1875 9.1875 0 0 0 -1.430625 -11.143125L13.78125 5.000625V8.4Z" fill="#ff866e" stroke-width="1"></path><path d="M17.495625 21.70875h0a9.1875 9.1875 0 0 0 0 -12.99375L13.78125 5.000625v6.129375a16.944375 16.944375 0 0 0 3.714375 10.578750000000001Z" fill="none" stroke="#45413c" stroke-linecap="round" stroke-linejoin="round" stroke-width="1"></path><path d="M14.30625 15.290625a16.9575 16.9575 0 0 0 -4.22625 -0.538125H3.9375l3.714375 3.714375a9.1875 9.1875 0 0 0 9.1875 2.296875 16.655625 16.655625 0 0 1 -2.533125 -5.473125Z" fill="#ff6242" stroke="#45413c" stroke-linecap="round" stroke-linejoin="round" stroke-width="1"></path><path d="M33.862500000000004 20.34375a7.520625000000001 7.520625000000001 0 0 0 -2.4675 -10.3425L27.74625 7.74375 28.875 12.626249999999999a13.794375 13.794375 0 0 0 4.9875 7.7175Z" fill="#ffe500" stroke-width="1"></path><path d="M30.63375 12.193124999999998a7.507499999999999 7.507499999999999 0 0 1 3.49125 7.74375 7.520625000000001 7.520625000000001 0 0 0 -2.625 -9.935625L27.74625 7.74375l0.7350000000000001 3.12375Z" fill="#fff48c" stroke-width="1"></path><path d="M33.862500000000004 20.34375h0a7.520625000000001 7.520625000000001 0 0 0 -2.4675 -10.3425L27.74625 7.74375 28.875 12.626249999999999a13.794375 13.794375 0 0 0 4.9875 7.7175Z" fill="none" stroke="#45413c" stroke-linecap="round" stroke-linejoin="round" stroke-width="1"></path><path d="M30.909375 21.551250000000003h0A7.520625000000001 7.520625000000001 0 0 1 26.25 11.99625l1.4962499999999999 -4.2525 2.086875 4.685625a13.951875000000001 13.951875000000001 0 0 1 1.07625 9.1875Z" fill="#ffe500" stroke="#45413c" stroke-linecap="round" stroke-linejoin="round" stroke-width="1"></path><path d="M35.14875 25.370624999999997h0a9.1875 9.1875 0 0 1 -11.300625 -6.418125l-1.39125 -5.06625 5.315625 3.031875a16.944375 16.944375 0 0 1 7.37625 8.4525Z" fill="#ffe500" stroke="#45413c" stroke-linecap="round" stroke-linejoin="round" stroke-width="1"></path><path d="M31.119375 19.411875a16.760625 16.760625 0 0 1 1.60125 -3.85875l3.01875 -5.328749999999999 1.39125 5.06625a9.1875 9.1875 0 0 1 -2.454375 9.03 16.865624999999998 16.865624999999998 0 0 0 -3.556875 -4.90875Z" fill="#ffe500" stroke-width="1"></path><path d="M35.818125 17.0625a9.1875 9.1875 0 0 1 -0.9056249999999999 7.048125 9.1875 9.1875 0 0 0 2.218125 -8.793750000000001l-1.39125 -5.0925 -1.2075 2.12625Z" fill="#fff48c" stroke-width="1"></path><path d="M31.119375 19.411875a16.760625 16.760625 0 0 1 1.60125 -3.85875l3.01875 -5.328749999999999 1.39125 5.06625a9.1875 9.1875 0 0 1 -2.454375 9.03 16.865624999999998 16.865624999999998 0 0 0 -3.556875 -4.90875Z" fill="none" stroke="#45413c" stroke-linecap="round" stroke-linejoin="round" stroke-width="1"></path><path d="m19.228125000000002 28.245 1.3125 2.0343750000000003a9.1875 9.1875 0 0 0 3.5700000000000003 3.17625A58.1175 58.1175 0 0 1 34.125 39.375c6.43125 5.0531250000000005 18.08625 17.180625 18.08625 17.180625l-1.89 1.850625S39.48 47.25 33.15375 42.170625a52.145624999999995 52.145624999999995 0 0 0 -8.045625 -5.079375 9.358125 9.358125 0 0 0 -7.69125 -0.695625Z" fill="#6dd627" stroke="#45413c" stroke-linecap="round" stroke-linejoin="round" stroke-width="1"></path><path d="M15.474374999999998 33.954375h0A7.520625000000001 7.520625000000001 0 0 1 5.131875 31.5L2.8875 27.838125l4.869375 1.155a13.88625 13.88625 0 0 1 7.7175 4.96125Z" fill="#ff87af" stroke="#45413c" stroke-linecap="round" stroke-linejoin="round" stroke-width="1"></path><path d="M16.760625 31.001250000000002h0a7.520625000000001 7.520625000000001 0 0 0 -9.541875 -4.6725l-4.33125 1.509375 4.764375 2.086875a13.741875 13.741875 0 0 0 9.10875 1.07625Z" fill="#ff6196" stroke="#45413c" stroke-linecap="round" stroke-linejoin="round" stroke-width="1"></path><path d="M20.58 35.240625a9.1875 9.1875 0 0 0 -6.418125 -11.2875l-5.0531250000000005 -1.4043750000000002 3.01875 5.328749999999999a16.905 16.905 0 0 0 8.4525 7.363125Z" fill="#ff87af" stroke-width="1"></path><path d="M13.951875000000001 26.026874999999997a9.1875 9.1875 0 0 1 6.74625 8.7675 9.1875 9.1875 0 0 0 -6.5625 -10.84125l-5.026875 -1.4043750000000002L10.5 25.081875Z" fill="#ff6196" stroke-width="1"></path><path d="M20.58 35.240625h0a9.1875 9.1875 0 0 0 -6.418125 -11.2875l-5.0531250000000005 -1.4043750000000002 3.01875 5.328749999999999a16.905 16.905 0 0 0 8.4525 7.363125Z" fill="none" stroke="#45413c" stroke-linecap="round" stroke-linejoin="round" stroke-width="1"></path><path d="M14.62125 31.224375A16.72125 16.72125 0 0 0 10.7625 32.8125l-5.25 3.01875L10.5 37.235625a9.1875 9.1875 0 0 0 9.03 -2.454375 17.35125 17.35125 0 0 1 -4.90875 -3.556875Z" fill="#ff87af" stroke="#45413c" stroke-linecap="round" stroke-linejoin="round" stroke-width="1"></path><path d="M49.875 54.376875s-9.8175 -9.66 -11.13 -18.55875 7.875 -18.099375 7.875 -18.099375 -4.17375 6.95625 -1.39125 17.1675a37.38 37.38 0 0 0 8.413125 15.75Z" fill="#6dd627" stroke-width="1"></path><path d="M43.483125 21.538125a24.36 24.36 0 0 0 -0.7743749999999999 15.894375 42.459375 42.459375 0 0 0 8.544375 15.605625l2.415 -2.38875a37.38 37.38 0 0 1 -8.413125 -15.75c-2.7825 -10.224375 1.39125 -17.180625 1.39125 -17.180625a33.954375 33.954375 0 0 0 -3.163125 3.819375Z" fill="#9ceb60" stroke-width="1"></path><path d="M49.875 54.376875s-9.8175 -9.66 -11.13 -18.55875 7.875 -18.099375 7.875 -18.099375 -4.17375 6.95625 -1.39125 17.1675a37.38 37.38 0 0 0 8.413125 15.75Z" fill="none" stroke="#45413c" stroke-linecap="round" stroke-linejoin="round" stroke-width="1"></path><path d="M53.668125 50.465625s-5.394375 -7.940625 -18.5325 -12.88875 -24.215625 6.405 -24.215625 6.405a22.903125 22.903125 0 0 1 21.695625 0.354375 69.286875 69.286875 0 0 1 15.421875 11.720625Z" fill="#6dd627" stroke-width="1"></path><path d="M33.823125 41.015625a43.089375 43.089375 0 0 1 17.587500000000002 11.694375l2.2575 -2.244375s-5.394375 -7.940625 -18.5325 -12.88875 -24.215625 6.405 -24.215625 6.405a22.3125 22.3125 0 0 1 7.48125 -2.3625000000000003 20.409375 20.409375 0 0 1 15.421875 -0.60375Z" fill="#9ceb60" stroke-width="1"></path><path d="M53.668125 50.465625s-5.394375 -7.940625 -18.5325 -12.88875 -24.215625 6.405 -24.215625 6.405a22.903125 22.903125 0 0 1 21.695625 0.354375 69.286875 69.286875 0 0 1 15.421875 11.720625Z" fill="none" stroke="#45413c" stroke-linecap="round" stroke-linejoin="round" stroke-width="1"></path><path d="m51.751875 46.85625 -6.95625 6.95625 -5.578125 -3.714375 8.82 -8.82 3.714375 5.578125z" fill="#ffccdd" stroke-width="1"></path><path d="m51.751875 46.85625 -2.008125 2.008125 -3.70125 -5.59125 1.995 -1.995 3.714375 5.578125z" fill="#ffe5ee" stroke-width="1"></path><path d="m51.751875 46.85625 -6.95625 6.95625 -5.578125 -3.714375 8.82 -8.82 3.714375 5.578125z" fill="none" stroke="#45413c" stroke-linecap="round" stroke-linejoin="round" stroke-width="1"></path></svg>