<svg viewBox="-0.5 -0.5 64 64" xmlns="http://www.w3.org/2000/svg" height="64" width="64"><path d="M50.334375 7.205625a6.06375 6.06375 0 0 0 -6.5625 -0.49875 6.024375 6.024375 0 0 0 -5.1187499999999995 -3.688125 6.11625 6.11625 0 0 0 -5.145 1.771875 5.998125 5.998125 0 0 0 -6.5625 -1.2075c-3.3075 1.3125 -5.105625 4.606875 -3.4256249999999997 8.89875s7.100625 10.329375 10.395 9.043125a2.625 2.625 0 0 0 0.7350000000000001 -0.44625000000000004 3.3206249999999997 3.3206249999999997 0 0 0 1.96875 1.089375 3.07125 3.07125 0 0 0 1.693125 -0.380625 2.8875 2.8875 0 0 0 0.91875 1.155c2.900625 2.0475 9.620625 -2.506875 12.271875 -6.273750000000001s1.7325000000000002 -7.48125 -1.168125 -9.463125Z" fill="#ff866e" stroke-width="1"></path><path d="M26.95875 7.441875a5.998125 5.998125 0 0 1 6.5625 1.2075 6.11625 6.11625 0 0 1 5.145 -1.771875 5.998125 5.998125 0 0 1 5.1187499999999995 3.688125 6.06375 6.06375 0 0 1 6.5625 0.49875 6.43125 6.43125 0 0 1 2.428125 3.1368750000000003 6.050625 6.050625 0 0 0 -2.428125 -6.995625 6.06375 6.06375 0 0 0 -6.5625 -0.49875 6.024375 6.024375 0 0 0 -5.1187499999999995 -3.688125 6.11625 6.11625 0 0 0 -5.145 1.771875 5.998125 5.998125 0 0 0 -6.5625 -1.2075 6.16875 6.16875 0 0 0 -3.7931250000000003 7.756875 6.11625 6.11625 0 0 1 3.7931250000000003 -3.8981250000000003Z" fill="#ffa694" stroke-width="1"></path><path d="M50.334375 7.205625a6.06375 6.06375 0 0 0 -6.5625 -0.49875 6.024375 6.024375 0 0 0 -5.1187499999999995 -3.688125 6.11625 6.11625 0 0 0 -5.145 1.771875 5.998125 5.998125 0 0 0 -6.5625 -1.2075c-3.3075 1.3125 -5.105625 4.606875 -3.4256249999999997 8.89875s7.100625 10.329375 10.395 9.043125a2.625 2.625 0 0 0 0.7350000000000001 -0.44625000000000004 3.3206249999999997 3.3206249999999997 0 0 0 1.96875 1.089375 3.07125 3.07125 0 0 0 1.693125 -0.380625 2.8875 2.8875 0 0 0 0.91875 1.155c2.900625 2.0475 9.620625 -2.506875 12.271875 -6.273750000000001s1.7325000000000002 -7.48125 -1.168125 -9.463125Z" fill="none" stroke="#45413c" stroke-linecap="round" stroke-linejoin="round" stroke-width="1"></path><path d="M18.624375 59.66625a15.54 2.02125 0 1 0 31.08 0 15.54 2.02125 0 1 0 -31.08 0Z" fill="#45413c" opacity=".15" stroke-width="1"></path><path d="M13.88625 33.586875a20.9475 20.9475 0 1 0 41.895 0 20.9475 20.9475 0 1 0 -41.895 0Z" fill="#f0f0f0" stroke-width="1"></path><path d="M34.83375 18.375a20.92125 20.92125 0 0 1 20.724375 18.08625 21 21 0 1 0 -41.44875 0A20.92125 20.92125 0 0 1 34.83375 18.375Z" fill="#ffffff" stroke-width="1"></path><path d="M13.88625 33.586875a20.9475 20.9475 0 1 0 41.895 0 20.9475 20.9475 0 1 0 -41.895 0Z" fill="none" stroke="#45413c" stroke-linecap="round" stroke-linejoin="round" stroke-width="1"></path><path d="M22.666875 50.61c0 3.9375 -2.415 5.945625000000001 -5.394375 5.945625000000001S11.8125 54.495000000000005 11.8125 50.61s2.415 -10.26375 5.4075 -10.26375 5.446875 6.391875 5.446875 10.26375Z" fill="#ff866e" stroke-width="1"></path><path d="M12.140625 48.050625a14.975625 14.975625 0 0 0 5.683125 0.721875 8.4 8.4 0 0 0 4.41 -1.4568750000000001c-0.826875 -3.4125 -2.743125 -6.969374999999999 -4.96125 -6.969374999999999s-4.41 4.081875 -5.131875 7.704375Z" fill="#ff6242" stroke-width="1"></path><path d="M22.666875 50.61c0 3.9375 -2.415 5.945625000000001 -5.394375 5.945625000000001S11.8125 54.495000000000005 11.8125 50.61s2.415 -10.26375 5.4075 -10.26375 5.446875 6.391875 5.446875 10.26375Z" fill="none" stroke="#45413c" stroke-linecap="round" stroke-linejoin="round" stroke-width="1"></path><path d="M5.105625 39.66375s4.081875 5.158125 10.1325 4.738125 5.4075 -6.759375 5.4075 -6.759375Z" fill="#ebcb00" stroke="#45413c" stroke-linecap="round" stroke-linejoin="round" stroke-width="1"></path><path d="M15.238125 26.25A9.830625 9.830625 0 0 0 9.1875 28.966875a19.123125 19.123125 0 0 0 -5.25 9.66 1.3125 1.3125 0 0 0 0.9056249999999999 1.575c3.688125 1.155 9.42375 0.63 13.125 0.249375 4.055625 -0.42 3.9375 -2.70375 2.70375 -4.7250000000000005S14.4375 32.6025 15.238125 26.25Z" fill="#ffe500" stroke-width="1"></path><path d="M4.816875 40.18875a18.45375 18.45375 0 0 1 5.538749999999999 -7.16625A14.188125000000001 14.188125000000001 0 0 1 15.75 30.58125a7.74375 7.74375 0 0 1 -0.511875 -4.33125A9.830625 9.830625 0 0 0 9.1875 28.966875a19.070625 19.070625 0 0 0 -5.25 9.66 1.3125 1.3125 0 0 0 0.879375 1.561875Z" fill="#fff48c" stroke-width="1"></path><path d="M15.238125 26.25A9.830625 9.830625 0 0 0 9.1875 28.966875a19.123125 19.123125 0 0 0 -5.25 9.66 1.3125 1.3125 0 0 0 0.9056249999999999 1.575c3.688125 1.155 9.42375 0.63 13.125 0.249375 4.055625 -0.42 3.9375 -2.70375 2.70375 -4.7250000000000005S14.4375 32.6025 15.238125 26.25Z" fill="none" stroke="#45413c" stroke-linecap="round" stroke-linejoin="round" stroke-width="1"></path><path d="M24.688125 27.313125a1.8375 1.8375 0 1 0 3.675 0 1.8375 1.8375 0 1 0 -3.675 0Z" fill="#45413c" stroke="#45413c" stroke-linecap="round" stroke-linejoin="round" stroke-width="1"></path><path d="M34.83375 34.93875c0 0.721875 -0.9056249999999999 1.3125 -2.02125 1.3125s-2.0343750000000003 -0.5906250000000001 -2.0343750000000003 -1.3125 0.9056249999999999 -1.3125 2.0343750000000003 -1.3125 2.02125 0.5906250000000001 2.02125 1.3125Z" fill="#ffccdd" stroke-width="1"></path></svg>