<svg viewBox="-0.5 -0.5 64 64" xmlns="http://www.w3.org/2000/svg" height="64" width="64"><path d="M15.75 59.71875a15.75 1.96875 0 1 0 31.5 0 15.75 1.96875 0 1 0 -31.5 0Z" fill="#45413c" opacity=".15" stroke-width="1"></path><path d="M40.005 57.973125a1.089375 1.089375 0 0 1 -0.8662500000000001 1.745625H23.716875a1.089375 1.089375 0 0 1 -0.8662500000000001 -1.745625 14.62125 14.62125 0 0 0 2.926875 -8.780625v-5.01375h11.300625v5.01375a14.62125 14.62125 0 0 0 2.926875 8.780625Z" fill="#dea47a" stroke-width="1"></path><path d="M37.905 54.022499999999994a14.319375 14.319375 0 0 1 -0.826875 -4.83v-5.01375h-11.300625v5.01375a14.6475 14.6475 0 0 1 -0.84 4.83Z" fill="#bf8256" stroke-width="1"></path><path d="M40.005 57.973125a1.089375 1.089375 0 0 1 -0.8662500000000001 1.745625H23.716875a1.089375 1.089375 0 0 1 -0.8662500000000001 -1.745625 14.62125 14.62125 0 0 0 2.926875 -8.780625v-5.01375h11.300625v5.01375a14.62125 14.62125 0 0 0 2.926875 8.780625Z" fill="none" stroke="#45413c" stroke-linecap="round" stroke-linejoin="round" stroke-width="1"></path><path d="m50.098125 45.045 -5.0531250000000005 -6.01125a1.168125 1.168125 0 0 1 0.8925000000000001 -1.91625h0.7743749999999999a1.955625 1.955625 0 0 0 1.4175 -3.2943749999999996l-5.25 -5.630625a1.4043750000000002 1.4043750000000002 0 0 1 1.02375 -2.375625 1.955625 1.955625 0 0 0 1.44375 -3.28125l-11.8125 -12.83625a2.848125 2.848125 0 0 0 -4.160625 0l-11.8125 12.83625a1.955625 1.955625 0 0 0 1.430625 3.28125 1.4175 1.4175 0 0 1 1.036875 2.375625l-5.25 5.630625a1.955625 1.955625 0 0 0 1.430625 3.2943749999999996h0.7743749999999999a1.168125 1.168125 0 0 1 0.8925000000000001 1.91625l-5.1187499999999995 6.01125A2.9137500000000003 2.9137500000000003 0 0 0 14.975625 49.875h32.89125a2.9137500000000003 2.9137500000000003 0 0 0 2.2312499999999997 -4.83Z" fill="#6dd627" stroke-width="1"></path><path d="m18.7425 25.80375 10.605 -11.4975a2.848125 2.848125 0 0 1 4.160625 0l10.605 11.4975a1.9425 1.9425 0 0 0 1.23375 -3.2681250000000004l-11.8125 -12.83625a2.848125 2.848125 0 0 0 -4.160625 0l-11.8125 12.83625a1.9425 1.9425 0 0 0 1.1812500000000001 3.2681250000000004Z" fill="#9ceb60" stroke-width="1"></path><path d="m50.098125 45.045 -5.0531250000000005 -6.01125a1.168125 1.168125 0 0 1 0.8925000000000001 -1.91625h0.7743749999999999a1.955625 1.955625 0 0 0 1.4175 -3.2943749999999996l-5.25 -5.630625a1.4043750000000002 1.4043750000000002 0 0 1 1.02375 -2.375625 1.955625 1.955625 0 0 0 1.44375 -3.28125l-11.8125 -12.83625a2.848125 2.848125 0 0 0 -4.160625 0l-11.8125 12.83625a1.955625 1.955625 0 0 0 1.430625 3.28125 1.4175 1.4175 0 0 1 1.036875 2.375625l-5.25 5.630625a1.955625 1.955625 0 0 0 1.430625 3.2943749999999996h0.7743749999999999a1.168125 1.168125 0 0 1 0.8925000000000001 1.91625l-5.1187499999999995 6.01125A2.9137500000000003 2.9137500000000003 0 0 0 14.975625 49.875h32.89125a2.9137500000000003 2.9137500000000003 0 0 0 2.2312499999999997 -4.83Z" fill="none" stroke="#45413c" stroke-linecap="round" stroke-linejoin="round" stroke-width="1"></path><path d="m31.42125 8.780625 -1.4831249999999998 0.7875a1.155 1.155 0 0 1 -1.68 -1.23375l0.275625 -1.65375 -1.194375 -1.168125a1.155 1.155 0 0 1 0.643125 -1.981875l1.65375 -0.249375 0.7481249999999999 -1.4962499999999999a1.168125 1.168125 0 0 1 2.086875 0l0.7481249999999999 1.4962499999999999 1.65375 0.249375a1.155 1.155 0 0 1 0.643125 1.981875l-1.194375 1.168125 0.275625 1.65375a1.155 1.155 0 0 1 -1.68 1.23375Z" fill="#ffe500" stroke="#45413c" stroke-linecap="round" stroke-linejoin="round" stroke-width="1"></path><path d="M33.705 37.183125h-4.554375a0.5775 0.5775 0 0 0 -0.5775 0.616875l0.301875 3.4650000000000003a2.625 2.625 0 0 0 5.158125 0l0.275625 -3.4650000000000003a0.5775 0.5775 0 0 0 -0.60375 -0.616875Z" fill="#ff866e" stroke="#45413c" stroke-linecap="round" stroke-linejoin="round" stroke-width="1"></path><path d="M37.24875 30.778125a1.745625 1.745625 0 1 0 3.49125 0 1.745625 1.745625 0 1 0 -3.49125 0Z" fill="#45413c" stroke="#45413c" stroke-linecap="round" stroke-linejoin="round" stroke-width="1"></path><path d="M22.115625 30.778125a1.745625 1.745625 0 1 0 3.49125 0 1.745625 1.745625 0 1 0 -3.49125 0Z" fill="#45413c" stroke="#45413c" stroke-linecap="round" stroke-linejoin="round" stroke-width="1"></path><path d="M43.220625 36.894375c0 0.695625 -0.945 1.3125 -2.113125 1.3125s-2.113125 -0.5775 -2.113125 -1.3125 0.945 -1.3125 2.113125 -1.3125 2.113125 0.616875 2.113125 1.3125Z" fill="#ffcebf" stroke-width="1"></path><path d="M23.86125 36.98625c0 0.70875 -0.945 1.3125 -2.113125 1.3125s-2.113125 -0.564375 -2.113125 -1.3125 0.945 -1.3125 2.113125 -1.3125 2.113125 0.616875 2.113125 1.3125Z" fill="#ffcebf" stroke-width="1"></path><path d="M34.9125 20.304375a1.745625 1.745625 0 1 0 3.49125 0 1.745625 1.745625 0 1 0 -3.49125 0Z" fill="#ffe500" stroke="#45413c" stroke-linecap="round" stroke-linejoin="round" stroke-width="1"></path><path d="M38.994375 17.40375a1.745625 1.745625 0 1 0 3.49125 0 1.745625 1.745625 0 1 0 -3.49125 0Z" fill="#ff6242" stroke="#45413c" stroke-linecap="round" stroke-linejoin="round" stroke-width="1"></path><path d="M29.675625 20.895a1.745625 1.745625 0 1 0 3.49125 0 1.745625 1.745625 0 1 0 -3.49125 0Z" fill="#ff6196" stroke="#45413c" stroke-linecap="round" stroke-linejoin="round" stroke-width="1"></path><path d="M24.451874999999998 20.304375a1.745625 1.745625 0 1 0 3.49125 0 1.745625 1.745625 0 1 0 -3.49125 0Z" fill="#00dfeb" stroke="#45413c" stroke-linecap="round" stroke-linejoin="round" stroke-width="1"></path><path d="M20.37 17.40375a1.745625 1.745625 0 1 0 3.49125 0 1.745625 1.745625 0 1 0 -3.49125 0Z" fill="#ffe500" stroke="#45413c" stroke-linecap="round" stroke-linejoin="round" stroke-width="1"></path></svg>