<svg viewBox="-0.5 -0.5 64 64" xmlns="http://www.w3.org/2000/svg" height="64" width="64"><path d="M5.17125 30.37125A2.835 2.835 0 0 1 9.1875 30.279375l-3.9375 -3.7931250000000003a3.255 3.255 0 0 1 4.501875 -4.685625l0.1575 0.1575a3.4650000000000003 3.4650000000000003 0 0 1 4.7906249999999995 -5.000625l2.2575 2.165625A3.255 3.255 0 0 1 21.433124999999997 14.4375l11.720625 11.248125c-1.4568750000000001 -2.1525 -0.97125 -5.90625 1.3125 -7.11375a2.1 2.1 0 0 1 2.743125 0.76125l5.709375 7.363125a20.173125 20.173125 0 0 1 -2.625 24.5175 12.140625 12.140625 0 0 1 -17.1675 0.354375L5.25 34.387499999999996a2.835 2.835 0 0 1 -0.07875 -4.01625Z" fill="#ebcb00" stroke="#45413c" stroke-linecap="round" stroke-linejoin="round" stroke-width="1"></path><path d="m39.046875 31.329375000000002 -5.893125 -5.656874999999999" fill="none" stroke="#45413c" stroke-linecap="round" stroke-linejoin="round" stroke-width="1"></path><path d="m9.89625 21.958125 11.825625 11.353125" fill="none" stroke="#45413c" stroke-linecap="round" stroke-linejoin="round" stroke-width="1"></path><path d="m9.1875 30.279375 8.045625 7.7175" fill="none" stroke="#45413c" stroke-linecap="round" stroke-linejoin="round" stroke-width="1"></path><path d="m16.944375 19.123125 9.581249999999999 9.1875" fill="none" stroke="#45413c" stroke-linecap="round" stroke-linejoin="round" stroke-width="1"></path><path d="M19.03125 59.71875a15.09375 1.96875 0 1 0 30.1875 0 15.09375 1.96875 0 1 0 -30.1875 0Z" fill="#45413c" opacity=".15" stroke-width="1"></path><path d="M50.16375 17.92875 57.14625 15.75a0.511875 0.511875 0 0 0 0.328125 -0.7350000000000001l-1.7981250000000002 -3.031875a0.525 0.525 0 0 0 -0.81375 0l-5.17125 5.25a0.459375 0.459375 0 0 0 0.4725 0.695625Z" fill="#ffe500" stroke="#45413c" stroke-linecap="round" stroke-linejoin="round" stroke-width="1"></path><path d="m46.305 14.791875 3.4125 -6.4575a0.511875 0.511875 0 0 0 -0.275625 -0.76125l-3.4256249999999997 -0.879375a0.511875 0.511875 0 0 0 -0.60375 0.538125v7.336875a0.4725 0.4725 0 0 0 0.8925000000000001 0.22312500000000002Z" fill="#ffe500" stroke="#45413c" stroke-linecap="round" stroke-linejoin="round" stroke-width="1"></path><path d="M21.275625 9.94875 24.9375 3.583125a0.525 0.525 0 0 0 -0.2625 -0.76125l-3.399375 -0.97125a0.511875 0.511875 0 0 0 -0.616875 0.511875l-0.21 7.35a0.459375 0.459375 0 0 0 0.826875 0.23625Z" fill="#ffe500" stroke="#45413c" stroke-linecap="round" stroke-linejoin="round" stroke-width="1"></path><path d="M16.314375 10.303125 14.4375 3.255a0.511875 0.511875 0 0 0 -0.721875 -0.354375L10.565625 4.59375a0.525 0.525 0 0 0 -0.065625 0.81375l5.01375 5.355a0.4725 0.4725 0 0 0 0.800625 -0.459375Z" fill="#ffe500" stroke="#45413c" stroke-linecap="round" stroke-linejoin="round" stroke-width="1"></path><path d="M13.623750000000001 33.18a2.835 2.835 0 0 1 4.01625 -0.07875l-3.9375 -3.7931250000000003a3.255 3.255 0 1 1 4.501875 -4.685625l0.1575 0.144375a3.4650000000000003 3.4650000000000003 0 1 1 4.7906249999999995 -5.000625l2.2575 2.165625a3.2418750000000003 3.2418750000000003 0 0 1 4.48875 -4.685625l11.720625 11.248125c-1.4568750000000001 -2.1525 -0.97125 -5.919375 1.3125 -7.11375a2.086875 2.086875 0 0 1 2.743125 0.7481249999999999l5.709375 7.37625a20.146874999999998 20.146874999999998 0 0 1 -2.625 24.504375000000003 12.140625 12.140625 0 0 1 -17.1675 0.354375L13.702499999999999 37.209375a2.86125 2.86125 0 0 1 -0.07875 -4.029375Z" fill="#ffe500" stroke-width="1"></path><path d="M42.931875 25.1475a2.086875 2.086875 0 0 1 2.743125 0.7481249999999999l5.709375 7.37625A20.265 20.265 0 0 1 54.285 42a20.146874999999998 20.146874999999998 0 0 0 -2.900625 -12.429375l-5.709375 -7.441875a2.086875 2.086875 0 0 0 -2.743125 -0.7481249999999999c-1.955625 1.02375 -2.625 3.9375 -1.8375 6.06375a3.9375 3.9375 0 0 1 1.8375 -2.296875Z" fill="#fff48c" stroke-width="1"></path><path d="M25.305 21.104999999999997a3.255 3.255 0 0 1 4.580625 -0.105L38.0625 28.875a4.528125 4.528125 0 0 0 4.895625 0.931875l-13.125 -12.586875a3.2418750000000003 3.2418750000000003 0 0 0 -4.8825 4.22625 1.955625 1.955625 0 0 1 0.354375 -0.34125Z" fill="#fff48c" stroke-width="1"></path><path d="M13.623750000000001 33.18a2.835 2.835 0 0 1 4.01625 -0.07875l-3.9375 -3.7931250000000003a3.255 3.255 0 1 1 4.501875 -4.685625l0.1575 0.144375a3.4650000000000003 3.4650000000000003 0 1 1 4.7906249999999995 -5.000625l2.2575 2.165625a3.2418750000000003 3.2418750000000003 0 0 1 4.48875 -4.685625l11.720625 11.248125c-1.4568750000000001 -2.1525 -0.97125 -5.919375 1.3125 -7.11375a2.086875 2.086875 0 0 1 2.743125 0.7481249999999999l5.709375 7.37625a20.146874999999998 20.146874999999998 0 0 1 -2.625 24.504375000000003 12.140625 12.140625 0 0 1 -17.1675 0.354375L13.702499999999999 37.209375a2.86125 2.86125 0 0 1 -0.07875 -4.029375Z" fill="none" stroke="#45413c" stroke-linecap="round" stroke-linejoin="round" stroke-width="1"></path><path d="m47.499375 34.138125 -5.893125 -5.64375" fill="none" stroke="#45413c" stroke-linecap="round" stroke-linejoin="round" stroke-width="1"></path><path d="M18.34875 24.766875000000002 30.1875 36.133125" fill="none" stroke="#45413c" stroke-linecap="round" stroke-linejoin="round" stroke-width="1"></path><path d="m17.64 33.10125 8.045625 7.7175" fill="none" stroke="#45413c" stroke-linecap="round" stroke-linejoin="round" stroke-width="1"></path><path d="m25.396875 21.931875 9.581249999999999 9.200625" fill="none" stroke="#45413c" stroke-linecap="round" stroke-linejoin="round" stroke-width="1"></path></svg>