<svg viewBox="-0.5 -0.5 64 64" xmlns="http://www.w3.org/2000/svg" height="64" width="64"><path d="M12.298124999999999 56.555625000000006a19.201875 2.506875 0 1 0 38.40375 0 19.201875 2.506875 0 1 0 -38.40375 0Z" fill="#45413c" opacity=".15" stroke-width="1"></path><path d="M56.791875000000005 35.975625a7.993125 7.993125 0 0 0 -4.7906249999999995 -7.32375 8.793750000000001 8.793750000000001 0 0 0 0.301875 -2.28375A8.964375 8.964375 0 0 0 43.3125 17.40375a8.754375 8.754375 0 0 0 -3.38625 0.669375 13.36125 13.36125 0 0 0 -26.525625 2.244375l0 0.91875a11.8125 11.8125 0 0 0 4.633125 22.7325h30.804375a7.993125 7.993125 0 0 0 7.953749999999999 -7.993125Z" fill="#ffffff" stroke-width="1"></path><path d="M48.838125 38.338125H18.03375A11.8125 11.8125 0 0 1 6.5625 29.32125a11.8125 11.8125 0 0 0 11.47125 14.6475h30.804375a7.993125 7.993125 0 0 0 7.441875 -10.815 8.00625 8.00625 0 0 1 -7.441875 5.184375Z" fill="#f0f0f0" stroke-width="1"></path><path d="M56.791875000000005 35.975625a7.993125 7.993125 0 0 0 -4.7906249999999995 -7.32375 8.793750000000001 8.793750000000001 0 0 0 0.301875 -2.28375A8.964375 8.964375 0 0 0 43.3125 17.40375a8.754375 8.754375 0 0 0 -3.38625 0.669375 13.36125 13.36125 0 0 0 -26.525625 2.244375l0 0.91875a11.8125 11.8125 0 0 0 4.633125 22.7325h30.804375a7.993125 7.993125 0 0 0 7.953749999999999 -7.993125Z" fill="none" stroke="#45413c" stroke-linecap="round" stroke-linejoin="round" stroke-width="1"></path><path d="M39.965624999999996 18.073125a10.014375 10.014375 0 0 0 -5.4075 8.518125" fill="none" stroke="#45413c" stroke-linecap="round" stroke-linejoin="round" stroke-width="1"></path></svg>