<svg viewBox="-0.5 -0.5 64 64" xmlns="http://www.w3.org/2000/svg" height="64" width="64"><path d="M10.486875 59.71875a21 1.96875 0 1 0 42 0 21 1.96875 0 1 0 -42 0Z" fill="#45413c" opacity=".15" stroke-width="1"></path><path d="M55.991249999999994 12.6A5.814375 5.814375 0 0 0 57.09375 9.1875 5.893125 5.893125 0 0 0 51.1875 3.28125a5.814375 5.814375 0 0 0 -3.4125 1.1025A3.28125 3.28125 0 1 0 44.625 8.53125a3.4125 3.4125 0 0 0 0.7350000000000001 -0.09187500000000001 4.83 4.83 0 0 0 -0.07875 0.7481249999999999 5.893125 5.893125 0 0 0 5.90625 5.90625 4.83 4.83 0 0 0 0.7481249999999999 -0.07875 3.4125 3.4125 0 0 0 -0.09187500000000001 0.7350000000000001 3.28125 3.28125 0 1 0 4.1475 -3.15Z" fill="#00b8f0" stroke="#45413c" stroke-linecap="round" stroke-linejoin="round" stroke-width="1"></path><path d="M7.00875 12.6A5.814375 5.814375 0 0 1 5.90625 9.1875 5.893125 5.893125 0 0 1 11.8125 3.28125a5.814375 5.814375 0 0 1 3.4125 1.1025A3.28125 3.28125 0 1 1 18.375 8.53125a3.4125 3.4125 0 0 1 -0.7350000000000001 -0.09187500000000001 4.83 4.83 0 0 1 0.07875 0.7481249999999999A5.893125 5.893125 0 0 1 11.8125 15.09375a4.83 4.83 0 0 1 -0.7481249999999999 -0.07875 3.4125 3.4125 0 0 1 0.09187500000000001 0.7350000000000001 3.28125 3.28125 0 1 1 -4.1475 -3.15Z" fill="#00b8f0" stroke="#45413c" stroke-linecap="round" stroke-linejoin="round" stroke-width="1"></path><path d="M5.25 29.53125a26.25 26.25 0 1 0 52.5 0 26.25 26.25 0 1 0 -52.5 0Z" fill="#fffce5" stroke-width="1"></path><path d="M31.5 3.28125a26.25 26.25 0 1 0 26.25 26.25 26.25 26.25 0 0 0 -26.25 -26.25Zm0 48.5625a23.953125 23.953125 0 1 1 23.953125 -23.953125A23.953125 23.953125 0 0 1 31.5 51.84375Z" fill="#fffacf" stroke-width="1"></path><path d="M23.625 8.53125a7.875 1.96875 0 1 0 15.75 0 7.875 1.96875 0 1 0 -15.75 0Z" fill="#ffffff" stroke-width="1"></path><path d="M5.25 29.53125a26.25 26.25 0 1 0 52.5 0 26.25 26.25 0 1 0 -52.5 0Z" fill="none" stroke="#45413c" stroke-linecap="round" stroke-linejoin="round" stroke-width="1"></path><path d="M51.1875 36.09375c0 1.089375 -1.4700000000000002 1.96875 -3.28125 1.96875s-3.28125 -0.879375 -3.28125 -1.96875 1.4700000000000002 -1.96875 3.28125 -1.96875 3.28125 0.879375 3.28125 1.96875Z" fill="#ff87af" stroke-width="1"></path><path d="M11.8125 36.09375c0 1.089375 1.4700000000000002 1.96875 3.28125 1.96875s3.28125 -0.879375 3.28125 -1.96875 -1.4700000000000002 -1.96875 -3.28125 -1.96875 -3.28125 0.879375 -3.28125 1.96875Z" fill="#ff87af" stroke-width="1"></path><path d="M25.59375 34.125a5.90625 4.59375 0 1 0 11.8125 0 5.90625 4.59375 0 1 0 -11.8125 0Z" fill="#ff6242" stroke-width="1"></path><path d="M31.5 32.15625a5.880000000000001 5.880000000000001 0 0 1 5.630625 3.28125 3.7275 3.7275 0 0 0 0.275625 -1.3125c0 -2.533125 -2.625 -4.59375 -5.90625 -4.59375s-5.90625 2.060625 -5.90625 4.59375a3.7275 3.7275 0 0 0 0.275625 1.3125A5.880000000000001 5.880000000000001 0 0 1 31.5 32.15625Z" fill="#ff866e" stroke-width="1"></path><path d="M25.59375 34.125a5.90625 4.59375 0 1 0 11.8125 0 5.90625 4.59375 0 1 0 -11.8125 0Z" fill="none" stroke="#45413c" stroke-linecap="round" stroke-linejoin="round" stroke-width="1"></path><path d="M31.5 49.875a14.91 14.91 0 0 1 -11.8125 -5.25 3.28125 3.28125 0 0 1 5.25 -3.9375 8.42625 8.42625 0 0 0 6.5625 2.625 8.3475 8.3475 0 0 0 6.5625 -2.625 3.3206249999999997 3.3206249999999997 0 0 1 4.580625 -0.63A3.255 3.255 0 0 1 43.3125 44.625a14.91 14.91 0 0 1 -11.8125 5.25Z" fill="#ff6242" stroke-width="1"></path><path d="M42.643125000000005 40.0575A3.3206249999999997 3.3206249999999997 0 0 0 38.0625 40.6875a8.3475 8.3475 0 0 1 -6.5625 2.625 8.42625 8.42625 0 0 1 -6.5625 -2.625 3.2681250000000004 3.2681250000000004 0 0 0 -5.893125 1.693125 3.609375 3.609375 0 0 1 5.25 0.616875A9.26625 9.26625 0 0 0 31.5 45.9375a9.26625 9.26625 0 0 0 7.244999999999999 -2.8875 3.5962500000000004 3.5962500000000004 0 0 1 5.25 -0.616875 3.2681250000000004 3.2681250000000004 0 0 0 -1.351875 -2.375625Z" fill="#ff866e" stroke-width="1"></path><path d="M31.5 49.875a14.91 14.91 0 0 1 -11.8125 -5.25 3.28125 3.28125 0 0 1 5.25 -3.9375 8.42625 8.42625 0 0 0 6.5625 2.625 8.3475 8.3475 0 0 0 6.5625 -2.625 3.3206249999999997 3.3206249999999997 0 0 1 4.580625 -0.63A3.255 3.255 0 0 1 43.3125 44.625a14.91 14.91 0 0 1 -11.8125 5.25Z" fill="none" stroke="#45413c" stroke-linecap="round" stroke-linejoin="round" stroke-width="1"></path><path d="M22.96875 43.3125s2.4675 3.28125 8.53125 3.28125 8.53125 -3.28125 8.53125 -3.28125" fill="none" stroke="#45413c" stroke-linecap="round" stroke-linejoin="round" stroke-width="1"></path><path d="M39.375 26.90625a4.59375 5.25 0 1 0 9.1875 0 4.59375 5.25 0 1 0 -9.1875 0Z" fill="#4acfff" stroke="#45413c" stroke-linecap="round" stroke-linejoin="round" stroke-width="1"></path><path d="M14.4375 26.90625a4.59375 5.25 0 1 0 9.1875 0 4.59375 5.25 0 1 0 -9.1875 0Z" fill="#4acfff" stroke="#45413c" stroke-linecap="round" stroke-linejoin="round" stroke-width="1"></path><path d="M20.34375 26.90625a1.3125 1.3125 0 1 1 -1.3125 -1.3125 1.3125 1.3125 0 0 1 1.3125 1.3125Z" fill="#45413c" stroke="#45413c" stroke-linecap="round" stroke-linejoin="round" stroke-width="1"></path><path d="M42.65625 26.90625a1.3125 1.3125 0 1 0 1.3125 -1.3125 1.3125 1.3125 0 0 0 -1.3125 1.3125Z" fill="#45413c" stroke="#45413c" stroke-linecap="round" stroke-linejoin="round" stroke-width="1"></path><path d="M39.375 18.375a5.25 5.25 0 0 1 4.59375 -3.28125A5.25 5.25 0 0 1 48.5625 18.375" fill="none" stroke="#45413c" stroke-linecap="round" stroke-linejoin="round" stroke-width="1"></path><path d="M14.4375 18.375a5.25 5.25 0 0 1 4.59375 -3.28125A5.25 5.25 0 0 1 23.625 18.375" fill="none" stroke="#45413c" stroke-linecap="round" stroke-linejoin="round" stroke-width="1"></path></svg>