<svg viewBox="-0.5 -0.5 64 64" xmlns="http://www.w3.org/2000/svg" height="64" width="64"><path d="M19.385625 59.71875a12.114375 1.96875 0 1 0 24.22875 0 12.114375 1.96875 0 1 0 -24.22875 0Z" fill="#45413c" opacity=".15" stroke-width="1"></path><path d="M23.54625 22.154999999999998v-11.2875a0.525 0.525 0 0 1 0.958125 -0.301875l6.3 9.121875000000001a0.511875 0.511875 0 0 0 0.826875 0l7.00875 -8.05875a0.525 0.525 0 0 1 0.931875 0.380625L38.9025 21a0.525 0.525 0 0 0 0.7481249999999999 0.511875l4.423125 -2.060625a0.525 0.525 0 0 1 0.721875 0.65625l-1.955625 5.5125a0.538125 0.538125 0 0 0 0.354375 0.6825l12.613125 3.5962500000000004a0.525 0.525 0 0 1 0 1.010625l-11.720625 3.556875a0.511875 0.511875 0 0 0 -0.315 0.721875l5.880000000000001 12.495a0.525 0.525 0 0 1 -0.721875 0.695625l-13.006875 -6.69375a0.538125 0.538125 0 0 0 -0.721875 0.249375l-6.5625 13.978125a0.525 0.525 0 0 1 -0.9975 -0.170625L25.7775 39.9a0.511875 0.511875 0 0 0 -0.8662500000000001 -0.328125l-6.825 5.893125a0.525 0.525 0 0 1 -0.826875 -0.616875l3.43875 -7.875a0.525 0.525 0 0 0 -0.44625000000000004 -0.7350000000000001l-13.125 -1.036875a0.525 0.525 0 0 1 -0.1575 -1.010625l13.033125 -5.25a0.525 0.525 0 0 0 0.23625 -0.7875l-3.9375 -5.656874999999999a0.525 0.525 0 0 1 0.511875 -0.826875l6.22125 0.984375a0.525 0.525 0 0 0 0.511875 -0.49875Z" fill="#ff6242" stroke="#45413c" stroke-linecap="round" stroke-linejoin="round" stroke-width="1"></path><path d="m31.185000000000002 25.488750000000003 3.688125 -3.163125 0.525 3.688125 3.163125 -0.525 -1.05 3.163125 5.263125 1.05 -5.263125 3.163125 4.213125 6.851249999999999 -7.901249999999999 -4.213125 -3.163125 7.363125 -1.575 -7.888125 -4.213125 1.05 1.575 -3.163125 -4.738125 -0.525 4.213125 -2.6381249999999996 -1.575 -3.688125 3.688125 0 0 -4.213125 3.15 3.688125z" fill="#ffe500" stroke="#45413c" stroke-linecap="round" stroke-linejoin="round" stroke-width="1"></path><path d="M33.928125 7.363125 33.41625 2.625a0.525 0.525 0 0 1 0.538125 -0.5906250000000001l3.2418750000000003 0.144375a0.538125 0.538125 0 0 1 0.43312500000000004 0.800625l-2.73 4.59375a0.525 0.525 0 0 1 -0.97125 -0.21Z" fill="#ff6242" stroke="#45413c" stroke-linecap="round" stroke-linejoin="round" stroke-width="1"></path><path d="M8.505 24.5175 4.62 21a0.538125 0.538125 0 0 0 -0.84 0.170625L1.8375 25.4625a0.525 0.525 0 0 0 0.55125 0.7350000000000001l5.827500000000001 -0.7743749999999999a0.525 0.525 0 0 0 0.28875 -0.9056249999999999Z" fill="#ff6242" stroke="#45413c" stroke-linecap="round" stroke-linejoin="round" stroke-width="1"></path><path d="m55.20375 36.841875 5.341875 0.380625a0.525 0.525 0 0 1 0.44625000000000004 0.721875l-1.5225 3.80625a0.525 0.525 0 0 1 -0.879375 0.1575l-3.819375 -4.186875a0.525 0.525 0 0 1 0.43312500000000004 -0.879375Z" fill="#ff6242" stroke="#45413c" stroke-linecap="round" stroke-linejoin="round" stroke-width="1"></path><path d="m7.389375 46.567499999999995 -4.501875 0.7875a0.538125 0.538125 0 0 0 -0.275625 0.9056249999999999l2.3625000000000003 2.323125a0.511875 0.511875 0 0 0 0.800625 -0.07875L7.875 47.38125a0.525 0.525 0 0 0 -0.485625 -0.81375Z" fill="#ff6242" stroke="#45413c" stroke-linecap="round" stroke-linejoin="round" stroke-width="1"></path></svg>