<svg viewBox="-0.5 -0.5 64 64" xmlns="http://www.w3.org/2000/svg" height="64" width="64"><path d="M5.25 28.21875a26.25 26.25 0 1 0 52.5 0 26.25 26.25 0 1 0 -52.5 0Z" fill="#ffe500" stroke-width="1"></path><path d="M31.5 1.96875a26.25 26.25 0 1 0 26.25 26.25 26.25 26.25 0 0 0 -26.25 -26.25Zm0 48.5625a23.953125 23.953125 0 1 1 23.953125 -23.953125A23.953125 23.953125 0 0 1 31.5 50.53125Z" fill="#ebcb00" stroke-width="1"></path><path d="M23.625 7.21875a7.875 1.96875 0 1 0 15.75 0 7.875 1.96875 0 1 0 -15.75 0Z" fill="#fff48c" stroke-width="1"></path><path d="M10.5 59.0625a21 1.96875 0 1 0 42 0 21 1.96875 0 1 0 -42 0Z" fill="#45413c" opacity=".15" stroke-width="1"></path><path d="M5.25 28.21875a26.25 26.25 0 1 0 52.5 0 26.25 26.25 0 1 0 -52.5 0Z" fill="none" stroke="#45413c" stroke-linecap="round" stroke-linejoin="round" stroke-width="1"></path><path d="M50.53125 34.78125c0 1.089375 -1.4700000000000002 1.96875 -3.28125 1.96875s-3.28125 -0.879375 -3.28125 -1.96875S45.43875 32.8125 47.25 32.8125s3.28125 0.879375 3.28125 1.96875Z" fill="#ffaa54" stroke-width="1"></path><path d="M12.46875 34.78125c0 1.089375 1.4700000000000002 1.96875 3.28125 1.96875s3.28125 -0.879375 3.28125 -1.96875S17.56125 32.8125 15.75 32.8125s-3.28125 0.879375 -3.28125 1.96875Z" fill="#ffaa54" stroke-width="1"></path><path d="M15.40875 23.625 19.6875 25.738125a1.3125 1.3125 0 0 1 0 2.33625L15.40875 30.1875" fill="none" stroke="#45413c" stroke-linecap="round" stroke-linejoin="round" stroke-width="1"></path><path d="M17.0625 21a15.001875 15.001875 0 0 0 4.423125 -1.44375 14.67375 14.67375 0 0 0 3.78 -2.70375" fill="none" stroke="#45413c" stroke-linecap="round" stroke-linejoin="round" stroke-width="1"></path><path d="m47.591249999999995 23.625 -4.213125 2.113125a1.3125 1.3125 0 0 0 0 2.33625L47.591249999999995 30.1875" fill="none" stroke="#45413c" stroke-linecap="round" stroke-linejoin="round" stroke-width="1"></path><path d="M45.9375 21a15.001875 15.001875 0 0 1 -4.423125 -1.44375 14.67375 14.67375 0 0 1 -3.78 -2.70375" fill="none" stroke="#45413c" stroke-linecap="round" stroke-linejoin="round" stroke-width="1"></path><path d="m42.65625 42.65625 -2.349375 -2.349375a1.3125 1.3125 0 0 0 -1.86375 0l-2.07375 2.07375a1.3125 1.3125 0 0 1 -1.86375 0l-2.07375 -2.07375a1.3125 1.3125 0 0 0 -1.86375 0l-2.07375 2.07375a1.3125 1.3125 0 0 1 -1.86375 0l-2.07375 -2.07375a1.3125 1.3125 0 0 0 -1.86375 0L20.34375 42.65625" fill="none" stroke="#45413c" stroke-linecap="round" stroke-linejoin="round" stroke-width="1"></path></svg>