<svg viewBox="-0.5 -0.5 64 64" xmlns="http://www.w3.org/2000/svg" height="64" width="64"><path d="M6.930000000000001 58.17a23.506875 2.205 0 1 0 47.01375 0 23.506875 2.205 0 1 0 -47.01375 0Z" fill="#45413c" opacity=".15" stroke-width="1"></path><path d="M58.40625 15.146249999999998a9.0825 9.0825 0 0 0 -9.436875 -2.191875 1.8768749999999998 1.8768749999999998 0 0 0 -1.2075 2.2312499999999997 1.903125 1.903125 0 0 0 1.70625 1.4175c1.89 0.13125 4.974375 1.07625 3.7931250000000003 5.893125a8.11125 8.11125 0 0 1 -4.843125 6.103125 7.507499999999999 7.507499999999999 0 0 0 -4.85625 -1.509375l-10.171875 0.4725a9.384375 9.384375 0 0 1 -8.701875 -5.01375 8.7675 8.7675 0 0 1 -0.853125 -2.49375l-0.525 -2.625a6.11625 6.11625 0 0 0 -5.46 -4.895625c-2.17875 -0.196875 -5.7225 0.76125 -6.9825 2.54625L9.1875 17.35125l-4.449375 1.1812500000000001a1.4568750000000001 1.4568750000000001 0 0 0 -1.141875 1.75875l0.958125 4.3575a1.509375 1.509375 0 0 0 0.945 1.063125L10.7625 27.5625a3.78 3.78 0 0 1 2.44125 2.979375l1.23375 8.085a9.345 9.345 0 0 0 1.141875 3.255l-0.8925000000000001 11.62875a2.8087500000000003 2.8087500000000003 0 0 0 -2.49375 2.795625 1.44375 1.44375 0 0 0 1.44375 1.44375h4.869375a1.4700000000000002 1.4700000000000002 0 0 0 1.3125 -0.91875l3.9375 -9.66a18.230625 18.230625 0 0 0 8.780625 0l4.554375 -1.12875a15.946875 15.946875 0 0 1 5.17125 -0.275625A18.860625 18.860625 0 0 0 43.91625 48.5625a6.79875 6.79875 0 0 1 0.97125 4.160625l-0.065625 0.7875a2.821875 2.821875 0 0 0 -2.9137500000000003 2.821875A1.44375 1.44375 0 0 0 43.3125 57.75h5.25a1.4700000000000002 1.4700000000000002 0 0 0 1.3125 -1.05l2.33625 -7.756875c0.8662500000000001 -2.52 -1.3125 -3.2943749999999996 -1.3125 -7.192500000000001l0.275625 -0.7481249999999999a11.8125 11.8125 0 0 0 -0.63 -9.7125c10.985624999999999 -0.13125 12.83625 -11.6025 7.861875 -16.14375Z" fill="#f7e5c6" stroke-width="1"></path><path d="M4.12125 22.430625a1.4962499999999999 1.4962499999999999 0 0 1 0.669375 -0.354375L9.1875 20.908125l1.6275 -2.28375c1.3125 -1.771875 4.80375 -2.743125 6.9825 -2.54625a6.129375 6.129375 0 0 1 5.5125 4.921875l0.525 2.5593749999999997a8.911875 8.911875 0 0 0 0.853125 2.49375 9.410625 9.410625 0 0 0 8.701875 5.01375l10.171875 -0.42a7.573124999999999 7.573124999999999 0 0 1 4.85625 1.4962499999999999 8.05875 8.05875 0 0 0 4.843125 -6.103125 5.984999999999999 5.984999999999999 0 0 0 0 -3.530625 8.16375 8.16375 0 0 1 -4.843125 6.09 7.507499999999999 7.507499999999999 0 0 0 -4.85625 -1.509375l-10.171875 0.4725a9.384375 9.384375 0 0 1 -8.701875 -5.01375 8.7675 8.7675 0 0 1 -0.853125 -2.49375l-0.525 -2.625a6.11625 6.11625 0 0 0 -5.46 -4.895625c-2.17875 -0.196875 -5.7225 0.76125 -6.9825 2.54625L9.1875 17.35125l-4.449375 1.1812500000000001a1.4568750000000001 1.4568750000000001 0 0 0 -1.141875 1.75875Z" fill="#fff5e3" stroke-width="1"></path><path d="M49.021875 16.498125a9.05625 9.05625 0 0 1 9.384375 2.205 8.229375 8.229375 0 0 1 2.454375 4.659375 9.095625 9.095625 0 0 0 -11.891250000000001 -10.408125 1.8768749999999998 1.8768749999999998 0 0 0 -1.2075 2.2312499999999997 1.8375 1.8375 0 0 0 1.26 1.3125Z" fill="#fff5e3" stroke-width="1"></path><path d="M58.40625 15.146249999999998a9.0825 9.0825 0 0 0 -9.436875 -2.191875 1.8768749999999998 1.8768749999999998 0 0 0 -1.2075 2.2312499999999997 1.903125 1.903125 0 0 0 1.70625 1.4175c1.89 0.13125 4.974375 1.07625 3.7931250000000003 5.893125a8.11125 8.11125 0 0 1 -4.843125 6.103125 7.507499999999999 7.507499999999999 0 0 0 -4.85625 -1.509375l-10.171875 0.4725a9.384375 9.384375 0 0 1 -8.701875 -5.01375 8.7675 8.7675 0 0 1 -0.853125 -2.49375l-0.525 -2.625a6.11625 6.11625 0 0 0 -5.46 -4.895625c-2.17875 -0.196875 -5.7225 0.76125 -6.9825 2.54625L9.1875 17.35125l-4.449375 1.1812500000000001a1.4568750000000001 1.4568750000000001 0 0 0 -1.141875 1.75875l0.958125 4.3575a1.509375 1.509375 0 0 0 0.945 1.063125L10.7625 27.5625a3.78 3.78 0 0 1 2.44125 2.979375l1.23375 8.085a9.345 9.345 0 0 0 1.141875 3.255l-0.8925000000000001 11.62875a2.8087500000000003 2.8087500000000003 0 0 0 -2.49375 2.795625 1.44375 1.44375 0 0 0 1.44375 1.44375h4.869375a1.4700000000000002 1.4700000000000002 0 0 0 1.3125 -0.91875l3.9375 -9.66a18.230625 18.230625 0 0 0 8.780625 0l4.554375 -1.12875a15.946875 15.946875 0 0 1 5.17125 -0.275625A18.860625 18.860625 0 0 0 43.91625 48.5625a6.79875 6.79875 0 0 1 0.97125 4.160625l-0.065625 0.7875a2.821875 2.821875 0 0 0 -2.9137500000000003 2.821875A1.44375 1.44375 0 0 0 43.3125 57.75h5.25a1.4700000000000002 1.4700000000000002 0 0 0 1.3125 -1.05l2.33625 -7.756875c0.8662500000000001 -2.52 -1.3125 -3.2943749999999996 -1.3125 -7.192500000000001l0.275625 -0.7481249999999999a11.8125 11.8125 0 0 0 -0.63 -9.7125c10.985624999999999 -0.13125 12.83625 -11.6025 7.861875 -16.14375Z" fill="none" stroke="#45413c" stroke-linecap="round" stroke-linejoin="round" stroke-width="1"></path><path d="m23.716875 47.17125 1.640625 -4.108125" fill="#ffffff" stroke="#45413c" stroke-linecap="round" stroke-linejoin="round" stroke-width="1"></path><path d="m41.39625 38.653124999999996 -0.249375 2.625a9.1875 9.1875 0 0 0 1.07625 4.4624999999999995" fill="none" stroke="#45413c" stroke-linecap="round" stroke-linejoin="round" stroke-width="1"></path><path d="M16.537499999999998 13.67625a25.54125 25.54125 0 0 1 1.4700000000000002 -5.131875c0.459375 -0.826875 3.215625 1.5487499999999998 2.9400000000000004 7.336875" fill="#fff5e3" stroke="#45413c" stroke-linecap="round" stroke-linejoin="round" stroke-width="1"></path><path d="M14.5425 18.230625a1.1812500000000001 1.1812500000000001 0 1 1 -1.168125 -1.168125 1.168125 1.168125 0 0 1 1.168125 1.168125Z" fill="#45413c" stroke-width="1"></path><path d="M16.537499999999998 20.37c0 0.328125 0.525 0.5906250000000001 1.1812500000000001 0.5906250000000001s1.168125 -0.2625 1.168125 -0.5906250000000001 -0.525 -0.5906250000000001 -1.168125 -0.5906250000000001 -1.1812500000000001 0.2625 -1.1812500000000001 0.5906250000000001Z" fill="#ffaa54" stroke-width="1"></path></svg>