<svg viewBox="-0.5 -0.5 64 64" xmlns="http://www.w3.org/2000/svg" height="64" width="64"><path d="M26.88 9.541875S19.6875 5.971875 14.1225 11.8125 10.36875 22.23375 6.5625 24.54375s-5.499375000000001 9.8175 -0.7481249999999999 12.009375a9.016875 9.016875 0 0 0 8.255625 0Z" fill="#debb7e" stroke-width="1"></path><path d="M6.5625 28.875c3.7537499999999997 -2.31 2.008125 -6.943125 7.507499999999999 -12.7575a10.749374999999999 10.749374999999999 0 0 1 11.025 -2.86125l1.7325000000000002 -3.661875S19.6875 5.971875 14.1225 11.8125 10.36875 22.23375 6.5625 24.54375a8.596874999999999 8.596874999999999 0 0 0 -3.3075 9.10875A8.3475 8.3475 0 0 1 6.5625 28.875Z" fill="#f0d5a8" stroke-width="1"></path><path d="M26.88 9.541875S19.6875 5.971875 14.1225 11.8125 10.36875 22.23375 6.5625 24.54375s-5.499375000000001 9.8175 -0.7481249999999999 12.009375a9.016875 9.016875 0 0 0 8.255625 0Z" fill="none" stroke="#45413c" stroke-linecap="round" stroke-linejoin="round" stroke-width="1"></path><path d="M36.12 9.541875S43.378125 5.971875 48.877500000000005 11.8125s3.7537499999999997 10.5 7.507499999999999 12.7575 5.499375000000001 9.8175 0.7481249999999999 12.009375a9.016875 9.016875 0 0 1 -8.255625 0Z" fill="#debb7e" stroke-width="1"></path><path d="M56.4375 28.875c-3.7537499999999997 -2.31 -2.008125 -6.943125 -7.507499999999999 -12.7575a10.749374999999999 10.749374999999999 0 0 0 -11.025 -2.86125l-1.7850000000000001 -3.714375S43.378125 5.971875 48.877500000000005 11.8125s3.7537499999999997 10.5 7.507499999999999 12.7575a8.596874999999999 8.596874999999999 0 0 1 3.3075 9.10875A8.281875 8.281875 0 0 0 56.4375 28.875Z" fill="#f0d5a8" stroke-width="1"></path><path d="M36.12 9.541875S43.378125 5.971875 48.877500000000005 11.8125s3.7537499999999997 10.5 7.507499999999999 12.7575 5.499375000000001 9.8175 0.7481249999999999 12.009375a9.016875 9.016875 0 0 1 -8.255625 0Z" fill="none" stroke="#45413c" stroke-linecap="round" stroke-linejoin="round" stroke-width="1"></path><path d="M48.5625 24.5175c0 -8.11125 -7.783125 -15.75 -16.35375 -15.75h-1.4568750000000001C22.18125 8.793750000000001 14.4375 16.40625 14.4375 24.5175v1.535625c-2.848125 2.28375 -3.9375 6.16875 -3.9375 10.00125 0 6.90375 5.17125 11.8125 12.46875 11.8125h2.54625a9.1875 9.1875 0 0 0 11.99625 0h2.54625c7.297499999999999 0 12.46875 -4.85625 12.46875 -11.8125 0 -3.8325 -1.063125 -7.7175 -3.9375 -10.00125Z" fill="#f0f0f0" stroke-width="1"></path><path d="M48.5625 26.053125v-1.535625c0 -8.11125 -7.783125 -15.75 -16.35375 -15.75h-1.4568750000000001C22.18125 8.793750000000001 14.4375 16.40625 14.4375 24.5175v1.535625l1.089375 -2.70375a17.154375 17.154375 0 0 1 15.225 -10.434375000000001h1.4962499999999999a17.14125 17.14125 0 0 1 15.579374999999999 11.26125Z" fill="#ffffff" stroke-width="1"></path><path d="M14.240625 58.1175a17.259375000000002 2.2575 0 1 0 34.518750000000004 0 17.259375000000002 2.2575 0 1 0 -34.518750000000004 0Z" fill="#45413c" opacity=".15" stroke-width="1"></path><path d="M20.23875 29.79375a2.2575 2.2575 0 1 0 4.515 0 2.2575 2.2575 0 1 0 -4.515 0Z" fill="#45413c" stroke="#45413c" stroke-linecap="round" stroke-linejoin="round" stroke-width="1"></path><path d="M49.5075 38.535c0 0.721875 -1.220625 1.3125 -2.73 1.3125s-2.73 -0.5906250000000001 -2.73 -1.3125 1.220625 -1.3125 2.73 -1.3125 2.73 0.5906250000000001 2.73 1.3125Z" fill="#ff6196" stroke-width="1"></path><path d="M18.9525 38.535c0 0.721875 -1.220625 1.3125 -2.73 1.3125s-2.73 -0.5906250000000001 -2.73 -1.3125 1.220625 -1.3125 2.73 -1.3125 2.73 0.5906250000000001 2.73 1.3125Z" fill="#ff6196" stroke-width="1"></path><path d="M51.1875 29.439375a9.37125 9.37125 0 0 0 -2.625 -3.38625v-1.535625a16.130625 16.130625 0 0 0 -7.468125000000001 -12.928125c-2.625 2.270625 -7.37625 7.4025 -7.37625 14.4375 0 9.66 8.045625 10.63125 12.744375000000002 8.255625a9.463125 9.463125 0 0 0 4.7250000000000005 -4.843125Z" fill="#debb7e" stroke-width="1"></path><path d="m48.5625 26.053125 -0.7743749999999999 -1.8768749999999998a17.521874999999998 17.521874999999998 0 0 0 -9.31875 -9.909374999999999 22.3125 22.3125 0 0 1 2.625 -2.625A17.7975 17.7975 0 0 1 45.9375 16.4325a15.001875 15.001875 0 0 1 2.625 9.620625Z" fill="#f0d5a8" stroke-width="1"></path><path d="M48.5625 24.5175c0 -8.11125 -7.783125 -15.75 -16.35375 -15.75h-1.4568750000000001C22.18125 8.793750000000001 14.4375 16.40625 14.4375 24.5175v1.535625c-2.848125 2.28375 -3.9375 6.16875 -3.9375 10.00125 0 6.90375 5.17125 11.8125 12.46875 11.8125h2.54625a9.1875 9.1875 0 0 0 11.99625 0h2.54625c7.297499999999999 0 12.46875 -4.85625 12.46875 -11.8125 0 -3.8325 -1.063125 -7.7175 -3.9375 -10.00125Z" fill="none" stroke="#45413c" stroke-linecap="round" stroke-linejoin="round" stroke-width="1"></path><path d="M51.1875 29.439375a9.37125 9.37125 0 0 0 -2.625 -3.38625v-1.535625a16.130625 16.130625 0 0 0 -7.468125000000001 -12.928125c-2.625 2.270625 -7.37625 7.4025 -7.37625 14.4375 0 9.66 8.045625 10.63125 12.744375000000002 8.255625a9.463125 9.463125 0 0 0 4.7250000000000005 -4.843125Z" fill="none" stroke="#45413c" stroke-linecap="round" stroke-linejoin="round" stroke-width="1"></path><path d="M38.24625 29.79375a2.2575 2.2575 0 1 0 4.515 0 2.2575 2.2575 0 1 0 -4.515 0Z" fill="#45413c" stroke="#45413c" stroke-linecap="round" stroke-linejoin="round" stroke-width="1"></path><path d="M36.001875 38.0625A4.90875 4.90875 0 0 1 31.5 41.803125 4.90875 4.90875 0 0 1 26.998125 38.0625c0 -1.23375 2.02125 -2.244375 4.501875 -2.244375s4.501875 0.9975 4.501875 2.244375Z" fill="#656769" stroke-width="1"></path><path d="M31.5 37.905a5.7225 5.7225 0 0 1 4.095 1.3125 2.533125 2.533125 0 0 0 0.406875 -1.194375c0 -1.23375 -2.02125 -2.244375 -4.501875 -2.244375s-4.501875 1.010625 -4.501875 2.244375a2.533125 2.533125 0 0 0 0.406875 1.194375 5.7225 5.7225 0 0 1 4.095 -1.3125Z" fill="#87898c" stroke-width="1"></path><path d="M36.001875 38.0625A4.90875 4.90875 0 0 1 31.5 41.803125 4.90875 4.90875 0 0 1 26.998125 38.0625c0 -1.23375 2.02125 -2.244375 4.501875 -2.244375s4.501875 0.9975 4.501875 2.244375Z" fill="none" stroke="#45413c" stroke-linecap="round" stroke-linejoin="round" stroke-width="1"></path><path d="M25.501875 47.814375v-3.005625c2.900625 0 5.998125 -3.005625 5.998125 -3.005625s3.1368750000000003 3.005625 5.998125 3.005625v3.005625s-0.6825 2.9924999999999997 -5.998125 2.9924999999999997 -5.998125 -2.9924999999999997 -5.998125 -2.9924999999999997Z" fill="#87898c" stroke="#45413c" stroke-linecap="round" stroke-linejoin="round" stroke-width="1"></path><path d="M34.4925 46.344375c-2.28375 0 -2.9137500000000003 1.155 -2.9924999999999997 1.3125 -0.07875 -0.18375000000000002 -0.70875 -1.3125 -2.9924999999999997 -1.3125s-2.625 2.8087500000000003 -0.7481249999999999 5.46a4.48875 4.48875 0 0 0 7.48125 0c1.850625 -2.65125 1.719375 -5.46 -0.7481249999999999 -5.46Z" fill="#ff866e" stroke-width="1"></path><path d="M28.5075 47.945625c2.28375 0 2.9137500000000003 1.168125 2.9924999999999997 1.3125 0.07875 -0.170625 0.70875 -1.3125 2.9924999999999997 -1.3125a1.8112499999999998 1.8112499999999998 0 0 1 1.91625 1.3125c0.34125 -1.640625 -0.249375 -2.9137500000000003 -1.91625 -2.9137500000000003 -2.28375 0 -2.9137500000000003 1.155 -2.9924999999999997 1.3125 -0.07875 -0.18375000000000002 -0.70875 -1.3125 -2.9924999999999997 -1.3125 -1.666875 0 -2.2575 1.3125 -1.91625 2.9137500000000003a1.8112499999999998 1.8112499999999998 0 0 1 1.91625 -1.3125Z" fill="#ff6242" stroke-width="1"></path><path d="M34.4925 46.344375c-2.28375 0 -2.9137500000000003 1.155 -2.9924999999999997 1.3125 -0.07875 -0.18375000000000002 -0.70875 -1.3125 -2.9924999999999997 -1.3125s-2.625 2.8087500000000003 -0.7481249999999999 5.46a4.48875 4.48875 0 0 0 7.48125 0c1.850625 -2.65125 1.719375 -5.46 -0.7481249999999999 -5.46Z" fill="none" stroke="#45413c" stroke-linecap="round" stroke-linejoin="round" stroke-width="1"></path><path d="m31.5 47.709375 0 2.349375" fill="none" stroke="#45413c" stroke-linecap="round" stroke-linejoin="round" stroke-width="1"></path><path d="M25.501875 44.80875a3.583125 3.583125 0 0 1 -2.2575 -0.7481249999999999" fill="#87898c" stroke="#45413c" stroke-linecap="round" stroke-linejoin="round" stroke-width="1"></path><path d="M37.498125 44.80875a3.583125 3.583125 0 0 0 2.2575 -0.7481249999999999" fill="#87898c" stroke="#45413c" stroke-linecap="round" stroke-linejoin="round" stroke-width="1"></path></svg>