<svg viewBox="-0.5 -0.5 64 64" xmlns="http://www.w3.org/2000/svg" height="64" width="64"><path d="M1.96875 27.890625a26.25 26.25 0 1 0 52.5 0 26.25 26.25 0 1 0 -52.5 0Z" fill="#ffe500" stroke-width="1"></path><path d="M28.21875 1.640625a26.25 26.25 0 1 0 26.25 26.25 26.25 26.25 0 0 0 -26.25 -26.25Zm0 48.5625A23.953125 23.953125 0 1 1 52.171875 26.25 23.953125 23.953125 0 0 1 28.21875 50.203125Z" fill="#ebcb00" stroke-width="1"></path><path d="M20.34375 6.890625a7.875 1.96875 0 1 0 15.75 0 7.875 1.96875 0 1 0 -15.75 0Z" fill="#fff48c" stroke-width="1"></path><path d="M51.699375 39.624375a26.25 26.25 0 0 1 -10.749374999999999 11.195625l-1.4700000000000002 -3.43875 -0.721875 -1.693125a9.699375 9.699375 0 0 1 0.21 -7.625624999999999 7.494375 7.494375 0 0 1 5.1187499999999995 -4.3575 5.85375 5.85375 0 0 1 6.06375 2.218125 6.418125 6.418125 0 0 1 1.036875 1.903125Z" fill="#ebcb00" stroke-width="1"></path><path d="M7.21875 59.390625a21 1.96875 0 1 0 42 0 21 1.96875 0 1 0 -42 0Z" fill="#45413c" opacity=".15" stroke-width="1"></path><path d="M1.96875 27.890625a26.25 26.25 0 1 0 52.5 0 26.25 26.25 0 1 0 -52.5 0Z" fill="none" stroke="#45413c" stroke-linecap="round" stroke-linejoin="round" stroke-width="1"></path><path d="M60.375 38.889375a6.09 6.09 0 0 1 0.118125 5.420625A7.875 7.875 0 0 1 55.925625 48.5625l-10.828125 3.635625 -4.475625 -10.5a7.875 7.875 0 0 1 0.1575 -6.260624999999999 6.103125 6.103125 0 0 1 4.1343749999999995 -3.5175 4.7906249999999995 4.7906249999999995 0 0 1 5.69625 3.373125L51.45 38.0625l2.625 -1.168125a4.7906249999999995 4.7906249999999995 0 0 1 6.3 1.995Z" fill="#ff6242" stroke-width="1"></path><path d="M42.669374999999995 36.96a4.7775 4.7775 0 0 1 5.69625 3.36l0.84 2.70375 2.625 -1.168125a4.7775 4.7775 0 0 1 6.3 2.0343750000000003 5.64375 5.64375 0 0 1 0.6825 2.821875 8.229375 8.229375 0 0 0 1.68 -2.401875 6.09 6.09 0 0 0 -0.118125 -5.420625 4.7906249999999995 4.7906249999999995 0 0 0 -6.3 -2.0343750000000003l-2.625 1.168125 -0.84 -2.70375a4.7906249999999995 4.7906249999999995 0 0 0 -5.69625 -3.373125A6.103125 6.103125 0 0 0 40.779375 35.4375a7.875 7.875 0 0 0 -0.6825 2.874375 5.538749999999999 5.538749999999999 0 0 1 2.5725 -1.351875Z" fill="#ff866e" stroke-width="1"></path><path d="M60.375 38.889375a6.09 6.09 0 0 1 0.118125 5.420625A7.875 7.875 0 0 1 55.925625 48.5625l-10.828125 3.635625 -4.475625 -10.5a7.875 7.875 0 0 1 0.1575 -6.260624999999999 6.103125 6.103125 0 0 1 4.1343749999999995 -3.5175 4.7906249999999995 4.7906249999999995 0 0 1 5.69625 3.373125L51.45 38.0625l2.625 -1.168125a4.7906249999999995 4.7906249999999995 0 0 1 6.3 1.995Z" fill="none" stroke="#45413c" stroke-linecap="round" stroke-linejoin="round" stroke-width="1"></path><path d="M9.1875 34.453125c0 1.089375 1.4700000000000002 1.96875 3.28125 1.96875s3.28125 -0.879375 3.28125 -1.96875 -1.4700000000000002 -1.96875 -3.28125 -1.96875 -3.28125 0.879375 -3.28125 1.96875Z" fill="#ffaa54" stroke-width="1"></path><path d="M39.375 28.21875a2.296875 2.296875 0 0 1 4.59375 0" fill="none" stroke="#45413c" stroke-linecap="round" stroke-linejoin="round" stroke-width="1"></path><path d="M12.46875 26.578125a1.3125 1.3125 0 1 0 1.3125 -1.3125 1.3125 1.3125 0 0 0 -1.3125 1.3125Z" fill="#45413c" stroke="#45413c" stroke-linecap="round" stroke-linejoin="round" stroke-width="1"></path><path d="M28.231875000000002 36.75a2.625 2.625 0 0 1 1.3125 -0.354375 2.625 2.625 0 1 1 0 5.25 2.625 2.625 0 1 1 0 5.25 2.625 2.625 0 0 1 -1.3125 -0.354375" fill="none" stroke="#45413c" stroke-linecap="round" stroke-linejoin="round" stroke-width="1"></path></svg>