<svg viewBox="-0.5 -0.5 64 64" xmlns="http://www.w3.org/2000/svg" height="64" width="64"><path d="M5.25 28.21875a26.25 26.25 0 1 0 52.5 0 26.25 26.25 0 1 0 -52.5 0Z" fill="#ffe500" stroke-width="1"></path><path d="M31.5 1.96875a26.25 26.25 0 1 0 26.25 26.25 26.25 26.25 0 0 0 -26.25 -26.25Zm0 48.5625a23.953125 23.953125 0 1 1 23.953125 -23.953125A23.953125 23.953125 0 0 1 31.5 50.53125Z" fill="#ebcb00" stroke-width="1"></path><path d="M23.625 7.21875a7.875 1.96875 0 1 0 15.75 0 7.875 1.96875 0 1 0 -15.75 0Z" fill="#fff48c" stroke-width="1"></path><path d="M5.25 28.21875a26.25 26.25 0 1 0 52.5 0 26.25 26.25 0 1 0 -52.5 0Z" fill="none" stroke="#45413c" stroke-linecap="round" stroke-linejoin="round" stroke-width="1"></path><path d="M10.5 59.71875a21 1.96875 0 1 0 42 0 21 1.96875 0 1 0 -42 0Z" fill="#45413c" opacity=".15" stroke-width="1"></path><path d="M52.5 34.78125c0 1.089375 -1.4700000000000002 1.96875 -3.28125 1.96875s-3.28125 -0.879375 -3.28125 -1.96875 1.4700000000000002 -1.96875 3.28125 -1.96875 3.28125 0.879375 3.28125 1.96875Z" fill="#ffaa54" stroke-width="1"></path><path d="M10.5 34.78125c0 1.089375 1.4700000000000002 1.96875 3.28125 1.96875s3.28125 -0.879375 3.28125 -1.96875 -1.4700000000000002 -1.96875 -3.28125 -1.96875 -3.28125 0.879375 -3.28125 1.96875Z" fill="#ffaa54" stroke-width="1"></path><path d="M21.616875 36.658125c0.65625 10.5 6.680625 14.4375 8.990625 15.75a1.7981250000000002 1.7981250000000002 0 0 0 1.7850000000000001 0c2.31 -1.3125 8.334375 -5.145 8.990625 -15.75a1.7981250000000002 1.7981250000000002 0 0 0 -1.8112499999999998 -1.903125h-16.14375a1.7981250000000002 1.7981250000000002 0 0 0 -1.8112499999999998 1.903125Z" fill="#ffb0ca" stroke="#45413c" stroke-linecap="round" stroke-linejoin="round" stroke-width="1"></path><path d="M31.5 43.3125c0 -1.96875 5.90625 -1.39125 5.90625 0.65625V52.5a5.90625 5.90625 0 0 1 -11.8125 0v-8.53125c0 -2.0475 5.90625 -2.625 5.90625 -0.65625Z" fill="#ff6242" stroke-width="1"></path><path d="M31.5 43.3125c0 -1.96875 -5.90625 -1.39125 -5.90625 0.65625v2.625c0 -2.0475 11.8125 -2.0475 11.8125 0v-2.625c0 -2.0475 -5.90625 -2.625 -5.90625 -0.65625Z" fill="#ff866e" stroke-width="1"></path><path d="M31.5 43.3125c0 -1.96875 5.90625 -1.39125 5.90625 0.65625V52.5a5.90625 5.90625 0 0 1 -11.8125 0v-8.53125c0 -2.0475 5.90625 -2.625 5.90625 -0.65625Z" fill="none" stroke="#45413c" stroke-linecap="round" stroke-linejoin="round" stroke-width="1"></path><path d="M45.9375 27.5625a1.3125 1.3125 0 1 0 1.3125 -1.3125 1.3125 1.3125 0 0 0 -1.3125 1.3125Z" fill="#45413c" stroke="#45413c" stroke-linecap="round" stroke-linejoin="round" stroke-width="1"></path><path d="M17.0625 27.5625a1.3125 1.3125 0 1 1 -1.3125 -1.3125 1.3125 1.3125 0 0 1 1.3125 1.3125Z" fill="#45413c" stroke="#45413c" stroke-linecap="round" stroke-linejoin="round" stroke-width="1"></path></svg>