<svg viewBox="-0.5 -0.5 64 64" xmlns="http://www.w3.org/2000/svg" height="64" width="64"><path d="M5.25 28.21875a26.25 26.25 0 1 0 52.5 0 26.25 26.25 0 1 0 -52.5 0Z" fill="#ffe500" stroke-width="1"></path><path d="M31.5 1.96875a26.25 26.25 0 1 0 26.25 26.25 26.25 26.25 0 0 0 -26.25 -26.25Zm0 48.5625a23.953125 23.953125 0 1 1 23.953125 -23.953125A23.953125 23.953125 0 0 1 31.5 50.53125Z" fill="#ebcb00" stroke-width="1"></path><path d="M23.625 7.21875a7.875 1.96875 0 1 0 15.75 0 7.875 1.96875 0 1 0 -15.75 0Z" fill="#fff48c" stroke-width="1"></path><path d="M10.5 59.71875a21 1.96875 0 1 0 42 0 21 1.96875 0 1 0 -42 0Z" fill="#45413c" opacity=".15" stroke-width="1"></path><path d="M5.25 28.21875a26.25 26.25 0 1 0 52.5 0 26.25 26.25 0 1 0 -52.5 0Z" fill="none" stroke="#45413c" stroke-linecap="round" stroke-linejoin="round" stroke-width="1"></path><path d="M50.53125 34.78125c0 1.089375 -1.4700000000000002 1.96875 -3.28125 1.96875s-3.28125 -0.879375 -3.28125 -1.96875S45.43875 32.8125 47.25 32.8125s3.28125 0.879375 3.28125 1.96875Z" fill="#ffaa54" stroke-width="1"></path><path d="M12.46875 34.78125c0 1.089375 1.4700000000000002 1.96875 3.28125 1.96875s3.28125 -0.879375 3.28125 -1.96875S17.56125 32.8125 15.75 32.8125s-3.28125 0.879375 -3.28125 1.96875Z" fill="#ffaa54" stroke-width="1"></path><path d="M13.125 29.859375a2.296875 2.296875 0 0 1 4.59375 0" fill="none" stroke="#45413c" stroke-linecap="round" stroke-linejoin="round" stroke-width="1"></path><path d="M45.28125 29.859375a2.296875 2.296875 0 0 1 4.59375 0" fill="none" stroke="#45413c" stroke-linecap="round" stroke-linejoin="round" stroke-width="1"></path><path d="M21.144375 38.71875a15.61875 15.61875 0 0 0 20.7375 0" fill="none" stroke="#45413c" stroke-linecap="round" stroke-linejoin="round" stroke-width="1"></path><path d="M40.6875 39.69a15.75 15.75 0 0 1 -9.069375 2.9662499999999996c3.9375 3.2681250000000004 2.9137500000000003 8.203125 6.864375000000001 7.730625 5.4075 -0.65625 4.475625 -7.678125 2.205 -10.696875Z" fill="#ff6242" stroke-width="1"></path><path d="M39.165 50.255625c4.633125 -1.141875 3.688125 -7.678125 1.509375 -10.5a14.77875 14.77875 0 0 1 -1.903125 1.168125c1.4175 2.533125 2.07375 6.95625 0.39375 9.331875Z" fill="#ff866e" stroke-width="1"></path><path d="M40.6875 39.69a15.75 15.75 0 0 1 -9.069375 2.9662499999999996c3.9375 3.2681250000000004 2.9137500000000003 8.203125 6.864375000000001 7.730625 5.4075 -0.65625 4.475625 -7.678125 2.205 -10.696875Z" fill="none" stroke="#45413c" stroke-linecap="round" stroke-linejoin="round" stroke-width="1"></path></svg>