<svg viewBox="-0.5 -0.5 64 64" xmlns="http://www.w3.org/2000/svg" height="64" width="64"><path d="M16.40625 59.71875a15.09375 1.96875 0 1 0 30.1875 0 15.09375 1.96875 0 1 0 -30.1875 0Z" fill="#45413c" opacity=".15" stroke-width="1"></path><path d="M18.9525 40.175625c0.9975 -3.0974999999999997 -2.349375 -8.806875 4.501875 -11.300625 -1.07625 6.37875 7.796250000000001 8.203125 5.775 14.56875Z" fill="#ff6242" stroke="#45413c" stroke-linecap="round" stroke-linejoin="round" stroke-width="1"></path><path d="M43.96875 16.40625c1.1812500000000001 3.2681250000000004 0.800625 5.17125 -0.65625 6.5625C36.645 18.76875 28.69125 15.75 27.404999999999998 6.5625 13.78125 17.0625 34.125 31.5 24.28125 35.4375c-4.869375 1.955625 -9.1875 -2.625 -8.53125 -7.756875A14.529375 14.529375 0 0 0 11.15625 38.0625c0 9.05625 9.10875 16.40625 20.34375 16.40625 25.725 0 23.625 -34.125 12.46875 -38.0625Z" fill="#ff6242" stroke="#45413c" stroke-linecap="round" stroke-linejoin="round" stroke-width="1"></path><path d="M40.6875 36.75c-1.96875 5.90625 -7.244999999999999 8.255625 -11.930625 8.505a6.5625 6.5625 0 0 0 6.024375 3.9375C42.1575 49.21875 47.25 41.34375 40.6875 36.75Z" fill="#ffe500" stroke="#45413c" stroke-linecap="round" stroke-linejoin="round" stroke-width="1"></path></svg>