<svg viewBox="-0.5 -0.5 64 64" xmlns="http://www.w3.org/2000/svg" height="64" width="64"><path d="m19.490624999999998 14.98875 -6.181875 -7.966875a0.70875 0.70875 0 0 0 -1.1156249999999999 -0.07875L9.1875 10.73625a0.70875 0.70875 0 0 0 0.28875 1.07625l9.1875 4.17375a0.643125 0.643125 0 0 0 0.826875 -0.9975Z" fill="#ffe500" stroke="#45413c" stroke-linecap="round" stroke-linejoin="round" stroke-width="1"></path><path d="m16.537499999999998 21.157500000000002 -9.765 -3.2025a0.721875 0.721875 0 0 0 -0.984375 0.55125l-0.42 4.85625a0.7350000000000001 0.7350000000000001 0 0 0 0.8925000000000001 0.70875l10.185 -1.65375a0.643125 0.643125 0 0 0 0.09187500000000001 -1.26Z" fill="#ffe500" stroke="#45413c" stroke-linecap="round" stroke-linejoin="round" stroke-width="1"></path><path d="m15.75 29.2425 -9.121875000000001 0.18375000000000002a0.65625 0.65625 0 0 0 -0.616875 0.84l1.3125 4.6725a0.669375 0.669375 0 0 0 0.984375 0.380625l7.77 -4.869375a0.65625 0.65625 0 0 0 -0.328125 -1.2075Z" fill="#ffe500" stroke="#45413c" stroke-linecap="round" stroke-linejoin="round" stroke-width="1"></path><path d="M28.455 4.2a2.926875 2.926875 0 0 0 -2.625 2.8087500000000003l-0.76125 14.240625c-0.249375 4.38375 -2.1 6.3525 -2.979375 11.05125s-0.65625 4.48875 -1.614375 5.446875l-8.00625 8.00625 9.1875 10.605 5.328749999999999 -4.935a13.899375 13.899375 0 0 0 2.73 -3.451875A14.083125 14.083125 0 0 0 31.5 41.1075v-34.125a2.8087500000000003 2.8087500000000003 0 0 0 -3.045 -2.7825Z" fill="#ffe500" stroke-width="1"></path><path d="M27.93 14.3325a1.640625 1.640625 0 0 1 1.65375 -1.719375A1.91625 1.91625 0 0 1 31.5 14.529375V12.15375a1.91625 1.91625 0 0 0 -1.91625 -1.91625c-0.9975 0 -1.4568750000000001 0.721875 -1.5225 1.719375Z" fill="#fff48c" stroke-width="1"></path><path d="M28.625625 7.875A3.28125 3.28125 0 0 1 31.5 9.581249999999999v-2.625a2.8087500000000003 2.8087500000000003 0 0 0 -3.045 -2.75625 2.926875 2.926875 0 0 0 -2.625 2.8087500000000003l-0.144375 2.625A3.28125 3.28125 0 0 1 28.625625 7.875Z" fill="#fff48c" stroke-width="1"></path><path d="M22.089374999999997 32.300625c-0.8662500000000001 4.69875 -0.65625 4.48875 -1.614375 5.446875l-8.00625 8.00625 1.68 1.929375 6.32625 -6.32625c0.958125 -0.958125 2.953125 -3.871875 1.614375 -9.05625Z" fill="#fff48c" stroke-width="1"></path><path d="M28.455 4.2a2.926875 2.926875 0 0 0 -2.625 2.8087500000000003l-0.76125 14.240625c-0.249375 4.38375 -2.1 6.3525 -2.979375 11.05125s-0.65625 4.48875 -1.614375 5.446875l-8.00625 8.00625 9.1875 10.605 5.328749999999999 -4.935a13.899375 13.899375 0 0 0 2.73 -3.451875h0A14.083125 14.083125 0 0 0 31.5 41.1075v-34.125a2.8087500000000003 2.8087500000000003 0 0 0 -3.045 -2.7825Z" fill="none" stroke="#45413c" stroke-linecap="round" stroke-linejoin="round" stroke-width="1"></path><path d="M31.5 12.15375a1.91625 1.91625 0 0 0 -1.91625 -1.91625h0c-0.9975 0 -1.4568750000000001 0.721875 -1.5225 1.719375l-0.7481249999999999 13.860000000000001" fill="none" stroke="#45413c" stroke-linecap="round" stroke-linejoin="round" stroke-width="1"></path><path d="m4.423125 50.360625 8.203125 -6.5625a1.3125 1.3125 0 0 1 1.771875 0.118125l9.988125 10.5a1.3125 1.3125 0 0 1 0.105 1.693125l-1.89 2.428125a1.3125 1.3125 0 0 1 -1.05 0.525H5.25a1.3125 1.3125 0 0 1 -1.3125 -1.3125v-6.37875a1.3125 1.3125 0 0 1 0.485625 -1.010625Z" fill="#009fd9" stroke-width="1"></path><path d="m16.87875 46.449375 -2.480625 -2.625a1.3125 1.3125 0 0 0 -1.771875 -0.118125l-8.203125 6.5625a1.3125 1.3125 0 0 0 -0.485625 1.010625v5.525625Z" fill="#00b8f0" stroke-width="1"></path><path d="m4.423125 50.360625 8.203125 -6.5625a1.3125 1.3125 0 0 1 1.771875 0.118125l9.988125 10.5a1.3125 1.3125 0 0 1 0.105 1.693125l-1.89 2.428125a1.3125 1.3125 0 0 1 -1.05 0.525H5.25a1.3125 1.3125 0 0 1 -1.3125 -1.3125v-6.37875a1.3125 1.3125 0 0 1 0.485625 -1.010625Z" fill="none" stroke="#45413c" stroke-linecap="round" stroke-linejoin="round" stroke-width="1"></path><path d="m43.509375 14.98875 6.181875 -7.966875a0.70875 0.70875 0 0 1 1.1156249999999999 -0.07875L53.8125 10.73625a0.70875 0.70875 0 0 1 -0.328125 1.07625l-9.1875 4.17375a0.643125 0.643125 0 0 1 -0.7875 -0.9975Z" fill="#ffe500" stroke="#45413c" stroke-linecap="round" stroke-linejoin="round" stroke-width="1"></path><path d="m46.4625 21.157500000000002 9.765 -3.2025a0.721875 0.721875 0 0 1 0.984375 0.55125l0.42 4.85625a0.7350000000000001 0.7350000000000001 0 0 1 -0.8925000000000001 0.70875l-10.185 -1.65375a0.643125 0.643125 0 0 1 -0.09187500000000001 -1.26Z" fill="#ffe500" stroke="#45413c" stroke-linecap="round" stroke-linejoin="round" stroke-width="1"></path><path d="m47.25 29.2425 9.1875 0.18375000000000002a0.65625 0.65625 0 0 1 0.616875 0.84l-1.3125 4.6725a0.669375 0.669375 0 0 1 -0.984375 0.380625l-7.861875 -4.869375a0.65625 0.65625 0 0 1 0.354375 -1.2075Z" fill="#ffe500" stroke="#45413c" stroke-linecap="round" stroke-linejoin="round" stroke-width="1"></path><path d="M34.545 4.2a2.926875 2.926875 0 0 1 2.625 2.8087500000000003l0.800625 14.240625c0.249375 4.38375 2.1 6.3525 2.979375 11.05125s0.65625 4.48875 1.614375 5.446875l8.00625 8.00625 -9.1875 10.605 -5.328749999999999 -4.935a13.899375 13.899375 0 0 1 -2.73 -3.451875A14.083125 14.083125 0 0 1 31.5 41.1075v-34.125a2.8087500000000003 2.8087500000000003 0 0 1 3.045 -2.7825Z" fill="#ffe500" stroke-width="1"></path><path d="M35.07 14.3325a1.640625 1.640625 0 0 0 -1.65375 -1.719375A1.91625 1.91625 0 0 0 31.5 14.529375V12.15375a1.91625 1.91625 0 0 1 1.91625 -1.91625c0.9975 0 1.4568750000000001 0.721875 1.535625 1.719375Z" fill="#fff48c" stroke-width="1"></path><path d="M34.374375 7.875A3.28125 3.28125 0 0 0 31.5 9.581249999999999v-2.625a2.8087500000000003 2.8087500000000003 0 0 1 3.045 -2.75625 2.926875 2.926875 0 0 1 2.625 2.8087500000000003l0.144375 2.625A3.28125 3.28125 0 0 0 34.374375 7.875Z" fill="#fff48c" stroke-width="1"></path><path d="M40.910625 32.300625c0.8662500000000001 4.69875 0.65625 4.48875 1.614375 5.446875l8.00625 8.00625 -1.68 1.929375 -6.32625 -6.32625c-0.958125 -0.958125 -2.953125 -3.871875 -1.614375 -9.05625Z" fill="#fff48c" stroke-width="1"></path><path d="M34.545 4.2a2.926875 2.926875 0 0 1 2.625 2.8087500000000003l0.800625 14.240625c0.249375 4.38375 2.1 6.3525 2.979375 11.05125s0.65625 4.48875 1.614375 5.446875l8.00625 8.00625 -9.1875 10.605 -5.328749999999999 -4.935a13.899375 13.899375 0 0 1 -2.73 -3.451875h0A14.083125 14.083125 0 0 1 31.5 41.1075v-34.125a2.8087500000000003 2.8087500000000003 0 0 1 3.045 -2.7825Z" fill="none" stroke="#45413c" stroke-linecap="round" stroke-linejoin="round" stroke-width="1"></path><path d="M31.5 12.15375a1.91625 1.91625 0 0 1 1.91625 -1.91625h0c0.9975 0 1.4568750000000001 0.721875 1.535625 1.719375l0.7350000000000001 13.860000000000001" fill="none" stroke="#45413c" stroke-linecap="round" stroke-linejoin="round" stroke-width="1"></path><path d="m58.576875 50.360625 -8.203125 -6.5625a1.3125 1.3125 0 0 0 -1.771875 0.118125l-9.988125 10.5a1.3125 1.3125 0 0 0 -0.105 1.693125l1.89 2.52a1.3125 1.3125 0 0 0 1.05 0.525H57.75a1.3125 1.3125 0 0 0 1.3125 -1.3125v-6.470625a1.3125 1.3125 0 0 0 -0.485625 -1.010625Z" fill="#009fd9" stroke-width="1"></path><path d="m46.12125 46.449375 2.480625 -2.625a1.3125 1.3125 0 0 1 1.771875 -0.118125l8.203125 6.5625a1.3125 1.3125 0 0 1 0.485625 1.010625v5.525625Z" fill="#00b8f0" stroke-width="1"></path><path d="m58.576875 50.360625 -8.203125 -6.5625a1.3125 1.3125 0 0 0 -1.771875 0.118125l-9.988125 10.5a1.3125 1.3125 0 0 0 -0.105 1.693125l1.89 2.52a1.3125 1.3125 0 0 0 1.05 0.525H57.75a1.3125 1.3125 0 0 0 1.3125 -1.3125v-6.470625a1.3125 1.3125 0 0 0 -0.485625 -1.010625Z" fill="none" stroke="#45413c" stroke-linecap="round" stroke-linejoin="round" stroke-width="1"></path></svg>