<svg viewBox="-0.5 -0.5 64 64" xmlns="http://www.w3.org/2000/svg" height="64" width="64"><path d="M12.46875 61.03125a19.03125 1.96875 0 1 0 38.0625 0 19.03125 1.96875 0 1 0 -38.0625 0Z" fill="#45413c" opacity=".15" stroke-width="1"></path><path d="M5.25 31.5a26.25 26.25 0 1 0 52.5 0 26.25 26.25 0 1 0 -52.5 0Z" fill="#ffe500" stroke-width="1"></path><path d="M31.5 5.25a26.25 26.25 0 1 0 26.25 26.25A26.25 26.25 0 0 0 31.5 5.25Zm0 48.5625a23.953125 23.953125 0 1 1 23.953125 -23.953125A23.953125 23.953125 0 0 1 31.5 53.8125Z" fill="#ebcb00" stroke-width="1"></path><path d="M5.25 31.5a26.25 26.25 0 1 0 52.5 0 26.25 26.25 0 1 0 -52.5 0Z" fill="none" stroke="#45413c" stroke-linecap="round" stroke-linejoin="round" stroke-width="1"></path><path d="M19.6875 31.5a1.3125 1.3125 0 1 1 -1.3125 -1.3125 1.3125 1.3125 0 0 1 1.3125 1.3125Z" fill="#45413c" stroke="#45413c" stroke-linecap="round" stroke-linejoin="round" stroke-width="1"></path><path d="M43.3125 31.5a1.3125 1.3125 0 1 0 1.3125 -1.3125 1.3125 1.3125 0 0 0 -1.3125 1.3125Z" fill="#45413c" stroke="#45413c" stroke-linecap="round" stroke-linejoin="round" stroke-width="1"></path><path d="M50.53125 40.359375c0 1.089375 -1.4700000000000002 1.96875 -3.28125 1.96875s-3.28125 -0.879375 -3.28125 -1.96875 1.4700000000000002 -1.96875 3.28125 -1.96875 3.28125 0.879375 3.28125 1.96875Z" fill="#ebcb00" stroke-width="1"></path><path d="M12.46875 40.359375c0 1.089375 1.4700000000000002 1.96875 3.28125 1.96875s3.28125 -0.879375 3.28125 -1.96875 -1.4700000000000002 -1.96875 -3.28125 -1.96875 -3.28125 0.879375 -3.28125 1.96875Z" fill="#ebcb00" stroke-width="1"></path><path d="M24.465 41.475A3.4256249999999997 3.4256249999999997 0 0 1 21 44.900625" fill="none" stroke="#45413c" stroke-linecap="round" stroke-width="1"></path><path d="M39.375 43.70625a14.109375 14.109375 0 0 1 -7.875 2.38875h0a14.109375 14.109375 0 0 1 -7.875 -2.38875" fill="none" stroke="#45413c" stroke-linecap="round" stroke-width="1"></path><path d="M38.535 41.475A3.4256249999999997 3.4256249999999997 0 0 0 42 44.900625" fill="none" stroke="#45413c" stroke-linecap="round" stroke-width="1"></path><path d="M41.645625 15.014999999999999c1.4568750000000001 -1.07625 3.85875 -0.275625 5.355 1.771875a6.32625 6.32625 0 0 1 0.9056249999999999 1.8112499999999998 4.935 4.935 0 0 0 -0.9056249999999999 -4.515c-1.4962499999999999 -2.0475 -3.9375 -2.848125 -5.355 -1.7850000000000001a3.4125 3.4125 0 0 0 -0.853125 3.845625 2.454375 2.454375 0 0 1 0.853125 -1.12875Z" fill="#ebcb00" stroke-width="1"></path><path d="M12.4425 21.721875c0.5775 -1.5225 1.8768749999999998 -2.44125 2.8875 -2.060625a1.6275 1.6275 0 0 1 0.91875 1.07625c0.36750000000000005 -1.378125 0 -2.625 -0.91875 -3.031875s-2.31 0.538125 -2.8875 2.060625a3.530625 3.530625 0 0 0 -0.13125 2.38875 2.716875 2.716875 0 0 1 0.13125 -0.43312500000000004Z" fill="#ebcb00" stroke-width="1"></path><path d="M25.515 50.281875a3.9375 3.9375 0 0 1 2.625 1.8768749999999998 2.296875 2.296875 0 0 0 0.144375 -0.315c0.301875 -1.155 -0.91875 -2.4675 -2.716875 -2.9400000000000004s-3.504375 0.09187500000000001 -3.80625 1.3125a1.5487499999999998 1.5487499999999998 0 0 0 0.13125 1.07625 3.2418750000000003 3.2418750000000003 0 0 1 3.6224999999999996 -1.010625Z" fill="#ebcb00" stroke-width="1"></path><path d="M52.749375 28.783125a2.31 2.31 0 0 1 0.931875 2.38875 2.49375 2.49375 0 0 0 0.63 -0.60375 2.296875 2.296875 0 1 0 -3.78 -2.625 2.3625000000000003 2.3625000000000003 0 0 0 -0.354375 0.81375 2.296875 2.296875 0 0 1 2.5725 0.02625Z" fill="#ebcb00" stroke-width="1"></path><path d="M10.828125 32.143125a2.296875 2.296875 0 0 1 2.625 -0.07875 2.060625 2.060625 0 0 0 -0.354375 -0.7481249999999999 2.296875 2.296875 0 1 0 -3.084375 3.28125 2.270625 2.270625 0 0 1 0.81375 -2.454375Z" fill="#ebcb00" stroke-width="1"></path><path d="M31.303125 34.965a3.2418750000000003 3.2418750000000003 0 0 1 3.084375 1.850625 2.70375 2.70375 0 0 0 0.196875 -1.07625 3.2681250000000004 3.2681250000000004 0 0 0 -6.5625 0.1575 2.874375 2.874375 0 0 0 0.249375 1.063125 3.255 3.255 0 0 1 3.031875 -1.995Z" fill="#ebcb00" stroke-width="1"></path><path d="M24.9375 11.7075A3.9375 3.9375 0 0 1 28.69125 14.4375a3.85875 3.85875 0 0 0 0.18375000000000002 -1.3125 3.9375 3.9375 0 0 0 -7.875 0 3.9375 3.9375 0 0 0 0.22312500000000002 1.23375A3.9375 3.9375 0 0 1 24.9375 11.7075Z" fill="#ebcb00" stroke-width="1"></path><path d="M36.09375 18.886875a3.2681250000000004 3.2681250000000004 0 0 1 3.110625 2.296875 3.0974999999999997 3.0974999999999997 0 0 0 0.170625 -0.984375 3.28125 3.28125 0 0 0 -6.5625 0 3.0974999999999997 3.0974999999999997 0 0 0 0.170625 0.984375 3.2681250000000004 3.2681250000000004 0 0 1 3.110625 -2.296875Z" fill="#ebcb00" stroke-width="1"></path></svg>