<svg viewBox="-0.5 -0.5 64 64" xmlns="http://www.w3.org/2000/svg" height="64" width="64"><path d="M17.0625 59.71875a14.4375 1.96875 0 1 0 28.875 0 14.4375 1.96875 0 1 0 -28.875 0Z" fill="#45413c" opacity=".15" stroke-width="1"></path><path d="M49.875 32.62875a6.5625 6.5625 0 0 0 1.23375 -3.80625c0 -3.78 -2.454375 -6.5625 -8.42625 -6.5625a5.604374999999999 5.604374999999999 0 0 0 -3.70125 -9.804375h-6.785625c-1.3125 -0.44625000000000004 -2.86125 -3.373125 -2.12625 -6.654375a0.91875 0.91875 0 0 0 -1.02375 -1.1025c-10.3425 1.561875 -12.285 14.4375 -9.26625 17.56125C11.694375 22.3125 10.5 29.019375 13.125 32.62875c-12.1275 3.9375 -9.1875 21.84 3.4256249999999997 21.84h29.872500000000002C59.0625 54.46875 61.97625 36.526875 49.875 32.62875Z" fill="#bf8256" stroke-width="1"></path><path d="M17.61375 33.81a6.2475 6.2475 0 0 1 5.0925 -8.295 1.8112499999999998 1.8112499999999998 0 0 0 1.430625 -2.218125 13.794375 13.794375 0 0 1 5.932499999999999 -13.99125 7.704375 7.704375 0 0 1 0 -3.4650000000000003 0.945 0.945 0 0 0 -0.22312500000000002 -0.826875 0.958125 0.958125 0 0 0 -0.800625 -0.275625c-10.3425 1.561875 -12.285 14.4375 -9.26625 17.56125C11.694375 22.3125 10.5 29.019375 13.125 32.62875c-11.235000000000001 3.609375 -9.594375 19.280625 0.81375 21.551250000000003C9.1875 49.21875 9.555 39.97875 16.66875 36.369375a2.113125 2.113125 0 0 0 0.945 -2.5593749999999997Z" fill="#dea47a" stroke-width="1"></path><path d="M19.6875 36.946875a1.194375 1.194375 0 1 1 -1.194375 -1.194375 1.194375 1.194375 0 0 1 1.194375 1.194375Z" fill="#45413c" stroke="#45413c" stroke-linecap="round" stroke-linejoin="round" stroke-width="1"></path><path d="M46.580625000000005 36.946875a1.194375 1.194375 0 1 1 -1.194375 -1.194375 1.194375 1.194375 0 0 1 1.194375 1.194375Z" fill="#45413c" stroke="#45413c" stroke-linecap="round" stroke-linejoin="round" stroke-width="1"></path><path d="M23.835 41.120625a1.2075 1.2075 0 0 0 -1.1812500000000001 1.378125 8.95125 8.95125 0 0 0 17.6925 0 1.2075 1.2075 0 0 0 -1.1812500000000001 -1.378125Z" fill="#ffb0ca" stroke="#45413c" stroke-linecap="round" stroke-linejoin="round" stroke-width="1"></path><path d="M38.548125 46.620000000000005A14.266874999999999 14.266874999999999 0 0 0 31.5 44.966249999999995a14.266874999999999 14.266874999999999 0 0 0 -7.048125 1.65375 8.924999999999999 8.924999999999999 0 0 0 14.09625 0Z" fill="#ff87af" stroke="#45413c" stroke-linecap="round" stroke-linejoin="round" stroke-width="1"></path><path d="M49.875 32.62875a6.5625 6.5625 0 0 0 1.23375 -3.80625c0 -3.78 -2.454375 -6.5625 -8.42625 -6.5625a5.604374999999999 5.604374999999999 0 0 0 -3.70125 -9.804375h-6.785625c-1.3125 -0.44625000000000004 -2.86125 -3.373125 -2.12625 -6.654375a0.945 0.945 0 0 0 -0.22312500000000002 -0.826875 0.958125 0.958125 0 0 0 -0.800625 -0.275625c-10.3425 1.561875 -12.285 14.4375 -9.26625 17.56125C11.694375 22.3125 10.5 29.019375 13.125 32.62875c-12.1275 3.9375 -9.1875 21.84 3.4256249999999997 21.84h29.872500000000002C59.0625 54.46875 61.97625 36.526875 49.875 32.62875Z" fill="none" stroke="#45413c" stroke-linecap="round" stroke-linejoin="round" stroke-width="1"></path><path d="M11.983125000000001 42.91875a2.979375 1.7850000000000001 0 1 0 5.95875 0 2.979375 1.7850000000000001 0 1 0 -5.95875 0Z" fill="#915e3a" stroke-width="1"></path><path d="M45.99 42.91875a2.979375 1.7850000000000001 0 1 0 5.95875 0 2.979375 1.7850000000000001 0 1 0 -5.95875 0Z" fill="#915e3a" stroke-width="1"></path></svg>