<svg viewBox="-0.5 -0.5 64 64" xmlns="http://www.w3.org/2000/svg" height="64" width="64"><path d="M5.25 28.21875a26.25 26.25 0 1 0 52.5 0 26.25 26.25 0 1 0 -52.5 0Z" fill="#ff6242" stroke-width="1"></path><path d="M31.5 1.96875a26.25 26.25 0 1 0 26.25 26.25 26.25 26.25 0 0 0 -26.25 -26.25Zm0 48.5625a23.953125 23.953125 0 1 1 23.953125 -23.953125A23.953125 23.953125 0 0 1 31.5 50.53125Z" fill="#e04122" stroke-width="1"></path><path d="M23.625 7.21875a7.875 1.96875 0 1 0 15.75 0 7.875 1.96875 0 1 0 -15.75 0Z" fill="#ff866e" stroke-width="1"></path><path d="M5.25 28.21875a26.25 26.25 0 1 0 52.5 0 26.25 26.25 0 1 0 -52.5 0Z" fill="none" stroke="#45413c" stroke-linecap="round" stroke-linejoin="round" stroke-width="1"></path><path d="M19.03125 29.53125a1.3125 1.3125 0 1 0 2.625 0 1.3125 1.3125 0 1 0 -2.625 0Z" fill="#45413c" stroke="#45413c" stroke-linecap="round" stroke-linejoin="round" stroke-width="1"></path><path d="M25.370624999999997 27.5625s-3.9375 -5.90625 -8.308125 -3.9375" fill="none" stroke="#45413c" stroke-linecap="round" stroke-linejoin="round" stroke-width="1"></path><path d="M37.629375 27.5625s3.9375 -5.90625 8.308125 -3.9375" fill="none" stroke="#45413c" stroke-linecap="round" stroke-linejoin="round" stroke-width="1"></path><path d="M41.34375 29.53125a1.3125 1.3125 0 1 0 2.625 0 1.3125 1.3125 0 1 0 -2.625 0Z" fill="#45413c" stroke="#45413c" stroke-linecap="round" stroke-linejoin="round" stroke-width="1"></path><path d="M24.9375 41.34375a11.8125 11.8125 0 0 1 13.125 0" fill="none" stroke="#45413c" stroke-linecap="round" stroke-width="1"></path><path d="M40.5825 10.985624999999999a3.2943749999999996 3.2943749999999996 0 0 1 -3.8325 2.625" fill="none" stroke="#45413c" stroke-linecap="round" stroke-linejoin="round" stroke-width="1"></path><path d="M45.15 17.0625a3.9375 3.9375 0 0 1 -1.3125 -5.420625" fill="none" stroke="#45413c" stroke-linecap="round" stroke-linejoin="round" stroke-width="1"></path><path d="M37.45875 16.760625A3.9375 3.9375 0 0 1 42.7875 18.375" fill="none" stroke="#45413c" stroke-linecap="round" stroke-linejoin="round" stroke-width="1"></path><path d="M50.53125 35.4375c0 1.089375 -1.4700000000000002 1.96875 -3.28125 1.96875s-3.28125 -0.879375 -3.28125 -1.96875 1.4700000000000002 -1.96875 3.28125 -1.96875 3.28125 0.879375 3.28125 1.96875Z" fill="#e04122" stroke-width="1"></path><path d="M12.46875 35.4375c0 1.089375 1.4700000000000002 1.96875 3.28125 1.96875s3.28125 -0.879375 3.28125 -1.96875 -1.4700000000000002 -1.96875 -3.28125 -1.96875 -3.28125 0.879375 -3.28125 1.96875Z" fill="#e04122" stroke-width="1"></path><path d="M10.5 59.71875a21 1.96875 0 1 0 42 0 21 1.96875 0 1 0 -42 0Z" fill="#45413c" opacity=".15" stroke-width="1"></path></svg>