<svg viewBox="-0.5 -0.5 64 64" xmlns="http://www.w3.org/2000/svg" height="64" width="64"><path d="M10.5 59.71875a21 1.96875 0 1 0 42 0 21 1.96875 0 1 0 -42 0Z" fill="#45413c" opacity=".15" stroke-width="1"></path><path d="M5.25 28.21875a26.25 26.25 0 1 0 52.5 0 26.25 26.25 0 1 0 -52.5 0Z" fill="#ffe500" stroke-width="1"></path><path d="M31.5 1.96875a26.25 26.25 0 1 0 26.25 26.25 26.25 26.25 0 0 0 -26.25 -26.25Zm0 48.5625a23.953125 23.953125 0 1 1 23.953125 -23.953125A23.953125 23.953125 0 0 1 31.5 50.53125Z" fill="#ebcb00" stroke-width="1"></path><path d="M11.085374999999999 18.9328125a7.875 1.96875 -45 1 0 11.1365625 -11.1365625 7.875 1.96875 -45 1 0 -11.1365625 11.1365625Z" fill="#fff48c" stroke-width="1"></path><path d="M5.25 28.21875a26.25 26.25 0 1 0 52.5 0 26.25 26.25 0 1 0 -52.5 0Z" fill="none" stroke="#45413c" stroke-linecap="round" stroke-linejoin="round" stroke-width="1"></path><path d="M45.9375 12.901875c0.7743749999999999 0.7743749999999999 0.354375 2.428125 -0.931875 3.714375S42 18.375 41.23875 17.548125s-0.34125 -2.428125 0.931875 -3.714375 2.9400000000000004 -1.693125 3.766875 -0.931875Z" fill="#ffaa54" stroke-width="1"></path><path d="M46.7775 43.49625c-7.21875 7.21875 -18.151875 8.21625 -25.4625 2.625a1.850625 1.850625 0 0 1 0.170625 -2.953125 114.09562500000001 114.09562500000001 0 0 0 25.003125 -24.96375 1.850625 1.850625 0 0 1 2.953125 -0.170625c5.551875000000001 7.310625 4.554375 18.243750000000002 -2.6643749999999997 25.4625Z" fill="#ffb0ca" stroke="#45413c" stroke-linecap="round" stroke-linejoin="round" stroke-width="1"></path><path d="M40.55625 37.275a32.8125 32.8125 0 0 1 12.4425 -8.21625 21.275625 21.275625 0 0 1 -20.65875 20.65875 32.8125 32.8125 0 0 1 8.21625 -12.4425Z" fill="#ff87af" stroke="#45413c" stroke-linecap="round" stroke-linejoin="round" stroke-width="1"></path><path d="M34.243125 9.1875 32.8125 13.702499999999999a1.3125 1.3125 0 0 0 1.65375 1.65375l4.475625 -1.4831249999999998" fill="none" stroke="#45413c" stroke-linecap="round" stroke-linejoin="round" stroke-width="1"></path><path d="M16.183125 42.60375c0.7743749999999999 0.7743749999999999 2.428125 0.354375 3.714375 -0.931875s1.693125 -2.9400000000000004 0.931875 -3.714375 -2.454375 -0.34125 -3.766875 0.931875 -1.640625 2.9400000000000004 -0.879375 3.714375Z" fill="#ffaa54" stroke-width="1"></path><path d="m12.508125 30.961875 4.475625 -1.4831249999999998a1.3125 1.3125 0 0 1 1.65375 1.65375l-1.4831249999999998 4.475625" fill="none" stroke="#45413c" stroke-linecap="round" stroke-linejoin="round" stroke-width="1"></path><path d="M21.485625000000002 43.2075a115.77562499999999 115.77562499999999 0 0 0 13.479375 -11.52375 115.77562499999999 115.77562499999999 0 0 0 11.52375 -13.479375 1.850625 1.850625 0 0 1 2.953125 -0.170625c0.2625 0.34125 0.49875 0.70875 0.7350000000000001 1.07625A123.46687499999999 123.46687499999999 0 0 1 37.5375 34.25625a123.46687499999999 123.46687499999999 0 0 1 -15.146249999999998 12.639375000000001c-0.36750000000000005 -0.23625 -0.7350000000000001 -0.4725 -1.07625 -0.7350000000000001a1.850625 1.850625 0 0 1 0.170625 -2.953125Z" fill="#ffffff" stroke="#45413c" stroke-linecap="round" stroke-linejoin="round" stroke-width="1"></path></svg>