<svg viewBox="-0.5 -0.5 64 64" xmlns="http://www.w3.org/2000/svg" height="64" width="64"><path d="M12.6525 59.233125a18.8475 2.454375 0 1 0 37.695 0 18.8475 2.454375 0 1 0 -37.695 0Z" fill="#45413c" opacity=".15" stroke-width="1"></path><path d="M37.104375 30.410625000000003s11.235000000000001 -1.8768749999999998 15.841875 2.9662499999999996 0.105 11.3925 -4.974375 11.011875S40.6875 38.0625 39.781875 35.161875a14.4375 14.4375 0 0 0 -2.6775 -4.75125Z" fill="#4aeff7" stroke-width="1"></path><path d="M47.971875 40.569375c-5.079375 -0.36750000000000005 -7.244999999999999 -6.37875 -8.19 -9.1875A12.324375 12.324375 0 0 0 39.375 30.1875c-1.3125 0.105 -2.2312499999999997 0.249375 -2.2312499999999997 0.249375a14.4375 14.4375 0 0 1 2.625 4.75125c0.945 2.86125 3.110625 8.859375 8.19 9.1875a6.5625 6.5625 0 0 0 6.5625 -8.42625 6.69375 6.69375 0 0 1 -6.549375 4.62Z" fill="#00dfeb" stroke-width="1"></path><path d="M37.104375 30.410625000000003s11.235000000000001 -1.8768749999999998 15.841875 2.9662499999999996 0.105 11.3925 -4.974375 11.011875S40.6875 38.0625 39.781875 35.161875a14.4375 14.4375 0 0 0 -2.6775 -4.75125Z" fill="none" stroke="#45413c" stroke-linecap="round" stroke-linejoin="round" stroke-width="1"></path><path d="M10.5 27.74625S26.735625000000002 29.544375000000002 31.198125 38.0625s-4.305 15.75 -11.15625 13.243125 -7.48125 -11.615625 -7.678125 -15.920625000000001A20.645625 20.645625 0 0 0 10.5 27.74625Z" fill="#4aeff7" stroke-width="1"></path><path d="M32.0775 40.18875a9.883125 9.883125 0 0 1 -12.613125 6.890625c-3.819375 -1.39125 -5.80125 -4.764375 -6.838125 -8.268749999999999 0.525 4.5675 2.1 10.5 7.415625 12.455625C26.25 53.536875 34.125 47.683125 32.0775 40.18875Z" fill="#00dfeb" stroke-width="1"></path><path d="M10.5 27.74625S26.735625000000002 29.544375000000002 31.198125 38.0625s-4.305 15.75 -11.15625 13.243125 -7.48125 -11.615625 -7.678125 -15.920625000000001A20.645625 20.645625 0 0 0 10.5 27.74625Z" fill="none" stroke="#45413c" stroke-linecap="round" stroke-linejoin="round" stroke-width="1"></path><path d="M8.137500000000001 14.805s10.670625000000001 -10.171875 22.771875 -8.964375c9.489375 0.958125 11.8125 10.578750000000001 5.630625 15.631875 -5.617500000000001 4.580625 -14.319375 0.7350000000000001 -17.92875 -1.575a86.90062499999999 86.90062499999999 0 0 0 -10.47375 -5.0925Z" fill="#4aeff7" stroke-width="1"></path><path d="M36.54 17.1675c-5.617500000000001 4.580625 -14.319375 0.7350000000000001 -17.92875 -1.575a62.133750000000006 62.133750000000006 0 0 0 -6.9825 -3.583125 33.39 33.39 0 0 0 -3.49125 2.795625 86.90062499999999 86.90062499999999 0 0 1 10.5 5.0925c3.609375 2.31 12.311250000000001 6.155625000000001 17.92875 1.575a8.701875 8.701875 0 0 0 3.15 -9.05625 9.1875 9.1875 0 0 1 -3.17625 4.75125Z" fill="#00dfeb" stroke-width="1"></path><path d="M8.137500000000001 14.805s10.670625000000001 -10.171875 22.771875 -8.964375c9.489375 0.958125 11.8125 10.578750000000001 5.630625 15.631875 -5.617500000000001 4.580625 -14.319375 0.7350000000000001 -17.92875 -1.575a86.90062499999999 86.90062499999999 0 0 0 -10.47375 -5.0925Z" fill="none" stroke="#45413c" stroke-linecap="round" stroke-linejoin="round" stroke-width="1"></path><path d="M30.1494375 11.080125a4.305 1.535625 4.14 1 0 0.22312500000000002 -3.063375 4.305 1.535625 4.14 1 0 -0.22312500000000002 3.063375Z" fill="#a6fbff" stroke-width="1"></path><path d="M48.215999999999994 34.3258125a2.821875 1.010625 23.32 1 0 0.800625 -1.855875 2.821875 1.010625 23.32 1 0 -0.800625 1.855875Z" fill="#a6fbff" stroke-width="1"></path><path d="M23.349375 36.06225a3.9768749999999997 1.4175 29.7 1 0 1.4043750000000002 -2.4635625 3.9768749999999997 1.4175 29.7 1 0 -1.4043750000000002 2.4635625Z" fill="#a6fbff" stroke-width="1"></path></svg>