<svg xmlns="http://www.w3.org/2000/svg" viewBox="0 0 400 400" height="400" width="400"><g><g><g><path d="M328.4 98.24c5 -5.72 13.72 -7.38 16.74 2s0.94 20.58 3.74 23.5 22.54 5.68 33.78 15.7 10.26 22.64 -8.16 29.02 -44.66 3.84 -44.66 3.84Z" fill="#fef0bb" stroke-width="1"></path><path d="M25.8 155.12c-2.46 0 -9.7 -6.78 -12.74 -4s3.26 11.34 2.22 14.16 -6.2 6.72 -4.34 11.12 9.14 -0.46 10.42 0.36 1.68 11.5 4.5 11.76 3.54 -14 4.72 -15.16 13.34 0.18 13.8 -2.36 -10.16 -7.46 -10.62 -8.64 6 -10 3.9 -12.34 -9.66 5.12 -11.86 5.1Z" fill="#fef0bb" stroke-width="1"></path><path d="M135.8 127.88c-0.7 -6.24 -0.88 -19.14 1.26 -20.74S160.8 104 172 103.46s49.48 3.12 56.6 2.24 20.16 -4.5 25.54 -1.74 5.74 7.74 5 12.86a238.98 238.98 0 0 0 -0.76 34.3c0.82 7 1.36 14.74 -1.08 17.56s-8.38 2 -11.86 3.24S240 176 238 174.5s-3.24 -8.8 -1.3 -11.06c0 0 6.3 2 7.26 0.32s-0.38 -48.4 -1.56 -49.1 -38.92 -1.08 -45.68 -0.96 -53.5 0 -55.04 1.06 0 13.18 0 13.18Z" fill="#fef0bb" stroke-width="1"></path><path d="M272 236.86c2.84 -3.34 7.38 -2.14 9.46 1.74s4.82 8.38 3.16 14.94 -5.72 7.84 -9.38 7.78a10.46 10.46 0 0 1 -6 -1.86c-0.72 -4.32 -0.46 -4.32 -0.72 -6a18.88 18.88 0 0 1 -0.12 -10.4c1.6 -4.88 3.6 -6.2 3.6 -6.2Z" fill="#fef0bb" stroke-width="1"></path><path d="m221.36 147.22 0 -1.22 -5.32 0c0 -1.08 -0.12 -2 0 -2.82a28.48 28.48 0 0 1 0.3 -4.18l-1.16 0.26 0 6.76 -9.26 0c0 -2.86 0.18 -7.22 0.18 -7.22l-1.44 0.38c0 0.58 0 3.3 0.14 6.82 -1.8 0 -3.68 0 -5.56 -0.14l-5.82 -0.2c0 -3.4 -0.14 -6.54 -0.2 -6.74s-0.84 0 -0.84 0 0 3 0.18 6.66l-10 -0.32 0 -1.12 0 -4.8 -0.98 0.22 0 5.66 -10.44 -0.32c0 -3.58 0.18 -6.12 0.18 -6.12l-1.02 0.28 0 5.82 -10.16 -0.34c0 -2.44 0.14 -5.38 0.14 -5.38l-1.04 0a12.44 12.44 0 0 0 0 2.14l0 3.2 -12.5 -0.44c0 -1.12 -0.14 -2.3 -0.16 -3 0 -1.48 -0.8 -1.36 -0.72 0 0 0.64 0 1.82 0.12 2.96l-3.84 -0.02c-2.56 0 -5.26 -0.18 -8 -0.24a1.14 1.14 0 0 1 0 -0.26l0 -5.18 -0.78 0.12 0 5.32 -8.28 0a34.28 34.28 0 0 1 0.3 -5.72c0.42 -1.08 -1.24 -0.44 -1.24 -0.44l0 6.16 -9.14 0 0 -0.52c0 -3.58 -0.24 -5.86 -0.24 -5.86l-0.94 0.24s0 2.44 0.22 6.14l-5.72 0 -0.18 1.2s2.36 0 6 -0.2c0 2 0.16 4.32 0.24 6.8l-5.64 0 0.14 0.98a30 30 0 0 1 5.52 -0.26c0.12 3.12 0.24 6.44 0.34 9.64a33.74 33.74 0 0 0 -5.8 0.42l-0.16 0.74c1.12 -0.12 3.36 -0.22 6 -0.28 0.12 3.68 0.24 7.16 0.34 10 -3.64 0.12 -6.82 0.22 -7.2 0.3 -0.86 0.18 -1.26 0.92 0 0.82l7.26 -0.12c0.1 2.7 0.16 4.7 0.16 5.52s0 2.46 0.14 4.46l-7.84 0c-1.72 0 -1.02 1.24 0 1.04 0.36 0 3.68 -0.12 7.86 -0.16 0 2.76 0.22 6.12 0.34 9.4l-6.32 0c-0.86 0 -1.34 1.02 0.12 1.08l6.24 0c0.14 3.78 0.28 7.32 0.36 9.54l-5.42 0c-1.54 0 -1.18 0.84 -0.16 0.82s3.46 0 5.62 0l0 1.52c0 0.86 0.76 1.48 0.78 0l0 -1.52 8.1 0 0 1.58c0.16 1.28 1.06 1.16 1.06 -0.2l0 -1.38 8.42 0 0 1.5c0.16 0.92 0.92 1.14 0.92 0.1l0 -1.6 1.54 0c1.68 0 5.76 0 9.54 0.12l0 3.32 1.1 0.12 0 -3.42 6.38 0 4.8 0c0 1.86 0.16 3.18 0.16 3.18l1.24 0.14s0 -1.38 -0.2 -3.32l10.2 0 0.76 0c0 1.76 0.12 2.98 0.12 2.98l0.98 0.3s0 -1.36 -0.14 -3.3c2.84 0 7.5 -0.14 11.58 -0.18l0 3.22 0.88 0.36 0 -3.6 6.46 0c1.08 0 2 0 3.22 -0.12l0 3.52 1 0.36s0 -1.62 -0.12 -4c3.26 -0.2 7.18 -0.52 9.5 -0.4l0.44 0 0 4.86 1 0 0 -4.76c2.98 0 5.88 0 7.38 -0.12l3.1 -0.14 0 1.42c0 1.3 1.18 1.34 1.14 0l0 -1.52 0.94 0c1.5 0 1.24 -0.92 0.14 -0.98l-1.12 0c0 -2 0 -4.8 -0.18 -7.84l1.46 0c1.14 0 1.66 -0.78 -0.26 -0.94l-1.22 0c0 -3.76 -0.16 -7.68 -0.22 -10.44l1.38 0c1.48 0 1.22 -0.4 0.3 -0.62a5.82 5.82 0 0 0 -1.68 0l0 -2.12 0 -7.4 2.12 0c1.12 0 0.82 -0.84 -0.14 -0.84l-2 0c0 -3.02 0 -6.36 -0.12 -9.3l2.32 0c0.96 0 0.46 -0.62 0 -0.72l-2.24 -0.16c0 -3.3 -0.1 -6 -0.14 -6.96a5.24 5.24 0 0 0 0 -0.54l0.8 0c1.18 0 1.56 -1 0.3 -1l-1.18 0c-0.16 -2 -0.52 -4.94 -0.72 -7.46Zm-25.36 -0.54 8.84 0.24 0 6.78c-3.5 -0.2 -8.9 -0.22 -11.28 -0.28l0 -0.44c0 -1.52 0 -4 -0.16 -6.4Zm-2.24 16c2.6 0.14 9.1 0.68 10.9 0.74l0.32 0 0 2.58c0 1.88 0 4.52 0.18 7.12l-10.5 0c-0.4 0 -0.84 -0.7 -0.84 -1.36s-0.12 -4.52 -0.16 -8.98Zm0 -1.06 0 -7.46 11.26 0.66 0 7.54Zm-1.14 -15.16c0 2.28 0.12 4.74 0.18 6.84 -2.38 0 -8 -0.66 -9.86 -0.7l-0.3 0 0 -6.48Zm-10.76 -0.36 0 4.12 0 2.34c-2.66 0 -7.82 -0.36 -10.2 -0.42l0 -4.42 0 -2Zm-11.22 -0.34 0 5.66 0 0.7 -10.44 0 0 -1.5c0 -0.6 0.4 -2 0.38 -3.1l0 -2Zm-24.26 -0.76a9.24 9.24 0 0 0 0.26 1.82c0.32 1.06 1.04 0.76 0.78 0a10.82 10.82 0 0 1 -0.26 -1.82c4.54 0.22 8.78 0.44 12.22 0.52l0.2 0 0 2.44c0 0.44 0 2.68 -0.12 4.16l-0.42 0c-1.42 -0.16 -1.42 0.76 -0.6 0.78l1 0 0 0.74c0 0.88 0.68 0.56 0.68 0.12l0 -0.84 2 0 8.48 0 0 7.36c-1.16 0 -2.16 -0.16 -2.8 -0.26s-1.32 0.52 -0.48 0.76c0.3 0 1.64 0.16 3.28 0.24l0 4a2.98 2.98 0 0 1 0.94 1.06l0 -5c2.84 0.12 6 0.22 6.5 0.2s0.68 -0.78 -0.18 -0.78 -3.6 0 -6.32 -0.16c0 -2.54 0 -5.04 -0.14 -7.38l4.14 0.1 6.12 0.3 0 2a10.36 10.36 0 0 0 0.64 2.78c0.16 0.24 0.2 0.22 0.24 -1.1l0 -3.7 8.66 0.5 1.52 0 0 3.6c0 0.82 0 2.36 0.12 3.86l-0.3 0a0.54 0.54 0 1 0 0 1.06 1.62 1.62 0 0 1 0.32 0 78.62 78.62 0 0 1 0 10.16 1 1 0 0 1 -0.56 0.32c-1.8 -3.84 -5.86 -14.52 -6.64 -13.86a69.28 69.28 0 0 0 -6.62 7.68c-2.18 2.94 -1.18 2.76 -1 4.84 0.16 1.7 0.44 15.74 1.32 15.62s13.5 0.12 16.14 0.12 2.92 -0.76 2 -2.52c-0.72 -1.34 -2.26 -5.5 -3.64 -8.64l0 -2c0 -0.26 0.42 -0.36 0.96 -0.32l10.26 0c0 2.92 0.2 5.68 0.16 7.14l0 2 -2.16 0a26.3 26.3 0 0 1 -3.48 -0.38c-1.74 -0.14 -1.08 1.14 0.32 1.18s3.34 0.18 5.3 0.32l0 8.36 0 1.52 -10.36 0.1c0 -2 -0.1 -3.32 -0.1 -3.7 0 -1.5 -0.88 -1.82 -0.84 -0.46 0 0.36 0 2 0.1 4.14l-0.26 0 -9.42 0c0 -2.14 0 -3.76 -0.16 -4 -0.2 -1.3 -0.58 -1.52 -0.72 -0.16l0 4.26 -11.86 0 0 -0.94c0 -1.36 -0.82 -2.14 -0.94 -0.84l0 1.78 -11.3 0 0 -0.54c-0.16 -1.14 -0.78 -0.78 -0.84 0l0 0.48 -1.12 0 -9.76 0 0 -6.24c0 -0.86 -0.22 -1.16 0.68 -1.28a39.26 39.26 0 0 1 4.14 0.2l-0.76 -0.84 -3.88 -0.22c-0.24 0 -0.2 -0.2 -0.18 -0.64s-0.62 -0.76 -0.72 0l0 9.06 -11.66 -0.06c-0.12 -4.3 -0.22 -8.12 -0.16 -8.68 0.16 -1.3 0.22 -1.3 -1.4 -1.34 -0.6 0 -3.9 0 -8 -0.14 0 -3.36 -0.18 -7.48 -0.24 -10.28l1.36 0c0.22 0 1.04 -1.22 -0.34 -1.14l-1.06 0 0 -2 0 -8 4.32 0c3.02 0.16 1.22 -0.9 -0.36 -0.9l-4 0 0 -9.24c2.82 0.12 5.74 0.26 8.52 0.44 0 4 0.16 8.78 0.16 8.78l1.02 -0.46s-0.18 -4.8 -0.24 -8.28l5.32 0.34 0.22 -0.88 -5.68 -0.22 0 -1.56c0 -2.42 -0.4 -4.34 -0.5 -6 4.04 0.16 8.22 0.36 12.18 0.56ZM126 188.98c0 -0.78 -0.12 -2.44 -0.18 -4.46 4.64 0 8.38 0 8.56 0.16a80.7 80.7 0 0 1 0.24 9.32l-8.52 0c-0.1 -2.28 -0.1 -4.18 -0.1 -5.02Zm3.32 -44.54 4.28 0 0 3.42c0 0.64 0 2.22 0.14 4.12l-8.5 -0.32 0 -0.78 0 -6.48Zm-14.1 0.22c2.62 0 5.76 -0.14 9.06 -0.18l0 7.22c-2.54 0 -5.28 -0.16 -8.24 -0.2 -0.36 -2.84 -0.72 -4.62 -0.9 -6.84Zm0.78 8.78 0 -1.3c2.4 0 5.22 0.12 8.18 0.24l0 9.3 -8 0c-0.08 -3.44 -0.18 -6.54 -0.18 -8.24Zm0.2 9.18 7.9 0 0 3.8c0 1.58 0.14 3.68 0.2 6l-8 0.24c-0.02 -3.1 -0.06 -6.66 -0.12 -10.04Zm0.18 16.18 0 -5.16 8 -0.16c0 3.3 0.18 6.96 0.28 10.26l-8.18 -0.1c-0.08 -2.16 -0.12 -3.9 -0.12 -4.84Zm8.28 5.72c0.12 4 0.2 7.4 0.26 8.56l0 0.9 -1.12 0 -7.06 0c0 -3.26 -0.2 -6.62 -0.26 -9.4 2.62 -0.06 5.52 -0.08 8.16 -0.06Zm-7.58 20c0 -2.22 -0.16 -5.76 -0.28 -9.54l8.18 0c0 2.74 0.12 6.94 0.2 9.62Zm9.24 0c0 -2.4 0 -6.28 -0.18 -9.62l8.52 0 0 9.7Zm18.44 0 -9.1 0c0 -2.36 -0.22 -6.12 -0.34 -9.72l11.54 0 0 8 0 2Zm3 0 0 -10 10.38 0 0.46 0c0 2.28 0.26 6.8 0.42 10Zm18.38 0 -6 0c-0.2 -3.3 -0.48 -7.78 -0.66 -10l11.26 0.16c0 2.7 0.24 6.7 0.38 9.68 -2.2 0.32 -3.96 0.38 -5 0.44Zm6 -0.22c-0.12 -3.1 -0.3 -7.18 -0.38 -9.62l11.82 0.24c0 2.92 0 6.44 0.16 9.12 -3.86 0.34 -8.18 0.44 -11.74 0.54Zm17.64 -0.32 -5.12 0c0 -2.72 0 -6.2 -0.16 -9.08l9.5 0.5c0 2.8 0.12 6 0.16 8.72 -1.4 0.08 -2.9 0.14 -4.5 0.14Zm5.48 -0.2c0 -2.66 -0.16 -6 -0.24 -8.64l7.26 0 3 0 0 8c-3.7 0.38 -6.8 0.72 -10.14 0.86Zm21.34 -6.6c0 1.16 0 4 0.16 6.22 -0.68 0 -1.44 0.18 -2.3 0.2 -1.84 0 -3.5 -0.42 -8.14 -0.42 0 -2.46 0 -5.34 0.1 -8 3.84 0 7.68 0 10.16 0.12 -0.12 1.22 -0.1 1.86 -0.1 2.16Zm0 -2.78 -10.16 -0.4 0 -4.66 0 -5.2c1 0 2 0.1 2.6 0.1 1.56 0 5.02 -0.12 7.48 -0.18 -0.14 3.64 -0.1 7.94 -0.06 10.62Zm-0.2 -14.84 0 3.8 -0.4 0c-1.28 0 -6.22 -0.24 -9.64 -0.32 0 -2.98 0 -6.32 0.12 -9.2l9.76 0c-0.04 2.78 0 4.92 0.02 6Zm-0.12 -6.58 -9.88 0 0 -5.64c0 -0.98 0 -2.2 -0.12 -4l9.72 0.66c0 2.76 0 6.24 0.14 9.26Zm-0.2 -14.5 0 4.3 -8.24 -0.44 -1.46 0c0 -2.3 -0.14 -5 -0.2 -7.56 2.14 0.14 6.98 0.46 9.76 0.6 0.06 1.4 0.06 2.5 0.06 3.38Zm-0.2 -4.22c-2.74 -0.18 -7.06 -0.5 -9.56 -0.74l-0.32 0c0 -3.02 -0.14 -5.66 -0.16 -6.86l9.26 0.18 0 0.6c0.04 1.26 0.4 4.26 0.64 7.1Z" fill="#fef0bb" stroke-width="1"></path></g><g><path d="M152.78 45.88c-3.84 0.54 -4.18 0.12 -4 4.18s0.36 7.86 1.1 16 -0.58 17.52 -2.94 21.46 -3.42 4.6 2.82 5.18 29.22 1.44 40.86 3.42c5.44 0.92 6.2 -0.16 7.7 -5.44s2.54 -11.18 0.6 -22 -3.36 -18.48 -3.24 -21.08 -2.82 -4.38 -8.12 -4.2c-14.7 0.6 -31.82 2.08 -34.78 2.48Z" fill="#ffc7d6" stroke-width="1"></path><path d="M332.64 178.92c-0.46 -5.78 -3.38 -19 -3.38 -24.48s-2.4 -47.3 -0.96 -56.32 3.38 -13.36 3.54 -21.72 0.48 -19 -0.32 -20.92 -9.12 0.58 -17.6 1 -34 0.5 -36 1.74c-1.56 1 0.34 41.8 -0.48 56.32s-0.26 28.48 -0.74 34.42 1.1 13.02 1.1 18.52a78.48 78.48 0 0 0 2.26 17.36c0.74 1.5 2.62 1 4.5 1s11.68 1.1 19.66 0.88 18.74 -1 22.46 -0.44 6.42 -1.56 5.96 -7.36Zm-11.86 -7.08c-2.3 1.66 -36.32 0.72 -37.9 -0.42s-1.6 -13.54 -1.32 -17.24 0 -35.58 0.54 -38.4 -0.1 -24.42 -0.1 -27.56 -1.28 -22.74 0.84 -25.08 34.52 -0.98 36 0.46 1.8 25.62 2 28.5 0.72 42.22 0.72 44.52 1.54 33.54 -0.78 35.22Z" fill="#ffc7d6" stroke-width="1"></path><path d="M344.82 53.34c-0.6 -3.36 6.6 -4.64 8 -6s1.02 -16.98 4.82 -17.48 8.2 11.06 9.62 12 9.72 -2 10.82 0.92 -6.68 7.68 -7.02 9.88 8.36 9.46 6.76 11.48 -12.58 -2.28 -14.7 -2.28 -6.32 8.54 -9.12 7.7 -0.5 -11.74 -0.92 -12.68 -7.66 -0.24 -8.26 -3.54Z" fill="#ffc7d6" stroke-width="1"></path><path d="M252.64 199c-2.98 0.76 -3.2 3.64 -3.26 5.66s0 12.32 0.14 14.56 3.72 4.16 8.48 5.34 8.84 0.6 10.92 -2.6 6 -11.74 5.2 -17.52 -0.9 -5.66 -3.86 -5.58 -17.62 0.14 -17.62 0.14Z" fill="#ffc7d6" stroke-width="1"></path><path d="M109 228c-0.86 -2.24 1.06 -3.32 3.46 -2a40.68 40.68 0 0 1 9.34 9.42c2.74 3.78 8.2 12.38 10 14.64s1.84 7.72 -2.98 4.58 -15.46 -19.12 -17.12 -21.48A17.84 17.84 0 0 1 109 228Z" fill="#ffc7d6" stroke-width="1"></path><path d="M101.88 223.02c-3.8 -4.32 -28 -2.54 -31.38 -1.08 -4.72 2 -5.26 10.48 -6 14.94s-4 11.2 -4 15.24 0 4.38 2.18 4.88 29.3 1.3 33.1 0.54 6.38 -2.42 7.06 -6.9 2.82 -23.3 -0.96 -27.62Zm-24.2 19.56a15.76 15.76 0 0 1 -6.88 0.38c-2.38 -0.44 -1.88 -3.62 0.7 -3.88a40.76 40.76 0 0 1 6.4 0c2.36 0.22 1.82 2.92 -0.22 3.5Zm1.58 -9.82a33.58 33.58 0 0 1 -7.62 0.36c-2.58 -0.42 -1.24 -3.76 1.44 -3.48a29.22 29.22 0 0 1 5.28 0.36c2.04 0.54 2.7 2.64 0.9 2.76Zm6.34 2.62a37.48 37.48 0 0 1 6 0.92c1.72 0.54 1.58 3.14 -0.3 2.86s-3.78 0.32 -6.3 0 -1.48 -4.04 0.6 -3.78ZM92.54 248a12.92 12.92 0 0 1 -4.26 0.18c-1.62 -0.2 -1.02 -0.68 -2.48 -1.4s-0.48 -2.42 1.52 -2c1.16 0.26 3.42 0.5 5.02 0.82a1.204 1.204 0 0 1 0.2 2.4Zm0.52 -16c-2.54 -0.4 -2.9 -0.7 -4.26 -0.84 -2 -0.22 -2 -2.2 0 -2.46a8.58 8.58 0 0 1 4.66 0.76c1.4 0.66 2.16 3.06 -0.4 2.66Z" fill="#ffc7d6" stroke-width="1"></path><path d="M160.52 164.78a13.78 13.78 0 0 0 2.6 -4c0.24 -1.34 -12 -11.74 -13.76 -11.24s-7.54 9.14 -10.32 12.8a80.58 80.58 0 0 0 -7.78 12.82c-0.64 2 -1.26 3.68 1.4 5.72s7.4 4.68 8.98 6 2.42 1.64 2.8 0.24a58.14 58.14 0 0 1 5.32 -9.12 15.16 15.16 0 0 1 3.86 -10.26c4.18 -4.54 6.9 -2.96 6.9 -2.96Z" fill="#ffc7d6" stroke-width="1"></path></g><g><path d="M22.48 53.1c4.72 4.72 8.74 10.36 10.76 9.04s0.6 -14.56 -3.22 -18.88c-10.7 -12.1 -19.16 -1.78 -7.54 9.84Z" fill="#a6eef8" stroke-width="1"></path><path d="M18.78 78.16c5.08 3.16 14 8.62 15.34 7.1s-4.32 -11.16 -9.26 -16c-14.76 -14.36 -21.42 -0.7 -6.08 8.9Z" fill="#a6eef8" stroke-width="1"></path><path d="M60.26 41.04c-3.82 0.54 -5.2 2.14 -5.32 5.74s0.16 24.48 -0.12 30 0 24.34 -1.5 31.6 -0.46 21.86 -0.1 24 41.88 4.76 41.88 4.76a10.58 10.58 0 0 1 0.94 -8l-34.38 -4.2a202.12 202.12 0 0 0 -2.52 -21.12c-1.5 -6.44 -2.54 -10 -2.26 -16.34s0.76 -16 0.56 -22 1.04 -13.08 0.38 -15.04 -2.62 -3.74 1.68 -3.64 28.66 3 34.82 3.2a92.88 92.88 0 0 1 12.42 1.18 89.62 89.62 0 0 1 2 20.32c-0.32 10.6 -0.76 26.9 -1.4 34.26s-1.28 19.88 -0.16 19.88 2.48 -0.62 4.36 -0.62a20.46 20.46 0 0 1 5 1.08c4.94 -6.5 3.4 -32.9 3.3 -38.44s-1.2 -37.16 -2.58 -41.06 -1.18 -7.08 -5.56 -6.84 -14.22 0.94 -16.76 1.02 -34.68 0.26 -34.68 0.26Z" fill="#a6eef8" stroke-width="1"></path><path d="M97.66 150c-9.16 -0.36 -22.94 3.06 -29.66 14s-12.32 16.94 -22.56 21.82 -12.32 10 -10 14.52 17.32 5.74 28.18 2.2 34.76 -0.24 34.76 -0.24 -1.34 -41.72 -1.34 -46.6 0.62 -5.7 0.62 -5.7Z" fill="#a6eef8" stroke-width="1"></path><path d="M222.66 128.5c-10.12 0.44 -88.26 1.52 -95.72 1.74s-15.78 -1.34 -20.22 2.22c-5.04 4 -5.62 12.48 -5.1 20s-0.1 35.62 1.4 45.24 2 13.26 2.18 15.8 40.64 4 59.52 4.14 44.4 2.48 54.98 0.72c11.86 -2 16.16 -8.24 14 -24.3a80.48 80.48 0 0 1 1.44 -32.2c1.82 -7.86 -2.36 -33.86 -12.48 -33.36Zm-1.68 80.48c-2.8 2.6 -11.54 0.56 -26.98 0.56s-33.88 0.12 -48.22 0.12 -35.64 0 -37.48 -1.78 -2.48 -13.1 -1.9 -22.44 1.9 -24 1.7 -33.44 -0.3 -14.36 -0.3 -14.36a10.56 10.56 0 0 1 3.02 -0.28c2.22 0 29.1 0.84 46 1.32s54.68 -0.74 58 -0.48 6.14 -2.88 8 14.42 0.94 53.76 -1.84 56.36Z" fill="#a6eef8" stroke-width="1"></path><path d="M169.26 166.82c-9.52 -2.78 -15.06 2.68 -16 9.12S154 188.22 158 190s15.62 4 18.84 -6.84c1.64 -5.74 -2.84 -14.96 -7.58 -16.34Z" fill="#a6eef8" stroke-width="1"></path><path d="M213.84 50.4c0 -2.14 0.38 -2 2 -2.14s31.18 -2.4 36.5 -2.14 6.68 0.12 6.44 5.56 -0.14 16 1.76 21.72 3.54 17.56 1.64 19.82 -11.74 -0.38 -20.2 0.26 -16.8 -0.12 -22.24 1.52 -9.08 2.52 -8.2 -3.8 2.3 -37.88 2.3 -40.8Z" fill="#a6eef8" stroke-width="1"></path><path d="M272.54 42.8c-3.52 -0.64 -1.54 -11.64 0.26 -17.26 2.62 -8.22 9.52 -11.02 14.3 -8s0.26 9.6 -4.22 13.74 -7.02 12.1 -10.34 11.52Z" fill="#a6eef8" stroke-width="1"></path><path d="M311.1 139.62c-0.98 -7.4 -5.38 -20 -5.2 -21.5s0.42 -1.82 4 -3.2 2.5 -6 1.34 -7.14 -2.48 -1.26 -2.12 -1.82a39.56 39.56 0 0 0 0.76 -4.28c0.44 -2 0.1 -3.14 -1.36 -3.54s-2.6 1.26 -3.14 3.2a3.12 3.12 0 0 1 -3.62 2.66 7.04 7.04 0 0 1 -4.96 -2.16c-1.26 -1.48 -2.1 -5.32 -4.12 -5.02s-2 3.06 -1.04 7.54c0 0 -1.7 0.64 -2.16 3.64a7.42 7.42 0 0 0 2.68 7.38 12.32 12.32 0 0 0 5.54 1.64c1.12 0.42 -0.56 2.4 -2.18 7.36a145.04 145.04 0 0 0 -2.98 16.28 6.58 6.58 0 0 1 -1.24 -6.12 27.76 27.76 0 0 0 -0.3 -13.34c-0.7 -2.6 -3.62 -2.9 -2.24 0.62s0.86 11.58 0 15.34 -1.18 7.22 2.68 10.54c-0.4 2.96 -0.74 5.46 -0.96 6.96 -0.8 5.66 4.66 9.24 7.08 8s4.88 -0.28 7.3 0 2.94 1.08 6 -3.5 1.14 -12.14 0.24 -19.54Z" fill="#a6eef8" stroke-width="1"></path><path d="M306.6 235.18c-2 0 -2.34 -1.02 -2.2 -2.34s1.16 -2.3 2.66 -1.48 1.46 0.26 2.12 -0.12 1.26 -0.6 2.7 0.44a3.44 3.44 0 0 0 2.86 0.88 1.28 1.28 0 1 1 0 2.54c-1.96 0.08 -6.56 0.16 -8.14 0.08Z" fill="#a6eef8" stroke-width="1"></path><path d="M329.1 231.34c-2.3 -0.66 -3.06 0.78 -4.38 0.72s-2.48 0.46 -2.5 1.72 1.4 0.76 2.3 0.88 0 0.58 1.34 0.84a15.54 15.54 0 0 0 3.82 -0.14Z" fill="#a6eef8" stroke-width="1"></path><path d="M313.74 240.9c-4.38 0.12 -3.66 -2 2.74 -2.42a12.32 12.32 0 0 1 6.58 1.38c1.8 0.98 -0.52 2.38 -3.08 2a31.74 31.74 0 0 0 -6.24 -0.96Z" fill="#a6eef8" stroke-width="1"></path><path d="M302 246a15.12 15.12 0 0 1 5.36 -0.98 19.16 19.16 0 0 1 5.8 0.94c2 0.76 1.86 2.16 -0.82 2.2a70.76 70.76 0 0 1 -8.58 0.12 20 20 0 0 1 -2 -0.48Z" fill="#a6eef8" stroke-width="1"></path><path d="M330.24 246.94c-3.6 -0.86 -4.28 -1.4 -5.6 -1.12s-2 2 0.24 2.7a16 16 0 0 0 5.7 0.3Z" fill="#a6eef8" stroke-width="1"></path><path d="M302.54 253.16s7.88 0.26 15.7 0 13.36 0.36 15.02 0 1.5 1.06 0.66 2.18 0.98 3.08 -2 2.7a124.76 124.76 0 0 0 -13.66 -1.26c-2.86 0.14 -16 -0.6 -16 -0.6Z" fill="#a6eef8" stroke-width="1"></path><path d="M201.84 238.64c0 -2.18 0.52 -3.22 4.54 -3.16s14.92 1.52 24 1.06 20.98 -1.26 22.72 -0.82 1.8 9.02 0.6 14.8 -1 8.78 -10.58 8.38 -22.94 1.8 -27.62 1.4 -12.38 0 -13.58 -5.38 -0.1 -14.1 -0.08 -16.28Z" fill="#a6eef8" stroke-width="1"></path><path d="M153 221.66c0.9 -0.72 6.42 0 10.8 -0.28s7.48 -1.3 9.24 -0.8 2.8 0.46 2.34 2.34 0 2.86 0.64 2.98a23.54 23.54 0 0 0 4.44 -1.44c2.24 -0.68 3.84 1.2 4 3.54s-2.4 9.26 -6.44 10.86 -19.7 3.12 -24.58 0.24 -4.82 -4.82 -4.68 -7.34 0.52 -5.04 2 -6.34a7.82 7.82 0 0 0 2.24 -3.76Z" fill="#a6eef8" stroke-width="1"></path></g><g><path d="M78 58.72a8.36 8.36 0 0 0 4.84 0.24c1.8 -0.14 2 1.06 6.14 0.72s-0.32 -3.58 -4 -3.36a22.6 22.6 0 0 1 -7.2 -0.32c-2.7 -0.56 -2.54 1.42 0.22 2.72Z" fill="#471280" stroke-width="1"></path><path d="M74.42 68.9a3.52 3.52 0 0 0 3.62 0c2.66 -1.66 2 0.48 4.72 0s2.56 -1.52 4 -0.94 6.16 0.96 7.36 0.18 0.9 -0.22 1.84 0.24 1.14 -2.46 -0.46 -2.72 -2 0.32 -3.68 0.64c-2.72 0.52 -3.16 -0.54 -4.52 -0.62s-2.7 0.8 -4.82 0.66 -2.72 -1.68 -4.52 -0.56c-3.36 2 -2.7 -1.7 -6.36 -0.2 -2.14 0.88 -2.48 3.46 0 2.34s1.7 0.38 2.82 0.98Z" fill="#471280" stroke-width="1"></path><path d="M86.2 77.02c-1.5 0 -2 0.52 -3.66 0.38S82 74.52 78 75.84c-1.14 0.38 -2.2 1.08 -3.34 1.52 -1.5 0.6 -2 2 0 2a7.22 7.22 0 0 0 3.9 -1.08c1.12 -0.5 1.38 -0.34 2.18 0.58s1.38 0.8 3.3 0.78a11.6 11.6 0 0 1 4.54 0.1 13.66 13.66 0 0 0 5.76 0.8c2 -0.26 2.26 -1.54 -0.4 -2 -3.62 -0.44 -4.34 -1.42 -7.74 -1.52Z" fill="#471280" stroke-width="1"></path><path d="M77.1 92a4 4 0 0 0 4 0.54c1.6 -0.58 2.7 -1.34 3.56 -1a4.98 4.98 0 0 0 2.98 0.5 4.96 4.96 0 0 1 3.54 0.3c2 0.66 2.82 -0.5 2 -1.02s-2.36 -2 -3.76 -1.34a4.98 4.98 0 0 1 -4 0 5.16 5.16 0 0 0 -4 0.16c-1.5 0.66 -2.14 0.92 -2.66 0.52S78 88.98 76 89.62s-4 1.44 -3.42 2c0.9 0.9 3.62 -0.48 4.52 0.38Z" fill="#471280" stroke-width="1"></path><path d="M96.8 104.92c-1.34 -0.62 -2.24 -0.3 -2.78 -0.78a2.54 2.54 0 0 0 -2.58 -0.46c-0.96 0.4 -1.28 1.04 -2.54 0.5a4.78 4.78 0 0 0 -4 0 2.62 2.62 0 0 1 -3.06 0.12 5.36 5.36 0 0 0 -4.58 -0.3c-1.7 0.64 -2.12 0 -3.64 0.38s-0.94 2 -0.24 1.66 1.34 0 2.3 0.32 1.46 -0.7 3.06 -0.7a3.28 3.28 0 0 1 2 0.64 3.64 3.64 0 0 0 4 0.22 10 10 0 0 1 5.42 0.34c1.32 0.22 2.38 -1 3.54 -0.44a6.7 6.7 0 0 0 4.16 0.38c0.96 -0.34 0.28 -1.26 -1.06 -1.88Z" fill="#471280" stroke-width="1"></path><path d="M86.84 116c-1.68 0 -8.36 0 -10 0.14s-1.78 2.48 -0.22 2.4 8.12 0 10 0 1.88 -2.54 0.22 -2.54Z" fill="#471280" stroke-width="1"></path><path d="M149.76 87.64c3.68 0.58 8.42 1.66 13.44 2.66 14 2.8 31.2 2.28 32.44 2.32 3 0 2.14 -17.68 1.12 -23.8a216.1 216.1 0 0 1 -2.24 -23.38c-0.12 -4.5 0.84 -4.76 -6 -4.34 -1.28 0 -3.42 0.16 -6 0.26a22.14 22.14 0 0 0 -0.94 -2.68c-0.92 -2.18 -3.1 -2.82 -3.2 0.28l0 2.52c-6.52 0.2 -14.68 0.38 -21.38 0.5 -0.4 -1.14 -0.84 -2.22 -1.06 -2.98 -0.72 -2.34 -3.28 -3.46 -3.1 -0.16 0 1.02 0.1 2.12 0.2 3.2l-8 0c-5.04 -0.04 -3.34 2.2 -2.94 3.78 1.84 7.14 1.78 25.52 -0.82 34.44 -2.7 9.3 -0.24 6.02 8.48 7.38Zm4 -41.9a2.22 2.22 0 0 0 2.34 1.42 1.46 1.46 0 0 0 1.42 -1.28c7.86 0.22 15.06 0 21.46 -0.24 0.5 1.24 1.26 2 2.4 1.8s1.36 -0.94 1.48 -2q4.2 -0.18 7.86 -0.24s1.1 1.74 0.46 8.24 2.9 23.4 1.48 35.5c0 0 -8.26 -0.94 -15.22 -1.64s-6 -0.9 -31.3 -5.38c1.46 -6 3.74 -29.02 0 -36.72 2.62 0.26 5.18 0.42 7.7 0.54Z" fill="#471280" stroke-width="1"></path><path d="M157.64 57.68a26.64 26.64 0 0 1 4.6 0.34A36.9 36.9 0 0 1 170 58a19.7 19.7 0 0 0 7.22 -0.36c2.22 -0.22 1.72 -2.48 0.34 -2.66s-1.76 0.68 -4.88 0a86.18 86.18 0 0 0 -14.46 -0.22c-2.38 0.38 -3.28 3.04 -0.58 2.92Z" fill="#471280" stroke-width="1"></path><path d="M177.58 61.78a52.36 52.36 0 0 1 -6.8 -0.16c-3.3 0 -9.62 0 -12 0.14s-2.3 2 0 2.14 12.16 -0.48 13.84 -0.2a10.68 10.68 0 0 0 5.38 0.3c1.62 -0.7 1.54 -2.58 -0.42 -2.22Z" fill="#471280" stroke-width="1"></path><path d="M161.8 68c-3.02 0.18 -3.34 2.48 0 2.92a143.62 143.62 0 0 0 18.68 0.62c3.08 -0.36 2.54 -2.7 -1.7 -2.94S165 67.88 161.8 68Z" fill="#471280" stroke-width="1"></path><path d="M219.64 91.54a101.84 101.84 0 0 0 23.12 -1.32c7.22 -1.36 13 1.64 16.14 0s2 -6.84 0.28 -15.06 -2.92 -20.4 -3.82 -26.78 -1.74 -6 -6.64 -6.6c-1.8 -0.22 -3.86 -0.38 -6 -0.46 -0.32 -0.96 -0.66 -1.76 -0.82 -2.2 -0.66 -1.68 -2.64 -3.02 -2.98 -0.32a13.86 13.86 0 0 0 0 2.4c-5.62 -0.1 -11.64 0 -16.3 0.32l-0.56 -1.38c-0.92 -2.42 -2.66 -2.62 -2.66 0l0 1.56 -2.6 0.2c-6.22 0.54 -8.2 -1.14 -8.7 6.9a294.62 294.62 0 0 0 1.2 34.22c0.82 7.4 3.4 7.88 10.34 8.52Zm-7.52 -45.72c0.16 -0.64 3.52 -0.94 7.7 -1.02 0.5 2.66 1.5 5.18 3.38 5.02s1.42 -2.58 0.62 -5.04c2.88 0 5.78 0.1 8 0.22s5.12 0.12 7.78 0.12c0.52 1.6 1.26 2.8 2.16 2.72 1.4 -0.14 1.78 -1.28 1.7 -2.74 3.62 0 6.44 0.12 6.82 0.72 0.8 1.16 1 9.3 2.32 18.44s2 17.02 3.22 19.86c0.66 1.56 -0.74 3.78 -3.84 2.94s-18.28 -0.2 -27.16 0.26 -12.22 1.26 -12.24 -2.46 -2.74 -30.2 -0.46 -39.04Z" fill="#471280" stroke-width="1"></path><path d="M221.54 60.76c2.8 0 20.52 -1.02 23.82 -1.4s3.54 -3.88 -0.2 -3.5 -21.02 1.76 -24 2.58 -2.42 2.28 0.38 2.32Z" fill="#471280" stroke-width="1"></path><path d="M240.94 64.56a162 162 0 0 0 -18.66 1c-1.7 0.32 -2.98 2 0.24 2s17.44 0 20.14 -0.54 1.2 -2.24 -1.72 -2.46Z" fill="#471280" stroke-width="1"></path><path d="M240.94 72.66c-4 0.26 -15.06 0.9 -17.14 1.26 -3.08 0.54 -1.66 1.7 0.34 1.88s15.38 -0.3 17.86 -0.18 3 -3.2 -1.06 -2.96Z" fill="#471280" stroke-width="1"></path><path d="M275.1 182.22a106.9 106.9 0 0 1 19.84 0.7c5.8 0.94 20 0.1 25.48 0.68s8.52 0.92 10.3 -0.9 0.88 -14 0.54 -19.18 -0.4 -22.38 -0.84 -27.58S330 104.2 330 100s-1.1 -32.38 -1.38 -35.58 0.5 -8.58 -0.96 -9.9 -7.62 -1.16 -11.8 -1.56 -12 -0.16 -17.68 -0.46a175.72 175.72 0 0 0 -23.3 1.4c-2 0.4 -1.44 2.66 -1.44 6.34s-0.44 24.7 -0.76 31.46 -1.32 32.28 -1.32 39.12 0.56 23.48 0.26 29.58 0 13.74 -0.28 16.9 0.88 5.28 3.76 4.92Zm0.42 -61.76c0 -5.84 0.84 -40.14 0.84 -48.14s-0.36 -15.76 0.64 -15.9c12 -1.86 38.82 -0.9 48.34 0 2 6.84 1.32 37.58 1.02 46s0.7 31.82 0.68 36.46 0.44 32.88 1.24 36.56 0.48 4.34 -1.14 4.7a107.08 107.08 0 0 1 -14.76 -0.18c-8.52 -0.32 -31.18 -1.28 -37.28 -1.12 0 0 0.88 -20.6 0.96 -26.14s-0.54 -26.42 -0.54 -32.24Z" fill="#471280" stroke-width="1"></path><path d="M281.1 106.22c0 10.74 -0.88 34.7 -0.92 39.78s-0.34 24.8 1.44 26.82 38.24 1.36 40.38 0 0.82 -20.42 0.84 -25.2 -0.84 -46.92 -0.84 -51.8 -0.28 -21.06 -0.4 -26.42 -0.88 -7.58 -3.5 -8 -32.9 -1.64 -36 0.68c-2.16 1.6 -2 12.2 -2 17.86s0.98 15.56 1 26.28Zm2 -41.56a1.04 1.04 0 0 1 0.32 -0.72 0.96 0.96 0 0 1 0.74 -0.28c3.68 0.12 32.16 0.64 33.44 0.32 0.8 1.18 1.84 27.04 2.22 34.46s0.28 31.64 0 39.38 1.12 32 -0.84 33.14 -34.7 0.66 -35.5 -0.62 -0.5 -40 -0.2 -46.96 0.22 -24.5 -0.24 -28.92 -0.04 -20.62 0.12 -29.8Z" fill="#471280" stroke-width="1"></path><path d="M108.34 209.32c1.86 1.22 13.5 1.86 20.94 1.4s28.48 0.28 36.68 0.28 35.1 0 41.34 0.46 12.94 0.66 15.46 -1.58 2 -23.56 2 -29.04 -0.38 -24.5 -1.3 -30.64 0.28 -9.68 -2 -11.72 -19.2 -1.8 -31.44 -1.58 -26.6 0.8 -36.72 0.46 -24.36 -1.24 -31.76 -1.36 -12.86 -0.56 -14.46 0.68 -1.14 9.08 -0.44 13.52 -0.82 32 -1.56 42 1.4 15.92 3.26 17.12Zm1 -45.58a128 128 0 0 0 -0.84 -25.3c8.74 0 42.12 1.38 50.54 1.38s33.74 0.14 41.48 0.24 16.44 0 18 0.4c2.16 3.28 3.48 33.54 3.3 37.54 -0.4 7.62 -0.3 29.42 -2.28 30.42s-31.02 -0.5 -39.54 -0.5 -38 0 -44.98 0.4 -22.6 0.5 -24.98 -0.7 -1.88 -4 -2.38 -10.8 0.8 -24.94 1.68 -33.08Z" fill="#471280" stroke-width="1"></path><path d="M127.34 175.12a34.46 34.46 0 0 1 8.38 5.64c1.48 1.72 4.72 5.06 6.74 5.1s2.94 -2.52 4 -3.44 1.24 -3.28 -0.34 -2.62 -2.62 3.14 -3.34 3.06a62.76 62.76 0 0 1 -7 -5.64 76.68 76.68 0 0 0 -6.86 -4.58c-0.44 -0.32 0 -1.08 0.46 -1.62s5.82 -7.76 7.82 -10.86 6 -8.5 6.4 -9.3 1.1 -1.1 2.28 0a72 72 0 0 0 10.6 6c1.42 0.48 1.38 1.08 0.72 1.7a6.38 6.38 0 0 0 -1.2 2.52c-0.18 0.48 2 0.74 2.22 0a15.46 15.46 0 0 0 1.8 -3.62c0.3 -1.5 -4.94 -4.56 -8.32 -6.38a86.46 86.46 0 0 0 -7.86 -3.64c-0.56 -0.24 -0.5 0.58 -1.38 1.6s-4.46 5.62 -7.44 9.68 -8.22 11.5 -9.22 13.28 -0.04 2.56 1.54 3.12Z" fill="#471280" stroke-width="1"></path><path d="M148.96 179.42c1.08 7.6 5.66 12.84 14.86 12.2s12.58 -8.94 10.82 -16.98 -6.64 -11.22 -13.72 -11.52c-8.14 -0.38 -12.92 8.68 -11.96 16.3Zm12 -13.6c6.94 0 9.68 5.16 11.32 10.46a10 10 0 0 1 -8.36 12.9c-6.68 0.62 -12 -3.22 -12.46 -11.66a10.58 10.58 0 0 1 9.46 -11.7Z" fill="#471280" stroke-width="1"></path><path d="M178 167.82c1.42 -1.76 6.32 -6 6.64 -6.28s0.98 0 1.04 0.4 2 8.98 2.8 11.7 2.56 9.86 2.84 10.36 -0.24 0.76 -0.8 0.74a99.18 99.18 0 0 0 -14 1.04c-2.28 0.74 -3.34 2.76 -0.72 2.88s14.76 -1.1 17.12 -1.26 1.82 -2.98 1.04 -5.28 -5.32 -16.96 -6 -19.78 -0.52 -4.64 -1.82 -4.74 -2.2 0.36 -3.44 2 -5.3 5.36 -6.52 6.76 0.38 3.22 1.82 1.46Z" fill="#471280" stroke-width="1"></path><path d="M119 235.24c-2.12 -2.12 -6.82 -7.26 -8.16 -8.16a2.72 2.72 0 0 0 -2.96 -0.44 1.42 1.42 0 0 0 -0.22 2.38c0.96 1.04 1.5 2.12 2.46 3.28s6.42 9.48 7.5 11.14a98.48 98.48 0 0 0 7.66 10c1.44 1.28 4 2.64 5.22 1.64a2.78 2.78 0 0 0 0.34 -4.2c-1.22 -1.44 -9.74 -13.54 -11.84 -15.64Zm8.44 17.62a150.36 150.36 0 0 1 -10.92 -13.38c-2.26 -3.28 -6.6 -9.28 -7.14 -10.18s0.14 -1.04 0.84 -0.44A150.66 150.66 0 0 1 122 241.88c3.1 4.2 6.44 8.46 7.36 10.16s-0.28 2.3 -1.92 0.82Z" fill="#471280" stroke-width="1"></path><path d="M356.12 261.04a177.22 177.22 0 0 1 -9.8 -24.84c-1.54 -6 -3.78 -14 -8 -17.1s-17.52 -4 -25.86 -4.32c-7.62 -0.34 -38.82 -0.44 -44.28 -0.46a64.4 64.4 0 0 0 3.52 -10.4c0.94 -4 1.4 -5.42 0.84 -7.06a11.8 11.8 0 0 0 -5.04 -6l0 -2.18c0.14 -2 -0.96 -6 -2.58 -2.14a17.44 17.44 0 0 0 -0.86 2.68 16 16 0 0 0 -2 -0.6 38.48 38.48 0 0 0 -0.58 -6c-0.8 -4 -2.76 -4.84 -3.06 -0.48 -0.1 1.62 -0.12 3.68 0 5.86l-2 0c-0.56 -2.76 -1.08 -5.22 -1.32 -6 -0.66 -2.3 -3 -2 -2.8 0 0 0.94 0.16 3.64 0.26 6.66a9.52 9.52 0 0 0 -7.24 9.06c-0.14 3.12 -0.5 9.02 -0.24 14l-16.36 -0.5a49.84 49.84 0 0 0 2.8 -8.8c1.66 -6.88 2 -19.18 1.66 -30.48 3.52 0.16 14.72 0.56 17.86 0.76 3.7 0.26 4.46 0.1 4.72 -2.6s0.7 -18.36 0.9 -24.6 0.42 -32.38 0.48 -35.74 0.36 -5.24 -2.8 -5.34 -14.6 0 -27.66 -0.74 -38.68 -2.06 -53.16 -1.68 -40.56 0.56 -41.86 2.6 -2.68 16 -2.22 22.14l-11.02 0c0.12 -5.78 0.82 -46.36 0.62 -54 -0.22 -7.12 0.4 -18.3 0.3 -26.2A4.36 4.36 0 0 0 116 42.3c-13.4 -3.02 -34.7 -4.68 -62.6 -2.44a5.8 5.8 0 0 0 -5.4 6.36c1.4 13.58 0.18 36.46 0.88 45.1s1.38 31.2 1.34 40.5a3.74 3.74 0 0 0 3.78 3.74c17.58 0.28 38.12 2.4 42.52 2.88a92.8 92.8 0 0 0 -0.64 13.42c0 18.44 -1.16 34.38 0.22 46a40.5 40.5 0 0 0 3.18 13.58c-6.68 0.22 -26.94 0.88 -32.88 1.04 -7.14 0.18 -8.96 0.86 -14.46 8.86s-19.56 29.88 -20.8 33.88 -0.22 10.66 0 12.8 2 3.24 5 3.64a298.42 298.42 0 0 0 30.54 2c-9.2 22.72 -34.28 87.8 -35.72 90.66s-0.42 4.22 3.1 6.2 6.2 -0.96 7.48 -2.84 16.58 -25.12 21.2 -35.78c4 -9.4 23.68 -49.82 28.2 -59.16l6.64 -0.16 -15.06 29.12c-5.34 10.32 -7.84 16.5 -8.44 19.46s0.48 3.32 2.62 4 4.86 0.84 6.28 -0.6 30 -38.32 33.72 -42.12c2.74 -2.84 6.74 -7.72 8.58 -10l5.66 0.1c13.32 0.26 35.84 -0.62 50.24 0.58 13.1 1.08 52.84 0.64 80.4 0.72 8.86 16.14 33.1 51.5 35.2 53.38s4.32 3.54 6.86 2.54 4.84 -1.66 6.62 -2.42 1.86 -4.42 -0.22 -8.4c-1.8 -3.38 -19 -35.9 -24 -45.26 5 -0.16 10 -0.38 14.94 -0.62 5.64 20.42 18.82 56.42 22 67.42 3.28 11.38 10.2 36.9 11.28 40s2.12 3.36 4.4 2.74a66.48 66.48 0 0 0 7.1 -2.82c1.74 -0.68 2 -1.36 1.36 -4.8s-14 -84 -16.44 -104c5.38 -0.22 9.86 -0.3 12.98 -0.12 12.54 0.74 11.58 0.56 13.22 -1.76s1.32 -4.72 -0.76 -8.68ZM269.28 196c0.18 0.22 0.24 0.4 0 0.6a5.46 5.46 0 0 1 -1.6 0.54c0 -0.8 -0.1 -2 -0.14 -3.1a23.6 23.6 0 0 1 1.74 1.96Zm-4 -7.12c0.14 -0.94 0.8 -1.24 0.8 -0.38s0.14 6.38 0.2 8.9l-1.78 0.28a40.86 40.86 0 0 1 0.84 -8.84Zm-5.86 -3.22a15.18 15.18 0 0 1 0.28 -4.76 9.04 9.04 0 0 1 1.14 4.76l0 10c0 1.56 1.02 2 1.2 0.82a54.42 54.42 0 0 0 0.14 -5.88 11.68 11.68 0 0 1 1.46 0.58 44 44 0 0 0 -0.54 6.66c-0.84 0 -1.74 0 -2.68 0.12a93.1 93.1 0 0 1 -0.94 -12.34Zm-0.92 4.34c0.1 2.8 0.32 5.62 0.56 7.8l-0.76 0c-0.26 -1.48 -0.84 -4.56 -1.46 -7.64 0.54 -0.02 1.16 -0.06 1.66 -0.16Zm-3.86 -5.38a109.44 109.44 0 0 1 2.26 13.02c-0.74 0 -1.48 -0.16 -2.2 -0.28 -0.18 -3 -0.72 -11.32 -0.76 -12.24s0.06 -1.82 0.7 -0.42Zm-2 6.68c0 2 0.18 4.14 0.3 5.74a11.84 11.84 0 0 1 -4.88 -1.66c-0.06 -0.26 1.38 -2.5 4.58 -4Zm-5.1 7.02c5.12 3.34 14.12 4.46 22.34 1.8 -2 10.34 -6.52 19.2 -7.64 20s-5.76 0 -8.12 -0.38a7.48 7.48 0 0 1 -5.32 -4.6 52 52 0 0 1 -1.26 -16.74Zm-104.46 -71.7a81.18 81.18 0 0 0 -1 -11.04s18 0.12 26.32 0 36.74 0 47.66 0.12 24.46 0.12 25.32 0.98c-0.14 2.18 0.26 10.32 0.12 18.62s2.36 25.34 0.5 26.82c-1.44 1.16 -6.88 0 -9.22 -0.58 -0.34 -6.94 -0.78 -12.42 -1.02 -14.36 -0.74 -5.7 0.38 -21.06 -22.32 -20.9Zm-9.28 -20.26c0.72 -0.82 9.18 0 15.02 0s23.58 -1.5 28.72 -1.5 37.78 2.3 43.56 2 26.46 -0.24 29.68 -0.12 3.34 0.5 3.46 3.46 -0.92 27.12 -1.1 32.84 0 25.44 -0.84 26.7 -10.2 0.8 -19.2 -0.12c0 -1.7 0 -3.38 -0.18 -4.98a85.56 85.56 0 0 1 8.96 0.92c3.1 0.62 3.6 -0.76 3.48 -4.72s0.24 -19.36 0 -24.2 -0.38 -20.2 -1.88 -22.24 -24.14 -2.4 -32.18 -2.54 -41.44 1.64 -47.84 1.64 -22 -0.64 -23.38 0 -0.94 8.26 -0.78 13.08l-6.72 0c0.38 -2 1 -5.34 1.3 -8.16 0.46 -4.14 -0.8 -11.26 -0.08 -12.06ZM56 132.3a1.78 1.78 0 0 1 -1.7 -1.8c0.26 -18.3 -2 -28.96 -2.12 -39.18 -0.1 -10.56 0.94 -26.42 0.86 -34.16a47.2 47.2 0 0 0 -1.54 -11.38 1.82 1.82 0 0 1 0.26 -1.5 2 2 0 0 1 1.3 -0.8c26 -3.14 54.7 1.42 61.18 2.56a1.6 1.6 0 0 1 1.32 1.62c-1.54 40.58 1.1 40.72 -0.56 53.52a139.78 139.78 0 0 0 -0.54 25.52l-3.2 0 -2.88 0a185.02 185.02 0 0 1 0.82 -33.58c1.68 -12.44 0.24 -32.88 0 -37.6s-0.3 -7.46 -9.04 -7.18 -30.58 -0.96 -35.02 -1.34 -8.82 -0.78 -7.52 2S58 60 58 69.34s0.42 41.38 0.46 48.9 1.04 8.5 5.48 8.48c8.74 0 26.4 2.88 35.34 4a12.3 12.3 0 0 0 -2.34 4.78c-16.7 -2.06 -35.38 -2.98 -40.94 -3.2Zm46 -3.76c-8.96 -2.54 -21.82 -3.52 -40 -5.3 0 0 -0.42 -5 -0.52 -10.82s-1.12 -23.08 -0.86 -31.8 0.4 -25.14 -0.82 -30.58c0 0 37.12 2.9 45.26 2.1 2 3.64 2.84 23.48 2.32 34 -0.52 10 -2.7 31.18 -1.64 41.08a13.04 13.04 0 0 0 -3.74 1.32Zm-3.52 18.72c0.54 -11.62 1.6 -18 13.26 -17.58s42.58 -0.62 58.86 0 29.34 0.8 39.42 0.74 17 5.34 17.72 17.18 1.22 45.2 1.02 52.74 -1.46 15.56 -16.24 15.54 -90.34 -0.34 -100.18 -1.72 -11.1 -6.38 -12 -17.58 -2.34 -37.56 -1.84 -49.32Zm73.66 82.16a1.5 1.5 0 0 0 2.88 0.16 6.22 6.22 0 0 0 0 -1.52 16.42 16.42 0 0 1 2.28 0.14c0.94 0.14 1.52 0 2 1.32a10.5 10.5 0 0 1 -2.12 7.78c-1.76 1.56 -5.68 1.9 -12.66 2a68.34 68.34 0 0 1 -15.4 -2c-1.26 -0.26 -1.54 -0.68 -2 -2s-1.6 -7.72 -1.14 -8.46 3.26 -0.48 5.28 -0.34a8.66 8.66 0 0 0 0.5 3.08c0.74 1.04 2.74 1.74 3.02 0 0.2 -1.36 -0.62 -7.34 -0.86 -10l17.36 0.24c0.38 2.64 0.72 8.48 0.88 9.6Zm4.82 10.76c0 1.16 -0.2 2.52 -1.72 2.6s-9.06 0.24 -11.36 0.4a62.46 62.46 0 0 1 -12.78 -0.8c-2.98 -0.76 -3.18 -1.64 -3.14 -2.76a124.6 124.6 0 0 0 16.72 1.54c3.32 -0.16 12.3 -0.98 12.3 -0.98Zm-120.6 95.34c-7.74 15.46 -17.8 30.68 -18.98 31.36s-2.94 -0.9 -2.44 -2.22 11.24 -29.3 15.72 -41.02c4.16 -10.82 17.24 -41.76 19.4 -49.82 2 0 4 0 5.9 -0.24 2.96 -0.2 6.38 -0.36 10 -0.5 -9.52 20.72 -22.08 47.42 -29.6 62.44Zm42.74 -36.14c-6 7.02 -16.84 21.48 -18.5 22.32s-3.2 0.96 -1.78 -2.14 18.62 -39.52 21 -44.26l1.3 -2.6c6 0 12.22 -0.12 17.72 0 -5.64 8.1 -14.28 20.38 -19.74 26.68ZM302.72 314c2 3.52 5.42 8.6 4.32 10.14a6.36 6.36 0 0 1 -6.74 1c-1.32 -1.1 -21.08 -30 -25.16 -36.42 -2.82 -4.42 -7 -11.04 -9.32 -14.72l3.66 0c4 0 8 0 12.14 -0.1 4.02 7.82 19.28 37.1 21.1 40.1Zm27.4 -17.8c2.14 13.74 9.1 63.4 10.76 69.7s3.24 10.3 2.22 11.32a6 6 0 0 1 -4.84 1.44c-1.02 -0.52 -8.36 -29.56 -12 -40.38 -3.28 -9.48 -18.68 -54.22 -22.46 -65.24 8.68 -0.44 16.92 -0.94 24 -1.28 0.06 4.46 0.72 14.24 2.32 24.52Zm23.02 -29.56c-2 2.32 -14.4 1.36 -18 1.68s-49.06 0.62 -63.9 0.62 -45.16 1.5 -59.34 1.66 -61.9 -1.92 -76.5 -2.6 -43.82 0.66 -62.32 1.5a270.26 270.26 0 0 1 -37.42 -1.5 2 2 0 0 1 -1.72 -1.66c-0.38 -2.76 -0.8 -6.64 0 -8.64 1.04 -2.38 20.24 -34.12 24 -38.3s8.5 -4 12.96 -4.18 20.76 1.48 26.44 -0.28c1.48 -0.46 2.56 -0.82 3.34 -1.1a14.56 14.56 0 0 0 10.38 4.6c5.22 0.52 22 0.9 40.3 1.18 -0.14 1.3 -0.22 2.88 -0.24 4.38 -1.28 0 -3.62 -0.16 -4.88 -0.14 -1.8 0 -3.82 0.52 -3.76 2.76a95.84 95.84 0 0 0 1.46 10.78c0.36 1.54 1.52 1.36 1.84 1.8a9.4 9.4 0 0 0 1.74 3.76c1.44 1.5 11.14 1.88 15.48 1.8s13.48 -0.34 14.56 -0.92 1 -4 1.84 -4.36 1.6 -1.32 2.62 -4.46a11.16 11.16 0 0 0 -0.62 -9.06c-1.22 -1.62 -4.82 -1 -6.82 -0.78 -0.34 -2 -0.78 -4 -1.14 -5.26 16.74 0.2 31.64 0.32 37.08 0.38 8.42 0.12 13.14 -1.4 16.3 -5.82l18.58 1a8.42 8.42 0 0 0 1.3 3.72c2.56 3.26 12.3 5 15.68 3.56a10.98 10.98 0 0 0 3.88 -4.78c19.52 -0.1 38.46 0.22 46.26 0.32s20.22 1.06 24 3.28 9.62 19.26 11 23.82 7.52 18.98 5.62 21.32Z" fill="#471280" stroke-width="1"></path><path d="M264 213.74c1.48 -1.28 2.3 -5.48 2.16 -8s-2.16 -1.18 -2 0.72a14.5 14.5 0 0 1 -1.5 6c-0.56 1.54 -0.08 2.58 1.34 1.28Z" fill="#471280" stroke-width="1"></path><path d="M301.08 256.1c0 1.44 1.44 1.5 3.28 1.18s24.62 0.12 26 0.22 1.66 -0.54 1.66 -2.76 0 -15.32 -0.68 -21.02 -1.66 -8.46 -2.44 -9.2a6.36 6.36 0 0 0 -1.84 -0.28 8.42 8.42 0 0 0 -0.18 -0.98c-0.34 -1.58 -1 -1.34 -1.26 0.2 0 0.26 0 0.5 -0.1 0.7l-1.56 0a10.64 10.64 0 0 0 -0.26 -1.18c-0.42 -1.62 -1.76 -1.28 -1.84 0.46l0 0.68 -2.22 0a10.16 10.16 0 0 0 -0.3 -1.04c-0.5 -1.42 -1.58 -1.26 -1.74 0.12a6.74 6.74 0 0 0 0 0.88l-1.6 0a7.46 7.46 0 0 0 -0.34 -1.28c-0.5 -1.3 -1.58 -1.34 -1.78 0.4l0 0.86 -2.36 0c0 -0.4 -0.1 -0.8 -0.14 -1.14 -0.12 -1.22 -1.22 -1.42 -1.34 0l0 1.06 -1.48 0c-0.18 -0.66 -0.34 -1.28 -0.4 -1.6 -0.14 -1.06 -1.42 -1.2 -1.36 0l0 1.66 -0.8 0a11.86 11.86 0 0 0 -0.16 -1.52c-0.16 -0.96 -1.68 -1.2 -1.7 0l0 1.44 -2.32 0c-0.88 0 -1.3 -0.42 -1.58 1.38a120.82 120.82 0 0 0 -0.44 17.62c0.3 7.6 1.24 11.72 1.28 13.14Zm28.18 -1.06a53.34 53.34 0 0 1 -9.66 0.34c-4.16 -0.12 -16 0.32 -16.24 0a4.38 4.38 0 0 1 0.12 -2.7c0.56 -0.4 14 0.78 16.86 0.64a75.26 75.26 0 0 1 9.18 -0.16c0.58 0.26 0.08 1.62 -0.26 1.88Zm-26.34 -28.92a6.66 6.66 0 0 1 1.3 -0.14l0 0.6c0.16 1.56 1.7 1.14 1.72 0l0 -0.58 0.88 0c0.2 0.8 0.6 1.38 1.36 1.28s0.58 -0.58 0.54 -1.28l1.06 0 0 0.82c0.12 1.38 1.9 1.34 1.84 0.22l0 -1.06 2.22 0a10 10 0 0 0 0.28 1.3c0.32 1.24 1.72 1.58 2 0.28a10 10 0 0 0 0 -1.6l1.5 0a4.3 4.3 0 0 0 0.26 0.94c0.32 0.88 1.24 1.58 1.68 0.28a4.26 4.26 0 0 0 0.24 -1.2l2.14 0c0 0.36 0.14 0.74 0.24 1.16a0.924 0.924 0 0 0 1.84 -0.18l0 -0.92 1.4 0c0 0.26 0 0.56 0.12 0.88a0.82 0.82 0 0 0 1.62 0.12l0 -0.82c0.26 0 0.42 0.1 0.42 0.18 0 0.54 0.98 10.76 1.18 13.7s1.22 10.56 0.62 11.08 -10.14 0 -13.64 0 -12 0 -12.34 -0.72a53.1 53.1 0 0 1 -0.66 -10.66c0.16 -4.1 -0.74 -13.3 0.18 -13.68Z" fill="#471280" stroke-width="1"></path><path d="M346.76 263.3c-2.78 0 -33 0 -41.48 0.24s-24.54 0.88 -26.88 1.02c-1.84 0.12 -2.28 1.82 0.1 1.72s29.74 -0.64 39.52 -0.64 25.7 -0.26 29.26 0 2.24 -2.42 -0.52 -2.34Z" fill="#471280" stroke-width="1"></path><path d="M284.18 249.52c-0.92 -6.38 -6 -14.44 -10.2 -14.38s-8.96 10.44 -8.66 17.2 3.88 10 10.56 9.58 9.22 -5.92 8.3 -12.4Zm-10.2 -11.78c3.14 0 7.12 8 7.08 11.26s-2.16 7.02 -6.18 7.06a6.62 6.62 0 0 1 -6.6 -6.7c-0.16 -3.36 2.82 -11.62 5.72 -11.62Zm-6 20c-1.34 -1.18 0.14 -1.4 1.12 -0.5a8.5 8.5 0 0 0 11.5 -0.94c1.66 -2 2.24 -0.48 1.44 0.58a9.34 9.34 0 0 1 -14.04 0.9Z" fill="#471280" stroke-width="1"></path><path d="M274.66 243.24a15.86 15.86 0 0 0 0 -2.18c0 -1 -2 -1.6 -2 0.28a5.16 5.16 0 0 1 -0.14 2c-0.2 1.18 2.12 0.86 2.14 -0.1Z" fill="#471280" stroke-width="1"></path><path d="M271.38 250.32c2.32 -0.38 3.22 -1.06 5.54 0.22 0.96 0.52 1.56 -0.3 0.84 -1.36a5.68 5.68 0 0 0 -7 -0.4 0.88 0.88 0 0 0 0.62 1.54Z" fill="#471280" stroke-width="1"></path><path d="M203.16 258c4 0.46 18.82 1.26 25 1.36s18.64 0.28 21.62 -2 5.1 -20.94 3.38 -23.68c-1.06 -1.7 -51.14 -2.48 -54.96 0 -1.46 0.92 -2 10.16 -0.96 16s1.92 7.8 5.92 8.32Zm-2.22 -6.42A6.92 6.92 0 0 1 200 248l4.24 0c0.1 0.94 0.16 1.7 0.18 2 0 1.64 1.44 2.4 1.48 1.12 0 -0.38 0 -1.6 -0.12 -3.16l4.24 0c0.14 1.4 0.26 2.5 0.3 2.84 0.14 1.22 1.38 1.22 1.2 -0.12 0 -0.34 -0.14 -1.38 -0.24 -2.7l4 0 0 5.12c-6.58 0.28 -13.18 -0.22 -14.34 -1.58Zm4.4 -9.42c0 -1.16 -0.12 -2.18 -0.16 -2.88l3.82 0c0 0.66 0.18 1.68 0.3 2.84Zm4.12 1.74c0.12 1.04 0.22 2 0.32 3.08l-4.16 0c0 -0.98 -0.12 -2 -0.18 -3.06Zm1.26 -1.66c0 -1.18 -0.16 -2.18 -0.2 -2.82l4.62 0.12 0 2.76Zm4.48 1.78 0 3.02 -4.18 0c0 -0.98 -0.14 -2 -0.22 -3.06Zm33.12 12.24c-1.76 0.8 -8.18 1.74 -20.4 1.74a209 209 0 0 1 -26 -1.64c-0.88 -0.28 -0.88 -1.68 -0.88 -1.68s10.14 1.2 18.52 1.3 26.44 -0.3 28.36 -0.72 2.08 0.14 0.4 0.94Zm-31.3 -9.22 -0.26 -2.98 5.8 0.12 0.18 2.8Zm5.82 1.54 0.32 4.96 -5.58 0 -0.44 -5.1Zm-6.24 -6.28 -0.24 -2.72 6 0.16 0.16 2.6Zm8.8 4.6 -1.06 0 -0.3 -2.72 6 0c0 0.78 0 1.58 0.16 2.32l0 0.2Zm5 1.74c0.24 1.72 0.54 3.5 0.74 4.66 -1.52 0 -2.94 0 -4.2 0.12l-2 0 -0.5 -4.86c1.92 0.02 3.92 0.04 5.96 0.02Zm-0.46 -6.32 -6 0 -0.28 -2.58 6.36 0.14c-0.02 0.52 -0.02 1.4 -0.02 2.38Zm7.3 1.72c0 0.8 0.12 1.64 0.16 2.48l-5.6 0.18a10.24 10.24 0 0 1 -0.14 -1.8l0 -0.7c1.88 -0.08 3.76 -0.2 5.58 -0.2Zm-5.54 -1.74 0 -2.38 5.06 0c0 0.62 0.18 1.42 0.26 2.32Zm5.78 6.28a42 42 0 0 1 0 4.62l-4.28 0a72.13 72.13 0 0 1 -1.06 -4.62Zm1.3 -2.1c-0.12 -0.84 -0.22 -1.68 -0.3 -2.48l6.86 -0.34c0.14 0.86 0.24 1.76 0.3 2.62Zm6.92 2c0 1.76 0 3.32 0.1 4.28 -1.54 0.22 -3.5 0.36 -5.62 0.44a26.9 26.9 0 0 1 -1.08 -4.58Zm-7.4 -6.22c0 -0.92 -0.1 -1.72 0 -2.32l6.48 0c0.1 0.5 0.24 1.24 0.38 2Zm10.64 9.42a3.16 3.16 0 0 1 -1.48 0.74l0 -4 2.58 0a7.84 7.84 0 0 1 -1.1 3.14Zm1.36 -5.48 -2.98 0 0 -1.3c0 -0.4 -0.12 -0.92 -0.2 -1.36l3.56 -0.24c-0.18 0.9 -0.26 1.86 -0.38 2.7Zm0.4 -4.42c-0.92 0 -2.26 0.14 -4 0.2 -0.18 -0.76 -0.36 -1.44 -0.52 -2 1.76 0 3.36 0.14 4.62 0.28 -0.04 0.4 -0.08 0.9 -0.1 1.4Zm-50.9 -6.38s6 -0.5 12 -0.52c6.62 0 21.6 0.26 39.1 1.24l0 1.62 -51.12 0c0 -0.9 0.02 -1.74 0.02 -2.34Zm0 3.66 3.54 0c0 0.64 0.16 1.68 0.3 2.9l-4 0c0.04 -1 0.06 -1.96 0.08 -2.9Zm4 4.68c0 1.02 0.2 2 0.3 3.04l-4.26 -0.18 0 -2.94Z" fill="#471280" stroke-width="1"></path><path d="M260 265.34c-4.34 -0.12 -46.22 -2.12 -59.54 -2.66 -11.4 -0.46 -49.18 -2 -60.38 -0.54 -3.66 0.48 -2.3 2.56 0.68 2.46s17.02 0 33.1 0 55.84 1.72 67.88 2.86a114 114 0 0 0 19.2 -0.42c2.38 -0.24 3.3 -1.6 -0.94 -1.7Z" fill="#471280" stroke-width="1"></path><path d="M128.22 262.44c-2.84 -0.5 -20.86 -0.4 -31.38 -0.5s-28.34 -0.2 -34.18 -0.88a169.02 169.02 0 0 0 -20.54 -0.58c-3.5 0.16 -2.74 2.14 -0.5 2.54s7.22 -0.4 13.06 -0.58 19.08 2 29.7 1.74 34.88 0 40.42 0.78 6.24 -2.04 3.42 -2.52Z" fill="#471280" stroke-width="1"></path><path d="M78.22 250.76a0.84 0.84 0 0 0 0 1.68 0.84 0.84 0 0 0 0 -1.68Z" fill="#471280" stroke-width="1"></path><path d="M59.74 256.98a134.2 134.2 0 0 0 16.3 1.38c5.08 0 14.86 0.2 18.62 0a5 5 0 0 0 5.54 -4.3c0.6 -2.4 1.38 -11.02 1.76 -14.6s1.12 -11.2 0.34 -13.88a7.5 7.5 0 0 0 -7.3 -5.54c-4.38 -0.18 -19.2 -0.9 -22.24 -0.78s-6.1 0.22 -7.02 2.58 -7.36 20 -8.36 23.52 -0.84 5.3 0.26 6.58c-0.64 2.26 0.86 4.86 2.1 5.04ZM96.8 256c-2.4 1.04 -7.62 0.86 -14 0.76s-20.86 -0.6 -22.26 -1.38 -1.26 -1.72 0.68 -1.3a88.52 88.52 0 0 0 12.52 1.08c3.78 0 20.48 -0.28 22.5 -0.54s2 -2 2.4 -1.8 0.56 2.18 -1.84 3.18Zm-37.14 -8c1.16 -3.56 6.7 -22.42 7.06 -23.88s0.48 -2.18 2 -2.18c3.14 0 4.58 -0.7 26.34 0.36 3 0.14 3.58 2.48 4.44 5.82s-0.42 13.48 -1.02 17.12 0.6 7.5 -4.14 8 -26.28 0 -29.12 -0.86 -6.74 -0.72 -5.56 -4.28Z" fill="#471280" stroke-width="1"></path><path d="M62.52 249.32c1.32 1.12 10.28 1.14 12.6 0.98s15.42 0.34 17.76 0.28 3.64 -1.2 3.46 -3.28c-0.22 -2.72 2.9 -20.92 0 -22.3 -1.44 -0.68 -7.82 -0.36 -11.28 -0.68s-14 -0.56 -15.18 -0.42 -0.78 0.16 -1.28 2.14 -4.18 11.5 -5.2 14.62 -2.18 7.54 -0.88 8.66Zm3.7 -14c0.66 -2.32 2.4 -6.6 3.18 -8.82a0.96 0.96 0 0 1 0.92 -0.66c4 0 23.28 0.18 24.24 0.58s1.36 3.02 1.32 5.64a158.6 158.6 0 0 1 -1.68 16.42c-0.44 1.14 -1.34 0.28 -4.24 0.38s-15.7 0.26 -18.68 0.18 -7.22 -0.5 -8 -1.28 2.22 -9.9 2.94 -12.46Z" fill="#471280" stroke-width="1"></path></g></g></g></svg>