<svg viewBox="0 0 400 400" xmlns="http://www.w3.org/2000/svg" height="400" width="400"><g><path d="M44.06 200a160 160 0 1 0 320 0 160 160 0 1 0 -320 0Z" fill="#e8f4fa" stroke="#daedf7" stroke-width="4"></path><path d="M35.936 268.856a64.828 64.828 0 1 0 129.656 0 64.828 64.828 0 1 0 -129.656 0Z" fill="#ff6242" stroke-width="1"></path><path d="M100.768 223.064a64.84 64.84 0 0 1 64.128 55.312 64.828 64.828 0 1 0 -128.26 0 64.836 64.836 0 0 1 64.132 -55.312Z" fill="#ff866e" stroke-width="1"></path><path d="M35.936 268.856a64.828 64.828 0 1 0 129.656 0 64.828 64.828 0 1 0 -129.656 0Z" fill="none" stroke="#45413c" stroke-linecap="round" stroke-linejoin="round" stroke-width="4"></path><path d="M78.512 256.708a7.292 7.292 0 1 0 14.584 0 7.292 7.292 0 1 0 -14.584 0Z" fill="#45413c" stroke-width="1"></path><path d="M127.884 256.708a7.292 7.292 0 1 0 14.584 0 7.292 7.292 0 1 0 -14.584 0Z" fill="#45413c" stroke-width="1"></path><path d="M87.668 307.336a22.824 22.824 0 0 1 45.644 0Z" fill="#ffa694" stroke="#45413c" stroke-linecap="round" stroke-linejoin="round" stroke-width="4"></path><path d="M227.608 256.268a64.828 64.828 0 1 0 129.656 0 64.828 64.828 0 1 0 -129.656 0Z" fill="#ffe500" stroke-width="1"></path><path d="M292.436 210.476a64.84 64.84 0 0 1 64.128 55.308 64.828 64.828 0 1 0 -128.26 0 64.836 64.836 0 0 1 64.132 -55.308Z" fill="#fff48c" stroke-width="1"></path><path d="M227.608 256.268a64.828 64.828 0 1 0 129.656 0 64.828 64.828 0 1 0 -129.656 0Z" fill="none" stroke="#45413c" stroke-linecap="round" stroke-linejoin="round" stroke-width="4"></path><path d="M300.104 244.116a7.292 7.292 0 1 0 14.584 0 7.292 7.292 0 1 0 -14.584 0Z" fill="#45413c" stroke-width="1"></path><path d="M250.732 244.116a7.292 7.292 0 1 0 14.584 0 7.292 7.292 0 1 0 -14.584 0Z" fill="#45413c" stroke-width="1"></path><path d="M305.532 271.924a22.824 22.824 0 1 1 -45.644 0Z" fill="#ffa694" stroke="#45413c" stroke-linecap="round" stroke-linejoin="round" stroke-width="4"></path><path d="m158.34 168.628 -26.14 26.14a6.068 6.068 0 0 1 -10.356 -4.288l0 -21.852 -27.128 0a14.596 14.596 0 0 1 -14.596 -14.596l0 -75.432A14.596 14.596 0 0 1 94.716 64l109.744 0a14.6 14.6 0 0 1 14.596 14.6l0 75.432a14.596 14.596 0 0 1 -14.596 14.596Z" fill="#ffffff" stroke="#45413c" stroke-linecap="round" stroke-linejoin="round" stroke-width="4"></path><path d="M180.512 138.512a4.864 4.864 0 0 0 0 -6.872l-13.744 -13.744a2.424 2.424 0 0 1 0 -3.436l13.744 -13.744a4.864 4.864 0 0 0 0 -6.872l-8.592 -8.592a4.864 4.864 0 0 0 -6.872 0l-13.744 13.744a2.424 2.424 0 0 1 -3.436 0l-13.744 -13.744a4.864 4.864 0 0 0 -6.872 0l-8.588 8.592a4.864 4.864 0 0 0 0 6.872L132.4 114.46a2.432 2.432 0 0 1 0 3.436l-13.736 13.744a4.864 4.864 0 0 0 0 6.872l8.588 8.588a4.864 4.864 0 0 0 6.872 0l13.744 -13.744a2.432 2.432 0 0 1 3.436 0l13.744 13.744a4.864 4.864 0 0 0 6.872 0Z" fill="#ff6242" stroke="#e04122" stroke-linecap="round" stroke-linejoin="round" stroke-width="4"></path><path d="m231.144 156.2 25.908 25.908a6 6 0 0 0 10.26 -4.252l0 -21.656 46 0a14.464 14.464 0 0 0 14.464 -14.468l0 -74.756a14.464 14.464 0 0 0 -14.464 -14.468l-108.772 0a14.468 14.468 0 0 0 -14.468 14.468l0 74.756A14.468 14.468 0 0 0 204.54 156.2Z" fill="#ffffff" stroke="#45413c" stroke-linecap="round" stroke-linejoin="round" stroke-width="4"></path><path d="M297.3 91.172a5.896 5.896 0 0 0 0.8 -8.296l-6.552 -7.964a5.896 5.896 0 0 0 -8.296 -0.8L245.712 105l-8.42 -10.24a5.892 5.892 0 0 0 -8.292 -0.8l-7.964 6.552a5.896 5.896 0 0 0 -0.8 8.296l8.428 10.24 10.296 12.512a5.892 5.892 0 0 0 8.292 0.8l12.516 -10.296Z" fill="#6dd627" stroke="#46b000" stroke-linecap="round" stroke-linejoin="round" stroke-width="4"></path></g></svg>