<svg viewBox="0 0 400 400" xmlns="http://www.w3.org/2000/svg" height="400" width="400"><g><path d="M186.88 208.634c0 139.644 0.6 133.472 -1.4 139.05a22.612 22.612 0 0 1 -6.954 10.342 31.442 31.442 0 0 1 -12.6 6.916c-1.068 0.248 -57.974 10.36 -115.74 18.442 -21.732 3.042 -36.114 1.962 -34.424 -26.71 0.012 -0.2 -5.45 -263.822 -5.46 -264.024a519.724 519.724 0 0 1 1.518 -58.624C12.9 22 22.8 17.2 34.642 15.442c9.834 -1.456 118.578 17.776 131.322 23.116a25.704 25.704 0 0 1 10.96 9.866c10.352 14.988 7.37 35.656 7.534 48.682 0.266 21 0.308 -3.026 2.756 111.502a1.292 1.292 0 0 1 -0.334 0.026ZM19.212 344.22c0.094 21.754 -4.034 38.722 20.748 36.704 30.736 -2.502 94.35 -14.948 116.564 -16.96 15.762 -1.428 28.744 -9.812 28.6 -25.384 -1.128 -125.328 0.4 -98.074 -1.816 -206.716 -0.272 -13.38 -0.642 -26.762 -0.888 -40.142 -0.312 -17 1.952 -29.214 -7.328 -42.874 -6.36 -9.358 -15.988 -11.79 -31.116 -14.088C81.942 25.336 48.894 17.57 37.4 18.584c-8.2 0.724 -21.926 5.816 -22.6 13.458 -4 44.968 4.4 309.032 4.412 312.178Z" fill="#043f6d" stroke-width="1"></path><path d="M212.676 208.028c3.822 -136.668 2.66 -88.374 2.576 -127.562 -0.034 -15.096 3.376 -32.148 16.046 -40.324 11.258 -7.262 124.416 -26 134 -24.7 9.508 1.296 21.082 5.934 22.344 15.4 0.718 5.4 1.43 10.818 1.622 16.254 1.836 52.034 -0.266 44.928 -0.502 60.8 -0.2 13 0.39 61.138 -0.6 103.956 -0.92 39.6 -3.488 106.324 -4.16 132.778 -0.2 8.112 1.562 15.528 -1.146 27.174 -2.062 8.872 -8.95 13.13 -17.694 12.814a329.8 329.8 0 0 1 -39.55 -4.662c-52.018 -8.22 -8.412 -0.942 -65.85 -10.688 -25.624 -4.35 -26.136 -3.726 -32.376 -7.136a25.176 25.176 0 0 1 -13.896 -18.892c-0.332 -2.2 -0.232 7.534 -0.232 -135.188 -0.21 -0.01 -0.39 -0.01 -0.582 -0.024Zm172.65 -6.684a1.504 1.504 0 0 1 -0.232 -0.012c0.18 -12.518 0.53 -25.024 0.502 -37.542 -0.222 -103.92 2.634 -52 -0.05 -129.056a12.222 12.222 0 0 0 -6.04 -10.4 37.4 37.4 0 0 0 -26 -5.576c-15.512 1.8 -36.054 5.81 -58.174 9.6 -40.978 7.036 -45.558 6.678 -54.656 9.878 -10.4 3.656 -13.446 5 -19.1 16.742 -5.098 10.6 -3.814 20.108 -4.25 47.304 -2.56 160 -1.648 45.752 -2.344 236.374a21.334 21.334 0 0 0 8.474 17.966 33.4 33.4 0 0 0 17.13 7.134c29.452 3.126 9.242 1.538 92.2 13.818a262.52 262.52 0 0 0 32.84 3.53c7.954 0.168 13.924 -5.29 14.49 -10.652 1.634 -15.49 0.612 -23.742 0.708 -38.068 0.052 -6.73 -0.916 27.674 4.502 -131.04Z" fill="#043f6d" stroke-width="1"></path><path d="M32.6 347.362c-0.876 -11.478 -2.088 -38.044 -3.748 -63.234 -2.54 -38.554 -1.748 -56.528 -3.2 -177.918 -0.278 -22.99 1.578 -40.724 1.982 -47.676 24.774 5.4 67.652 7.894 142.6 16.6 2.86 0.332 2.784 0.412 2.95 3.336 2.638 46.464 2 92.984 2.524 139.488 0.36 31.842 0.862 105.488 0.862 109.984 -24.84 3.276 -20.334 2.338 -49 5.538 -83.852 9.358 -86.752 14.34 -94.97 13.882ZM165.4 236.42l-0.31 -4.212c2.834 0.914 5.654 1.81 8.616 2.762 0 -0.2 -0.758 -116.678 -2.37 -155.728 -0.05 -1.248 -0.424 -1.65 -1.634 -1.764 -51 -4.8 -110.324 -9.936 -139.412 -16.06 -0.2 0.824 -1.182 27.764 -1.172 38.508 0.016 17.63 1.326 45.474 1.326 153.2 0.922 0.264 0 0.332 4.134 -2.152 3.918 -2.354 7.85 -4.68 11.766 -7.024 2.666 0.618 5.324 1.216 8 1.834a116.552 116.552 0 0 0 -22.2 11.552A2.146 2.146 0 0 0 31 259.6c0.474 7.92 0.838 15.842 1.276 23.748 3.714 67.034 3.078 52.786 3.078 60.556 83.024 -14.65 79.758 -11.496 138.96 -18.172 0 -36.508 0.238 -7.666 -0.528 -85.282 -0.01 -1.03 -0.14 -1.678 -1.34 -1.97 -2.37 -0.582 -4.704 -1.352 -7.046 -2.06Z" fill="#043f6d" stroke-width="1"></path><path d="M90.65 359.61c-3.8 -2.118 -3 -11.18 5.912 -11.926 6.658 -0.556 13.33 -1.016 20 -1.52 6.86 -0.516 7.954 6.786 3.092 9.982s-25.2 5.58 -29.004 3.464Zm10.368 -1.506c5.814 -0.784 12.718 -1.332 18.03 -3.53a3.4 3.4 0 0 0 1.4 -5.576c-1.904 -1.94 -2.7 -1.306 -24 0.336 -6.242 0.48 -8.632 8.36 -2.42 8.756 2.058 0.132 4.118 0.014 6.99 0.014Z" fill="#043f6d" stroke-width="1"></path><path d="M97.32 47.342c0 -0.4 0.028 -6.364 5.984 -6.364 8.53 0 10.972 15.624 2.074 15.624 -1.778 -0.002 -8.058 -0.506 -8.058 -9.26Zm6.694 -4.424a5.318 5.318 0 0 0 -4.8 5.246c0 0.144 0.124 6.724 5.908 6.724 7.05 0 4.766 -11.97 -1.108 -11.97Z" fill="#043f6d" stroke-width="1"></path><path d="M367.438 347.336a17.5 17.5 0 0 1 -2.834 -0.024c-17.4 -3.014 -34.72 -6.478 -52.2 -8.952 -24.552 -3.476 -38.41 -4 -85.438 -9.98 -3.438 -0.438 -3.422 -0.554 -3.412 -4.044 0.184 -69.064 1.76 -246.524 3.786 -248.8 0.6 -0.67 2.216 -0.424 3.388 -0.554 64.76 -7.22 68.908 -6.892 120.684 -12.892 5.77 -0.668 11.49 -1.8 17.22 -2.744 1.236 -0.2 2.446 -0.54 3.838 -0.85 0.102 1.444 0.166 2.6 0.282 3.748 2.988 29.518 1.114 59.074 0.876 88.618 -0.6 74.2 0.948 82.84 -3.232 146.842 -1.438 22.096 -2.314 44.798 -2.958 49.632Zm-140.4 -91.6a4 4 0 0 0 -0.954 2.446c-0.012 2.956 -0.448 60.824 -0.296 63.826 6.812 -6.722 13.2 -13.47 21.532 -17.94 -2.744 -5.082 -5.832 -9.234 -3.232 -20.708 6.248 -27.572 20.578 -52 19.924 -52.326 -0.002 0.408 -17.63 3.182 -36.976 24.698Zm68.346 -103.2a2.4 2.4 0 0 0 -2.782 0.2c-2.698 1.786 -5.458 1.97 -7.224 0.104a5.158 5.158 0 0 0 -4.546 -1.314c1 3 0.182 4.19 -3.014 4.508a1.776 1.776 0 0 0 -1.12 1.018c-0.786 2 -1.816 4.17 -4.11 4a6.2 6.2 0 0 0 -4.43 1.688c-0.49 0.346 -1.146 0.464 -1.648 0.8 -0.348 0.232 -0.8 0.696 -0.786 1.03 0.842 17.644 -0.492 30.6 10.586 37.684a83.366 83.366 0 0 0 9.66 4.726c1.132 0.53 2.104 1.132 2.086 2.55 -0.05 4.108 -0.094 8.23 -0.258 12.338 -0.124 3.154 -8.67 5.218 -11.036 5.962 2.8 1.662 4.678 4.534 14.062 4.8a41.246 41.246 0 0 0 16.306 -2.936c2.692 -1.056 5.254 -2.434 7.868 -3.672 -0.18 -0.66 -8.336 -2.828 -8.538 -2.884a2.142 2.142 0 0 1 -1.674 -2.4c0.146 -13.384 0.028 -8.912 0.244 -12.8 -6.324 2.126 -7.4 2.242 -8.848 0.8 0.8 -0.436 1.52 -0.886 2.292 -1.222 1.8 -0.782 3.632 -1.432 5.384 -2.292 10.642 -5.224 13.756 -11.876 16.4 -23.53 2.138 1.03 4.108 2.022 6.286 0.63a1.846 1.846 0 0 1 -0.246 -0.424c-1.21 -2.15 0.2 -2.356 1.558 -1.764 0.676 0.09 0.954 1.252 2.28 0.18 5.858 -4.736 -0.076 -13.05 -5.77 -9.568a3.1 3.1 0 0 1 -4.43 -1.096 12.212 12.212 0 0 1 -0.824 -2.756c-3.824 0.412 -4.674 -0.464 -5.4 -5.846 -2.26 0 -4.572 0.118 -6.53 -1.92 -2.24 -2.334 -1.8 -4.8 -1.532 -7.636 -3.082 2.152 -5.92 3.32 -10.268 1.04Zm74.436 -91.234c-2.51 0.6 -4.83 1.364 -7.2 1.688 -42.984 5.874 -19.842 3.234 -131.852 14.424 -1.4 0.14 -1.984 0.476 -2.022 2.086 -0.296 12.248 -0.878 24.496 -1.044 36.756 0 0.2 -1.734 133.912 -1.48 135.688 1.036 0.576 9.138 -13.496 31.642 -22.086 16.298 -6.222 19.044 -3.732 26.646 -8.422a1.966 1.966 0 0 0 0.708 -1.468c0 -2.938 -0.27 -5.874 -0.128 -8.8 0.078 -1.6 -0.554 -2.098 -1.854 -2.616a34.36 34.36 0 0 1 -11.824 -6.478 1.93 1.93 0 0 0 -1.48 -0.27 11.236 11.236 0 0 1 -10.42 -4.418 12.2 12.2 0 0 1 2.688 -16.506 2.624 2.624 0 0 0 0.774 -1.738c0.104 -4.882 0.122 -9.776 0.116 -14.656a1.8 1.8 0 0 0 -0.6 -1.314c-4.028 -2.828 -1.626 -5.218 -1.8 -7.288a44.622 44.622 0 0 1 -0.49 -4.87 29.8 29.8 0 0 1 2.6 -12.492 4.85 4.85 0 0 1 -4.766 -3.862c-0.466 -2.628 1.624 -3.852 3.374 -5.126 -3.348 -6.414 -1.222 -10.87 2.834 -12.376a11.106 11.106 0 0 1 2.6 -10.612 9.28 9.28 0 0 1 10.02 -3.774c1.4 -5.32 5.422 -7.252 10.11 -7.87a16.16 16.16 0 0 1 12.556 4.4c3.064 -3.6 5.754 -4.028 9.698 -1.65a14.862 14.862 0 0 1 6.4 6.84c3.58 -2.228 6.6 -1.772 9.774 1.428a12.452 12.452 0 0 1 3.44 7.264c0.4 2.884 -1.236 4.972 -3.168 7.148a6.358 6.358 0 0 1 7.018 2.15 5.272 5.272 0 0 1 0.052 7.032 7.264 7.264 0 0 1 3.04 10.754 6.034 6.034 0 0 1 2.098 6.362 4.646 4.646 0 0 1 -5.176 3.426c0 7.162 -3.624 7.718 -3.4 8.8a16.236 16.236 0 0 1 -0.928 9.184c7.456 1.842 8.628 8.5 2.666 14.784a11.838 11.838 0 0 1 1.248 11.2 8.518 8.518 0 0 1 -9.62 5.936 33.4 33.4 0 0 1 -5.538 -2.254 32.176 32.176 0 0 1 -9.13 8.436c-1 0.6 -0.584 2.092 -0.476 11.862 0.026 2.434 -0.026 2.512 2.4 3.078 23.62 5.514 31.892 5.672 59.848 22.126 0 -13.91 0.506 -87.2 0.888 -118.638 0.414 -33.288 0.78 -29.844 -0.842 -63.268ZM342.6 233.6c-2.834 -1.222 2.55 0.548 -20.412 -6.156 -5.518 -1.612 -1.8 0.576 -11.578 4.778a43.034 43.034 0 0 1 -24.096 3.618c-11.85 -1.884 -11.83 -7.742 -13.626 -7.456 -2.88 0.458 -5.458 1.172 -6.774 4.352 -4.242 10.256 -13.6 27.928 -18.93 51.734a21.244 21.244 0 0 0 2.228 16.51c5.924 9.682 6.266 14.094 8.036 26.916 0.474 3.444 -0.248 -1.766 86.686 12.158 4.314 -12.2 6.966 -24.714 10.418 -36.91a35.662 35.662 0 0 1 -10.754 -7.444c-9.856 -10.294 -10.98 -25.892 -9.556 -40a40.788 40.788 0 0 1 8.358 -22.1Zm11.348 65.822c-1.936 -3.46 -2.716 -4.4 -3.582 -6.156 -0.22 -0.45 0.116 -1.172 0.2 -1.776 0.554 0.128 1.25 0.088 1.648 0.412a8.55 8.55 0 0 1 1.946 2.176c10.4 17.374 8.504 14.52 11.512 20.85 0.412 -2.512 -0.442 6.426 3.902 -66.054a2.106 2.106 0 0 0 -1.132 -2.126 158.56 158.56 0 0 0 -21.34 -11.358 1.846 1.846 0 0 0 -2.512 0.54c-7.106 7.844 -7.93 22.822 -7.38 33.434a39.8 39.8 0 0 0 6.89 21.738 20.122 20.122 0 0 0 9.842 8.326Zm10.572 44.484c0.822 -19.898 0.968 -19.48 0.452 -20.878a110.92 110.92 0 0 0 -7.78 -17.926c-2.91 12.26 -5.4 24.148 -9.968 35.532 5.738 1.1 11.43 2.166 17.29 3.278Zm-109.854 -14.94c-1.262 -7.844 -1.6 -15.648 -6.014 -22.4a135.888 135.888 0 0 0 -21.778 19.344l27.786 3.062Zm64.122 -193.476a8.528 8.528 0 0 1 -1.636 1.764 2.476 2.476 0 0 0 -1.2 2.706 9.146 9.146 0 0 1 -2 6.478 16.618 16.618 0 0 1 -2.2 1.956c6.646 4.818 11.734 10.458 14.2 18.482a18.6 18.6 0 0 0 0.734 -2 13.574 13.574 0 0 0 -1.726 -10.8 14.156 14.156 0 0 1 -0.85 -1.8c2.564 0.142 3.066 2.332 4.34 3.722 2.19 -3.67 2.444 -6.2 0.6 -9.17 -2.224 -3.544 -4.676 -8.628 -10.268 -11.332ZM296.4 150.874c1.016 0.09 1.97 0.256 2.91 0.256a5.95 5.95 0 0 0 6.298 -7.096c-0.632 -4.8 -2.77 -9.284 -7.368 -10.92s-7.176 -0.632 -6.94 4.92a6.066 6.066 0 0 0 0.76 2.8c3.952 6.542 6.434 6.352 4.34 10.04Zm14.526 -28.502 0.31 -0.424c-7.912 -6.526 -23.334 -8.34 -24.87 0.6a17.95 17.95 0 0 0 -0.076 3.682c0.056 1.418 2.82 2.768 3.888 1.856 5.154 -4.4 11.312 -3.04 12.364 -3.748a13.112 13.112 0 0 1 8.384 -1.966Zm-19.214 6.942c0.966 1.378 0.978 1.47 2.576 1.16 6.44 -1.252 14.762 6.678 13.56 16.858a8.108 8.108 0 0 0 4.238 -11.2c-3.59 -8.192 -11.552 -11.08 -20.374 -6.818Zm-19.564 9.646a8.104 8.104 0 0 0 8.166 9.762c4.342 0.2 7.338 0.278 10.162 -3a2.748 2.748 0 0 0 -0.838 -4.238 12.472 12.472 0 0 0 -9.736 -0.346 2.942 2.942 0 0 1 -3.928 -0.942c-0.8 -0.912 -1.528 -0.796 -3.826 -1.236Zm49.6 46.712a39.952 39.952 0 0 1 -3.092 10.058c5.024 2.626 9.142 1.26 10.922 -3.6a8.18 8.18 0 0 0 -0.67 -6.85 1.732 1.732 0 0 0 -1.442 -0.542c-1.834 0.216 -3.648 0.586 -5.708 0.934ZM284.5 127.55a11.278 11.278 0 0 1 1.056 -10 22.746 22.746 0 0 0 -9.57 6.298 11.148 11.148 0 0 0 -3.244 9.414 4.844 4.844 0 0 0 1.854 3.76c0.374 -5.26 2.306 -8.906 9.904 -9.472Zm4.816 10.946a8.432 8.432 0 0 1 2.126 -7.096 13.756 13.756 0 0 0 -7.856 -1.132 10.448 10.448 0 0 0 -4.25 1.468c-2.366 1.818 -2.628 4.674 -1.16 7.972 3.336 -3.44 7.186 -2.408 11.14 -1.212Zm-18.2 7.882c-0.064 -0.14 -0.258 -0.502 -0.426 -0.876a7.688 7.688 0 0 1 -0.232 -7.12 2.262 2.262 0 0 0 -0.282 -2.8 6.71 6.71 0 0 1 -1.494 1.082 8.056 8.056 0 0 0 -5.306 7.572c-0.278 2.768 -0.542 5.524 -0.85 8.526 3.094 -2.3 5.786 -4.31 8.58 -6.384Zm-7.778 36.498c-3.246 3.902 -3.9 7.83 -1.908 11.94 1.4 2.87 4.07 3.772 7.38 4.134 -3.912 -4.778 -4.41 -10.432 -5.482 -16.074Zm51.9 -47.212a5.832 5.832 0 0 0 0.258 -7.548 8.11 8.11 0 0 0 -9.6 -2.472 17.722 17.722 0 0 1 9.332 10.02Zm-28.8 15.622a7.746 7.746 0 0 0 8.2 -3.762c-0.566 -0.6 -1.132 -1.222 -1.75 -1.88 -1.216 2.912 -2 3.594 -6.456 5.642Z" fill="#043f6d" stroke-width="1"></path><path d="M305.646 360.666c-11.024 -1.628 -24.722 -0.572 -27.766 -7.612a4.676 4.676 0 0 1 4.2 -6.812c3.054 -0.03 0.074 0.056 21.082 1.4 9.186 0.59 10.2 9.616 6.35 11.9a14.784 14.784 0 0 1 -3.866 1.124Zm-21.688 -12.968c-6.06 -0.38 -6.446 4.92 -3.27 6.71a13.908 13.908 0 0 0 3.142 1.2 80.71 80.71 0 0 0 22.28 2.512c3.824 -0.038 3.778 -2.624 3.09 -5.1 -0.326 -1.174 -2 -3.434 -6.22 -3.774 -17.128 -1.38 -18.046 -1.368 -19.022 -1.548Z" fill="#043f6d" stroke-width="1"></path><path d="M296.76 40.916c3.262 0 6.384 2.622 6.04 5.6 -0.2 10.524 -7.34 10.146 -7.6 10.146 -1.364 0 -6.048 -0.052 -6.048 -6.566 -0.002 -5.52 4.178 -9.18 7.608 -9.18Zm-1.752 13.986c4.716 0 5.824 -4.4 5.824 -6.76a5.018 5.018 0 0 0 -4.724 -5.212c-6.026 0 -8.034 11.972 -1.108 11.972Z" fill="#043f6d" stroke-width="1"></path><path d="M63.876 71.476c-2.892 -0.752 -24.456 -2.636 -24.676 -2.652 -1.172 -0.09 -0.87 5.32 -0.888 36.896 0 2.486 -0.014 2.562 2.42 2.512 7.664 -0.158 15.326 -0.362 23 -0.554 2.06 -0.052 2.366 -0.27 2.382 -2.292q0.118 -15.434 0.18 -30.87c0 -2.266 -0.214 -2.466 -2.418 -3.04Zm-22.628 35.03c0 -8.29 -0.97 -8.546 3.85 -11.86a6.8 6.8 0 0 1 1.378 -0.632 0.38 0.38 0 0 1 0.464 0.142 6.72 6.72 0 0 1 -0.102 6.812c-0.372 0.456 -1.554 0.658 -1.314 0.658 0.076 -0.412 0.168 -0.824 0.244 -1.236 -0.4 0.114 -1 0.114 -1.158 0.386 -0.846 1.502 -2.988 5.332 -3.362 5.73Zm4.534 -0.308a30.686 30.686 0 0 1 -3.066 0.18 18.074 18.074 0 0 1 1.558 -2.8s1.546 2.542 1.508 2.622Zm11.706 -1.16c-0.132 0.376 0.492 0.038 -10.896 0.76a0.368 0.368 0 0 1 -0.372 -0.244c-0.4 -1.172 -0.566 -1.338 -0.284 -1.558 3.87 -3.03 4.456 -5.436 2.64 -11.2 0.8 -0.2 1.2 -0.534 1.88 -0.2 2.236 1.076 4.636 1.57 6.646 -0.232 0.296 0.696 0.556 1.2 0.734 1.764 0.4 1.222 0.638 2.488 1.108 3.684a4.922 4.922 0 0 1 -0.644 5.2 7.284 7.284 0 0 0 -0.812 2.026Zm-9.04 -21.714a0.982 0.982 0 0 1 1.094 0.168 1.736 1.736 0 0 0 2.73 -0.18c0.468 -0.8 1.6 -1.2 2.4 -1.764 0.426 0.45 0.696 1 1.096 1.108a1.84 1.84 0 0 1 1.634 1.892c0.082 1.468 0.438 2.896 -1 3.71 -1.25 0.706 -1.6 1.262 -1.158 3.2 0.6 2.666 -3.286 0.902 -3.286 0.902 -0.32 0.026 -0.18 -2.332 -0.18 -2.332a0.982 0.982 0 0 0 -0.076 -0.76c-0.544 -0.68 -0.338 -0.436 -0.966 -1.21a10.064 10.064 0 0 1 -0.914 -2.434c-0.092 -0.2 -1.264 -0.334 -1.534 -0.76 -0.384 -0.61 -0.202 -1.5 0.16 -1.54Zm-0.528 -0.914a18.826 18.826 0 0 1 -0.052 -1.944 5.108 5.108 0 0 0 4.738 -0.914 1.97 1.97 0 0 1 2.474 -0.142c0.968 0.6 2.188 -0.1 2.91 0 0.862 0.12 0.334 2.164 0.284 2.124a3.44 3.44 0 0 0 -2.6 -0.386 3.284 3.284 0 0 1 -2.678 0.014c-0.118 -0.066 -4.936 1.326 -5.076 1.248ZM62 105.67l-2.4 -0.22a0.382 0.382 0 0 1 -0.322 -0.502l0.644 -1.79a0.378 0.378 0 0 1 0.632 -0.128l1.752 2a0.38 0.38 0 0 1 -0.306 0.64Zm1.34 -2.1c-1.134 -1.108 -2.452 -1.622 -2.292 -3.618a13.2 13.2 0 0 0 -1.262 -4.38c-0.18 -0.58 -0.348 -1.158 -0.6 -2 4.782 2.044 4.162 4.672 4.162 9.998Zm0.528 -27.252c-0.042 2.014 -0.348 15.456 -0.554 18.25 -4.102 -4.252 -7.814 -3.31 -7.754 -4.262a1.27 1.27 0 0 1 0.44 -0.826 9.686 9.686 0 0 1 1.096 -0.746 2.234 2.234 0 0 0 1.042 -1.378A9.52 9.52 0 0 0 58 84.252c-0.184 -0.914 0.24 -0.6 0.49 -1.468a7.724 7.724 0 0 0 -1.584 -7.108c-0.632 -0.722 -1.43 0.4 -1.752 -0.2a1.57 1.57 0 0 0 -1.326 -0.954c-1.83 0.148 -1.444 0.654 -2.318 0.838 -0.722 0.152 -1.446 -0.48 -2.022 -0.052 -0.686 0.51 -0.614 1.754 -1.018 2.434 -1.434 2.42 -0.964 2.75 -0.978 3.6a4.294 4.294 0 0 0 0.412 1.776c0.134 0.298 -0.984 1.588 1.068 2.68 0.54 0.286 0.494 1.49 0.8 2a15.564 15.564 0 0 0 1.366 1.56c0.422 0.568 -0.038 1.312 -0.142 1.674a19.454 19.454 0 0 0 -9.272 4.134c-0.246 0.218 -0.386 -23.376 -0.386 -23.376a0.366 0.366 0 0 1 0.424 -0.372c22.038 3.382 22.208 0.348 22.114 4.9Z" fill="#043f6d" stroke-width="1"></path><path d="M154.696 117.454c-1.366 1.66 -2.884 3.18 -4.378 4.738 -1.2 1.25 -2.4 0.22 -1.456 -1.12a56.644 56.644 0 0 1 5.022 -5.82c0.644 -0.902 4.392 -3.052 0.812 2.202Z" fill="#043f6d" stroke-width="1"></path><path d="M157.232 136.694a26.16 26.16 0 0 1 -4.572 -0.618c-0.888 -0.246 -1.956 -2.036 0.246 -2.036a27.4 27.4 0 0 1 4.906 0.528c4.508 0.258 3.36 2.49 -0.58 2.126Z" fill="#043f6d" stroke-width="1"></path><path d="M157.04 127.318a29.4 29.4 0 0 0 -5.576 1.52c-0.76 0.4 -1.67 -0.51 -0.85 -1.4a2 2 0 0 1 0.85 -0.62c1.868 -0.456 3.788 -0.714 5.64 -1.262 3.286 -0.956 2.46 1.53 -0.064 1.762Z" fill="#043f6d" stroke-width="1"></path><path d="M146.904 312.062c-0.368 9.928 -7.746 13.714 -12.892 9.6a13.25 13.25 0 0 1 -0.862 -18.648c5.424 -5.198 13.384 -0.5 13.754 9.048Zm-10.78 0.014c-0.102 -0.04 -0.218 -0.078 -0.322 -0.116 0.116 -0.528 0.168 -1.496 0.336 -1.52a15.662 15.662 0 0 1 3.89 -0.156c1.158 0.13 0.902 1.2 0.81 2 -0.27 2.358 1.914 1.58 3.078 1.518 1.056 -0.054 1.358 -0.618 1.07 -1.558 -0.672 -2.2 -1.828 -4.024 -4.29 -4.326a22.084 22.084 0 0 0 -5.19 -0.026 4.112 4.112 0 0 0 -3.54 3.76c-0.128 0.658 0.102 1.944 0.424 2.034a5.958 5.958 0 0 0 3 -0.024c0.348 -0.062 0.49 -1.02 0.734 -1.586Z" fill="#f8b6b2" stroke-width="1"></path><path d="M77.784 331.162a14.312 14.312 0 0 1 0.142 -28.6 14.06 14.06 0 0 1 13.574 14.63 13.868 13.868 0 0 1 -13.716 13.97Zm11.6 -14.09a11.458 11.458 0 1 0 -11.526 11.8 11.65 11.65 0 0 0 11.518 -11.8Z" fill="#043f6d" stroke-width="1"></path><path d="M122.846 314.212c-0.376 10.714 -10.624 15.666 -17.296 9.466a14.326 14.326 0 0 1 -1.106 -19.086 9.8 9.8 0 0 1 16.124 1.276 14.706 14.706 0 0 1 2.278 8.344Zm-1.622 0.104c0.044 -10.2 -9.17 -14.4 -14.874 -8.732a11.924 11.924 0 0 0 -0.464 15.52 8.078 8.078 0 0 0 13 -0.2 11.094 11.094 0 0 0 2.338 -6.588Z" fill="#043f6d" stroke-width="1"></path><path d="M364.63 97.2c-0.042 2.098 -0.314 4.2 -0.528 6.296 -0.08 0.786 -0.348 1.426 -1.364 1.56 -18.618 2.428 -16.964 2.774 -21.676 1.93a2 2 0 0 1 -1.288 -1.364c-2.142 -21 -1.64 -14.746 -0.67 -33.832a2.046 2.046 0 0 1 1.83 -2.126c6.414 -1.23 12.8 -2.6 19.24 -3.644 4.03 -0.648 4.626 -0.052 4.726 4 0.12 4.792 -0.186 22.912 -0.27 27.18Zm-3.83 -9.098c0.296 -6.412 0.58 -12.762 0.876 -19.2 -6.6 0.98 -13.046 1.932 -19.716 2.912l0 19.446a10.782 10.782 0 0 1 1.97 -1.378c2.028 -0.84 1.816 0.826 0.94 1.442 -1.97 1.386 -3.386 2.744 -2.86 5.6a43.252 43.252 0 0 1 0.09 7.586l18.894 -2.744c0 -3.516 -0.05 -6.736 0.026 -9.954a2.248 2.248 0 0 0 -1.366 -2.306c-1.912 -1.034 -2 -1.776 1.146 -1.404Z" fill="#043f6d" stroke-width="1"></path><path d="M315.898 317.33a12.852 12.852 0 1 1 12.698 13.368 13.026 13.026 0 0 1 -12.698 -13.368Zm22.228 0.36a7.304 7.304 0 0 0 -5.886 -5.074 59.934 59.934 0 0 0 -7.65 -0.632 5.676 5.676 0 0 0 -5.422 3.44c-1.326 2.8 -0.254 3.076 2.448 3.438 2.576 0.346 2.736 0.244 2.704 -2.37 -0.016 -1.3 0.554 -1.878 1.714 -1.764 1.712 0.17 3.412 0.472 5.112 0.812 0.89 0.178 1.018 0.824 0.812 1.674 -0.6 2.474 -0.428 2.73 2.086 2.948 3.198 0.28 5.208 0.32 4.082 -2.472Z" fill="#f8b6b2" stroke-width="1"></path><path d="M289.304 304.464a9.938 9.938 0 0 1 13.844 2.82 13.648 13.648 0 0 1 -1.61 17.374 9.944 9.944 0 0 1 -16.046 -2.55 13.448 13.448 0 0 1 3.812 -17.644Zm6.824 0.49a8.104 8.104 0 0 0 -8.292 3.284 11.186 11.186 0 0 0 -0.2 13.87 8.248 8.248 0 0 0 12 1.532c6.488 -5.312 4.764 -16.952 -3.508 -18.686Z" fill="#043f6d" stroke-width="1"></path><path d="M273.888 306.614A13.536 13.536 0 0 1 272 322.34c-4.6 4.56 -11.692 2.742 -13.922 -3.646 -4.652 -13.306 9.352 -22.588 15.81 -12.08Zm-1.044 1.764a6.754 6.754 0 0 0 -11.062 -2.472 11.166 11.166 0 0 0 -1.482 13.728c5.95 8.49 17.312 -0.474 12.544 -11.256Z" fill="#043f6d" stroke-width="1"></path><path d="M290.836 167.912a43.774 43.774 0 0 1 -0.658 9.53c-0.846 5.916 -4.964 8.588 -0.024 10.496 1.816 0.702 2.562 2.442 0.36 2.756a5.422 5.422 0 0 1 -5.706 -6.22 6.514 6.514 0 0 1 0.734 -2.19c2.2 -3.6 1.846 -7.654 3.182 -17.026 0.094 -0.658 1.46 -5.73 2.112 2.654Z" fill="#043f6d" stroke-width="1"></path><path d="M302.504 193.27c-3.614 6.546 -14.316 4.506 -12.8 1.674 0.522 -0.976 6.868 3.718 12.2 -4.572 0.6 -0.76 3.112 -3.296 0.6 2.898Z" fill="#043f6d" stroke-width="1"></path><path d="M307.59 162.412a0.92 0.92 0 0 1 -1.712 0.67c-1.936 -1.732 -3.932 -4.658 -6.646 -3.336 -1.646 0.8 -2.42 -0.85 -0.746 -1.66 4.114 -1.998 8.242 1.406 9.104 4.326Z" fill="#043f6d" stroke-width="1"></path><path d="M301.228 167.268a3.168 3.168 0 0 1 2.718 2.872 2.77 2.77 0 0 1 -2.692 2.8c-3.148 -0.034 -3.268 -5.61 -0.026 -5.672Z" fill="#043f6d" stroke-width="1"></path><path d="M284.344 159.102a7.276 7.276 0 0 0 -4.828 2.4c-0.98 2.112 -1.788 0.812 -1.43 -0.914 0.556 -2.678 5.112 -4.354 7.65 -3.284 1.664 0.176 2.884 2.378 -1.392 1.798Z" fill="#043f6d" stroke-width="1"></path><path d="M283.8 170.552a2.23 2.23 0 1 1 -4.418 0.052c0.004 -3.962 4.436 -3.604 4.418 -0.052Z" fill="#043f6d" stroke-width="1"></path><path d="M112.326 190.938a8.502 8.502 0 0 1 -8.706 -3.888 16.546 16.546 0 0 1 -3.104 -7.148c-0.78 -5.2 4.2 -2.218 10.032 -0.85 2.548 0.6 5.126 1.054 7.714 1.468 2.254 0.36 3.056 1.388 2.242 3.516a13.2 13.2 0 0 1 -8.178 6.902Zm-8.668 -10.456a8.2 8.2 0 0 0 5.886 6.718 6.546 6.546 0 0 0 6.284 -3.04l-12.17 -3.678Z" fill="#043f6d" stroke-width="1"></path><path d="M119.872 174.376c-2.228 1.438 -4.102 0.666 -2.2 -1.892a8.2 8.2 0 0 0 0.888 -7.56c-2.784 -9.4 -6.2 -19.4 -6.374 -20.568 -0.064 -0.412 0.166 -1.146 0.45 -1.262a1.4 1.4 0 0 1 1.314 0.412 195.8 195.8 0 0 1 7.8 20.452 9.148 9.148 0 0 1 -1.878 10.418Z" fill="#043f6d" stroke-width="1"></path><path d="M128.952 145.258c0.27 2.422 -1.168 1.74 -1.752 0.966 -0.326 -0.432 -4.314 -3.348 -6.376 -2.498 -1.428 0.734 -2.872 -0.694 -1.442 -2.318 3.268 -3.71 9.234 0.85 9.57 3.85Z" fill="#043f6d" stroke-width="1"></path><path d="M103.468 159.45c-1.988 0 -2.988 -2.13 -2.988 -3.6 0 -1.646 0.552 -4.024 2.238 -4.024 4.57 0.008 5.082 7.624 0.75 7.624Z" fill="#043f6d" stroke-width="1"></path><path d="M124.546 158.252c-3.534 -0.066 -3.686 -6.552 -0.308 -6.916 3.65 -0.392 4.016 6.988 0.308 6.916Z" fill="#043f6d" stroke-width="1"></path><path d="M103.76 143.366a7.126 7.126 0 0 0 -5.988 3.528c-1.094 2.086 -1.8 -0.258 -1.7 -0.528a5.428 5.428 0 0 1 1.528 -3.246 7.068 7.068 0 0 1 7.122 -1.752c2.258 0.49 2.206 1.984 -0.962 1.998Z" fill="#043f6d" stroke-width="1"></path><path d="M80.258 321.218c-2.692 0 -5.4 0.018 -8.128 0a2.498 2.498 0 0 1 -2.73 -2.524 52.638 52.638 0 0 1 -0.128 -4.314 2.24 2.24 0 0 1 2.266 -2.434c2.822 -0.11 5.642 -0.038 8.72 -0.038Z" fill="#043f6d" stroke-width="1"></path><path d="M86.078 320.292c-0.952 -0.516 -1.868 -1.094 -2.846 -1.508a3.016 3.016 0 0 1 -0.348 -5.06c1 -0.586 1.932 -1.288 3.2 -2.152Z" fill="#043f6d" stroke-width="1"></path><path d="m113.948 318.514 1.622 0 0 2.086c-1.79 0.078 -3.566 0.156 -5.434 0.246l0 -1.97 2.176 -0.246c-0.476 -0.72 -0.786 -1.224 -1.12 -1.726 -2.886 -4.328 -2.4 -3 -1.6 -4.752 0.374 0.322 0.966 0.568 1.096 0.966 0.344 1.058 0.81 1.984 2.022 2 1.288 0.026 1.6 -1.02 1.918 -2.048 0.128 -0.4 0.6 -0.682 0.928 -1 0.768 1.414 1.346 0.474 -0.94 4.506 -0.308 0.542 -0.722 1.03 -1.082 1.546 0.13 0.134 0.266 0.264 0.414 0.392Z" fill="#043f6d" stroke-width="1"></path><path d="M114.102 309.732a14.674 14.674 0 0 1 -0.052 2.91c-0.116 0.566 -0.772 1.03 -1.172 1.532 -0.528 -0.45 -1.462 -0.864 -1.518 -1.364a46.118 46.118 0 0 1 -0.272 -6.44c0.014 -0.464 1 -1.314 1.378 -1.236a2.238 2.238 0 0 1 1.468 1.39 14.524 14.524 0 0 1 0.066 3.2Z" fill="#043f6d" stroke-width="1"></path><path d="M346.96 89.828c-1.358 -0.838 -0.102 -4.892 0.116 -8.666 0.326 -5.626 7.136 -6.6 8.358 -2.68 0.886 2.83 1.74 5.67 2.486 8.54a2.782 2.782 0 0 1 -0.488 2.112 5.734 5.734 0 0 1 -5.6 2.562 19.34 19.34 0 0 1 -4.872 -1.868ZM351.8 79.2c-2.168 -0.152 -2.506 1.978 -2.164 4.172 0.2 1.25 0.8 2.294 2.19 2.422 1 0.09 1.98 -1.276 2.112 -2.68 0.176 -1.984 -0.138 -3.77 -2.138 -3.914Zm-0.566 10.264c-1.2 -1.134 -2.152 -2.048 -3.258 -3.104 -0.204 1.988 0.942 3.108 3.248 3.108Zm5.06 -0.876c-0.2 -0.218 -0.43 -0.45 -0.636 -0.67 -0.6 0.6 -1.186 1.186 -1.764 1.778 0.166 0.18 0.334 0.374 0.514 0.554a118.67 118.67 0 0 1 1.876 -1.65Z" fill="#f8b6b2" stroke-width="1"></path><path d="M296.876 322.352c-1.958 -0.168 -3.774 -0.322 -5.6 -0.49l0 -1.956 2.266 0a83.206 83.206 0 0 1 -1 -1.816c-2.314 -4.268 -1.858 -3.034 -1.056 -4.636 0.334 0.36 0.862 0.67 1 1.094 0.588 1.932 1.742 2.646 3.026 1.662 0.4 -0.308 0.538 -0.956 0.888 -1.366a7.546 7.546 0 0 1 1.186 -0.94c0.612 1.748 1.49 0.542 -2.938 6.052 1.058 0.168 1.61 0.258 2.358 0.374 -0.052 0.618 -0.092 1.25 -0.13 2.022Z" fill="#043f6d" stroke-width="1"></path><path d="M296.038 314.032c-0.076 0.966 -0.642 1.824 -1.634 1.572a2.282 2.282 0 0 1 -1.302 -1.7 28.612 28.612 0 0 1 0.348 -5.654 2.276 2.276 0 0 1 1.6 -1.416c0.964 -0.12 1.342 0.734 1.274 1.686 -0.362 5.064 -0.204 4.492 -0.286 5.512Z" fill="#043f6d" stroke-width="1"></path><path d="M267.744 309.4c-0.18 2.64 -0.334 4.972 -0.49 7.4 -1.88 -0.14 -3.618 -0.258 -5.344 -0.4a1.67 1.67 0 0 1 -1.662 -1.842c-0.106 -5.992 -0.03 -5.158 7.496 -5.158Z" fill="#043f6d" stroke-width="1"></path><path d="M271.4 316.634c-1.186 -0.94 -3.14 -1.042 -3.054 -3.064 0.082 -1.906 0.31 -2.19 3.452 -3.684 -0.138 2.314 -0.28 4.534 -0.398 6.748Z" fill="#043f6d" stroke-width="1"></path><path d="M351.224 89.468c-2.306 0 -3.452 -1.12 -3.258 -3.104 1.106 1.056 2.06 1.958 3.258 3.104Z" fill="#043f6d" stroke-width="1"></path><path d="M356.284 88.6c-0.63 0.554 -1.254 1.108 -1.886 1.662 -0.168 -0.18 -0.334 -0.374 -0.514 -0.554 0.6 -0.6 1.184 -1.184 1.764 -1.778 0.218 0.212 0.418 0.43 0.636 0.67Z" fill="#043f6d" stroke-width="1"></path><path d="M125.654 110.91a21.04 21.04 0 0 0 -2.382 -1.854 22.54 22.54 0 0 0 -15.622 -2.8c-28.638 5 -43.822 38.482 -40.748 65.772 0.63 5.6 2.528 -1.714 3.092 -9.17a69.656 69.656 0 0 1 5.936 -24.906c4.764 -10.072 10.83 -19.064 21.146 -24.316 9.124 -4.648 18.468 -6.936 28.578 -2.726Zm22.254 79.578c-0.36 -4.862 -2.2 -3.94 -2.658 -2.736 -0.69 1.83 -1.214 3.708 -1.83 5.562 -3.666 11.05 -12.816 27.534 -22.524 35.584 -6.11 5.066 -12.342 8.354 -13.722 10.348 0.586 0.324 0.888 1.062 3.4 0.252a41.55 41.55 0 0 0 18.248 -12.2 94.55 94.55 0 0 0 15.816 -25.256 27.674 27.674 0 0 0 3.27 -11.554ZM115.8 247.154c0.038 0.116 0.058 0.226 0.096 0.354a18.084 18.084 0 0 0 10.072 -2.782 66.506 66.506 0 0 0 23.542 -23.71 4.214 4.214 0 0 0 0.27 -2.652 1.974 1.974 0 0 0 -1.222 -1.326c-3.484 -0.8 -2.658 8.534 -25.256 25 -2.442 1.792 -5.002 3.416 -7.502 5.116Zm28.452 -101.922c-1.496 0.374 0.2 -1.694 -2.698 21.38 -0.6 4.688 -1.742 9.298 -2.512 13.972 -0.446 2.706 -1.674 5.294 -1.2 8.166 0.22 1.326 0.708 1.288 1.61 0.734A6.8 6.8 0 0 0 142.2 185c4.02 -15.782 3.618 -21.342 3.012 -36.382a14.6 14.6 0 0 0 -0.96 -3.386Zm-35.688 76.616c0 -0.18 0 -0.374 0.014 -0.554a96.912 96.912 0 0 1 -11.4 -4.418 33.358 33.358 0 0 1 -15.01 -15.184c-0.822 -1.752 -1.248 -3.694 -2.042 -5.474 -0.852 -1.906 -2.042 -2.114 -2.73 0.2a7.4 7.4 0 0 0 0.682 5.074 35.616 35.616 0 0 0 14.76 16.87c6.472 3.962 11.276 4.376 15.726 3.486Zm-27.4 22.704a18.61 18.61 0 0 0 -2.82 -2.82 35.354 35.354 0 0 0 -15.738 -4.83 7.67 7.67 0 0 0 -4.908 1.302c-2.4 1.46 -0.6 2.888 0.838 2.782 10.74 -0.804 21.032 6.29 22.636 3.566Z" fill="#043f6d" stroke-width="1"></path><path d="M144.212 128.568c3.386 9.116 2.614 14.612 3.272 16.252 3.152 7.862 3.642 21.076 3.316 28.78 -0.416 9.646 3.6 6.242 4.764 21.082a49.532 49.532 0 0 1 -1.7 17.244 28.458 28.458 0 0 0 -0.2 7.328c0 0.974 1.578 1.868 6.144 6.788 1.66 1.8 2.548 3 5.292 6.162l0.31 4.212a19.304 19.304 0 0 0 -1.07 1.848 35.094 35.094 0 0 1 -7.172 11.23 61.98 61.98 0 0 1 -13.11 9.672c-12.874 7.306 -23.716 4.158 -27.11 4.83 -6.26 1.238 -15.282 5.586 -27.212 1.906 -12.624 -3.896 -16.862 -12.734 -21.108 -16.1 -4.124 -3.268 -9.144 -3.952 -14.258 -4.018a1284.58 1284.58 0 0 1 -8.016 -1.834c3.988 -5.766 7.878 -2.988 10.812 -11.134 4.4 -12.2 -0.972 -16.072 -3.284 -65.874a82.87 82.87 0 0 1 1.21 -23.052c3.544 -15.03 11.152 -27.33 24.61 -35.482 22.12 -13.398 55.22 -4.852 64.51 20.16Zm-9.89 34.656c-0.914 -9.466 -1.148 -16.484 -5.384 -21.636a91.944 91.944 0 0 0 -13.716 -14.128c-1.762 -1.4 -5.2 0.016 -7.186 1.056A50.6 50.6 0 0 0 88.114 145.8a24.844 24.844 0 0 0 -4.638 10.65 70 70 0 0 0 -0.502 11.384c1.05 16.512 9.53 25.34 23.028 33.896a4.548 4.548 0 0 0 3.232 0.58 19.902 19.902 0 0 0 6.144 -2.42c13.284 -9.018 18.822 -20.516 18.944 -36.666Zm-8.668 -52.314a21.04 21.04 0 0 0 -2.382 -1.854 22.54 22.54 0 0 0 -15.622 -2.8c-28.638 5 -43.822 38.482 -40.748 65.772 0.63 5.6 2.528 -1.714 3.092 -9.17a69.656 69.656 0 0 1 5.936 -24.906c4.764 -10.072 10.83 -19.064 21.146 -24.316 9.124 -4.648 18.468 -6.936 28.578 -2.726Zm22.254 79.578c-0.36 -4.862 -2.2 -3.94 -2.658 -2.736 -0.69 1.83 -1.214 3.708 -1.83 5.562 -3.666 11.05 -12.816 27.534 -22.524 35.584 -6.11 5.066 -12.342 8.354 -13.722 10.348 0.586 0.324 0.888 1.062 3.4 0.252a41.55 41.55 0 0 0 18.248 -12.2 94.55 94.55 0 0 0 15.816 -25.256 27.674 27.674 0 0 0 3.27 -11.554ZM115.8 247.154c0.038 0.116 0.058 0.226 0.096 0.354a18.084 18.084 0 0 0 10.072 -2.782 66.506 66.506 0 0 0 23.542 -23.71 4.214 4.214 0 0 0 0.27 -2.652 1.974 1.974 0 0 0 -1.222 -1.326c-3.484 -0.8 -2.658 8.534 -25.256 25 -2.442 1.792 -5.002 3.416 -7.502 5.116Zm28.452 -101.922c-1.496 0.374 0.2 -1.694 -2.698 21.38 -0.6 4.688 -1.742 9.298 -2.512 13.972 -0.446 2.706 -1.674 5.294 -1.2 8.166 0.22 1.326 0.708 1.288 1.61 0.734A6.8 6.8 0 0 0 142.2 185c4.02 -15.782 3.618 -21.342 3.012 -36.382a14.6 14.6 0 0 0 -0.96 -3.386Zm-35.688 76.616c0 -0.18 0 -0.374 0.014 -0.554a96.912 96.912 0 0 1 -11.4 -4.418 33.358 33.358 0 0 1 -15.01 -15.184c-0.822 -1.752 -1.248 -3.694 -2.042 -5.474 -0.852 -1.906 -2.042 -2.114 -2.73 0.2a7.4 7.4 0 0 0 0.682 5.074 35.616 35.616 0 0 0 14.76 16.87c6.472 3.962 11.276 4.376 15.726 3.486Zm-27.4 22.704a18.61 18.61 0 0 0 -2.82 -2.82 35.354 35.354 0 0 0 -15.738 -4.83 7.67 7.67 0 0 0 -4.908 1.302c-2.4 1.46 -0.6 2.888 0.838 2.782 10.74 -0.804 21.032 6.29 22.636 3.566Z" fill="#f8b6b2" stroke-width="1"></path></g></svg>