<svg xmlns="http://www.w3.org/2000/svg" viewBox="0 0 400 400" height="400" width="400"><g transform="scale(6.25)"><defs></defs><g id="Mars_rover" data-name="Mars rover"><path d="M37 28h2a1 1 0 0 1 1 1v6l0 0h-4l0 0v-6a1 1 0 0 1 1-1Z" stroke-linecap="round" stroke-linejoin="round" stroke="#231f20" fill="#333333"></path><path d="M39 28h0a1 1 0 0 1 1 1v6l0 0h-2l0 0v-6a1 1 0 0 1 1-1Z" fill="#666666" stroke-linecap="round" stroke-linejoin="round" stroke="#231f20"></path><path d="M53.394 30h-7.876a2 2 0 0 0-.971.252L36 35h9l3 7 8.11-5.406A2 2 0 0 0 57 34.93v-1.86a2 2 0 0 0-.89-1.664l-1.606-1.07a2 2 0 0 0-1.11-.336Z" fill="#e4e4e4" stroke-linecap="round" stroke-linejoin="round" stroke="#231f20"></path><path d="m37 57 0-6-7-6-7 6 0 6" fill="none" stroke-linecap="round" stroke-linejoin="round" stroke="#231f20"></path><path d="m30 45-10-5L7 51l0 6" fill="none" stroke-linecap="round" stroke-linejoin="round" stroke="#231f20"></path><path d="M41 51h-4a6 6 0 0 0 0 12h4a6 6 0 0 0 0-12Z" fill="#1e4bde" stroke-linecap="round" stroke-linejoin="round" stroke="#231f20"></path><path d="M35 57a6 6 0 1 0 12 0 6 6 0 1 0-12 0" fill="#c8d4fa" stroke-linecap="round" stroke-linejoin="round" stroke="#231f20"></path><path d="M38 57a3 3 0 1 0 6 0 3 3 0 1 0-6 0" fill="#ffffff" stroke-linecap="round" stroke-linejoin="round" stroke="#231f20"></path><path d="M28 45a2 2 0 1 0 4 0 2 2 0 1 0-4 0" fill="#b1b1b1" stroke-linecap="round" stroke-linejoin="round" stroke="#231f20"></path><path d="M29.75 45a.25.25 0 1 0 .5 0 .25.25 0 1 0-.5 0" fill="#1e4bde" stroke-linecap="round" stroke-linejoin="round" stroke="#231f20"></path><path d="M18 40a2 2 0 1 0 4 0 2 2 0 1 0-4 0" fill="#b1b1b1" stroke-linecap="round" stroke-linejoin="round" stroke="#231f20"></path><path d="M19.75 40a.25.25 0 1 0 .5 0 .25.25 0 1 0-.5 0" fill="#1e4bde" stroke-linecap="round" stroke-linejoin="round" stroke="#231f20"></path><path d="M41 51h-4a6 6 0 0 0 0 12h4a6 6 0 0 0 0-12Z" fill="#231f20" stroke-linecap="round" stroke-linejoin="round" stroke="#231f20"></path><path d="M35 57a6 6 0 1 0 12 0 6 6 0 1 0-12 0" stroke-linecap="round" stroke-linejoin="round" stroke="#231f20" fill="#333333"></path><path d="M39 57a2 2 0 1 0 4 0 2 2 0 1 0-4 0" fill="#666666" stroke-linecap="round" stroke-linejoin="round" stroke="#231f20"></path><path d="M27 51h-4a6 6 0 0 0 0 12h4a6 6 0 0 0 0-12Z" fill="#231f20" stroke-linecap="round" stroke-linejoin="round" stroke="#231f20"></path><path d="M21 57a6 6 0 1 0 12 0 6 6 0 1 0-12 0" stroke-linecap="round" stroke-linejoin="round" stroke="#231f20" fill="#333333"></path><path d="M25 57a2 2 0 1 0 4 0 2 2 0 1 0-4 0" fill="#666666" stroke-linecap="round" stroke-linejoin="round" stroke="#231f20"></path><path d="M11 51H7a6 6 0 0 0 0 12h4a6 6 0 0 0 0-12Z" fill="#231f20" stroke-linecap="round" stroke-linejoin="round" stroke="#231f20"></path><path d="M5 57a6 6 0 1 0 12 0 6 6 0 1 0-12 0" stroke-linecap="round" stroke-linejoin="round" stroke="#231f20" fill="#333333"></path><path d="M9 57a2 2 0 1 0 4 0 2 2 0 1 0-4 0" fill="#666666" stroke-linecap="round" stroke-linejoin="round" stroke="#231f20"></path><path d="m48 42 8.11-5.406A2 2 0 0 0 57 34.93v-1.86a2 2 0 0 0-.89-1.664l-1.095-.73a2 2 0 0 0-2.081-.084L45 35Z" fill="#ffffff" stroke-linecap="round" stroke-linejoin="round" stroke="#231f20"></path><path d="m47.549 35.871 6.356-3.531 1.095.73 0 1.86-6.109 4.072-1.342-3.131z" stroke="#ffc700" fill="none" stroke-linecap="round" stroke-linejoin="round"></path><path d="M10 35h41s2 0 2 2v6s0 2-2 2H10s-2 0-2-2v-6s0-2 2-2" fill="#ffffff" stroke-linecap="round" stroke-linejoin="round" stroke="#231f20"></path><path d="M47.5 39h3s.5 0 .5.5v3s0 .5-.5.5h-3s-.5 0-.5-.5v-3s0-.5.5-.5" stroke="#e4e4e4" fill="#e4e4e4" stroke-linecap="round" stroke-linejoin="round"></path><path d="m53 57 0-6-7-6-7 6 0 6" fill="none" stroke-linecap="round" stroke-linejoin="round" stroke="#231f20"></path><path d="m46 45-10-5-13 11 0 6" fill="none" stroke-linecap="round" stroke-linejoin="round" stroke="#231f20"></path><path d="M57 51h-4a6 6 0 0 0 0 12h4a6 6 0 0 0 0-12Z" fill="#1e4bde" stroke-linecap="round" stroke-linejoin="round" stroke="#231f20"></path><path d="M51 57a6 6 0 1 0 12 0 6 6 0 1 0-12 0" fill="#c8d4fa" stroke-linecap="round" stroke-linejoin="round" stroke="#231f20"></path><path d="M54 57a3 3 0 1 0 6 0 3 3 0 1 0-6 0" fill="#ffffff" stroke-linecap="round" stroke-linejoin="round" stroke="#231f20"></path><path d="M44 45a2 2 0 1 0 4 0 2 2 0 1 0-4 0" fill="#ffffff" stroke-linecap="round" stroke-linejoin="round" stroke="#231f20"></path><path d="M45.75 45a.25.25 0 1 0 .5 0 .25.25 0 1 0-.5 0" stroke="#b1b1b1" fill="#b1b1b1" stroke-linecap="round" stroke-linejoin="round"></path><path d="M34 40a2 2 0 1 0 4 0 2 2 0 1 0-4 0" fill="#ffffff" stroke-linecap="round" stroke-linejoin="round" stroke="#231f20"></path><path d="M35.75 40a.25.25 0 1 0 .5 0 .25.25 0 1 0-.5 0" stroke="#b1b1b1" fill="#b1b1b1" stroke-linecap="round" stroke-linejoin="round"></path><path d="M57 51h-4a6 6 0 0 0 0 12h4a6 6 0 0 0 0-12Z" fill="#231f20" stroke-linecap="round" stroke-linejoin="round" stroke="#231f20"></path><path d="M51 57a6 6 0 1 0 12 0 6 6 0 1 0-12 0" fill="#666666" stroke-linecap="round" stroke-linejoin="round" stroke="#231f20"></path><path d="M55 57a2 2 0 1 0 4 0 2 2 0 1 0-4 0" fill="#999999" stroke-linecap="round" stroke-linejoin="round" stroke="#231f20"></path><path d="M43 51h-4a6 6 0 0 0 0 12h4a6 6 0 0 0 0-12Z" fill="#231f20" stroke-linecap="round" stroke-linejoin="round" stroke="#231f20"></path><path d="M37 57a6 6 0 1 0 12 0 6 6 0 1 0-12 0" fill="#666666" stroke-linecap="round" stroke-linejoin="round" stroke="#231f20"></path><path d="M41 57a2 2 0 1 0 4 0 2 2 0 1 0-4 0" fill="#999999" stroke-linecap="round" stroke-linejoin="round" stroke="#231f20"></path><path d="M27 51h-4a6 6 0 0 0 0 12h4a6 6 0 0 0 0-12Z" fill="#231f20" stroke-linecap="round" stroke-linejoin="round" stroke="#231f20"></path><path d="M21 57a6 6 0 1 0 12 0 6 6 0 1 0-12 0" fill="#666666" stroke-linecap="round" stroke-linejoin="round" stroke="#231f20"></path><path d="M25 57a2 2 0 1 0 4 0 2 2 0 1 0-4 0" fill="#999999" stroke-linecap="round" stroke-linejoin="round" stroke="#231f20"></path><path d="M10 35h16s2 0 2 2v6s0 2-2 2H10s-2 0-2-2v-6s0-2 2-2" fill="#b1b1b1" stroke-linecap="round" stroke-linejoin="round" stroke="#231f20"></path><path d="m54 30 0-10" fill="none" stroke-linecap="round" stroke-linejoin="round" stroke="#231f20"></path><path transform="rotate(-90 20.5 12.5)" d="M17 2h7s2 0 2 2v17s0 2-2 2h-7s-2 0-2-2V4s0-2 2-2" fill="#ffffff" stroke-linecap="round" stroke-linejoin="round" stroke="#231f20"></path><path d="M10 15h21l0 0v1a2 2 0 0 1-2 2H12a2 2 0 0 1-2-2v-1l0 0Z" fill="#666666" stroke-linecap="round" stroke-linejoin="round" stroke="#231f20"></path><path transform="rotate(-90 17.5 12.5)" d="M14 5h7s2 0 2 2v11s0 2-2 2h-7s-2 0-2-2V7s0-2 2-2" fill="#b1b1b1" stroke-linecap="round" stroke-linejoin="round" stroke="#231f20"></path><path d="M10 15h15l0 0v1a2 2 0 0 1-2 2H12a2 2 0 0 1-2-2v-1l0 0Z" stroke-linecap="round" stroke-linejoin="round" stroke="#231f20" fill="#333333"></path><path d="M21 10h0s1 0 1 1v0s0 1-1 1h0s-1 0-1-1v0s0-1 1-1" fill="#33ddff" stroke-linecap="round" stroke-linejoin="round" stroke="#231f20"></path><path d="m18 25-2 0 4-7 2 0-4 7z" fill="#ffffff" stroke-linecap="round" stroke-linejoin="round" stroke="#231f20"></path><path d="m16 25-2 0 4-7 2 0-4 7z" fill="#e4e4e4" stroke-linecap="round" stroke-linejoin="round" stroke="#231f20"></path><path d="m17 33 2 0-3-8-2 0 3 8z" fill="#e4e4e4" stroke-linecap="round" stroke-linejoin="round" stroke="#231f20"></path><path d="m19 33 2 0-3-8-2 0 3 8z" fill="#ffffff" stroke-linecap="round" stroke-linejoin="round" stroke="#231f20"></path><path d="M18 23h-3a2 2 0 0 0 0 4h3a2 2 0 0 0 0-4Z" fill="#e4e4e4" stroke-linecap="round" stroke-linejoin="round" stroke="#231f20"></path><path d="M16 25a2 2 0 1 0 4 0 2 2 0 1 0-4 0" fill="#ffffff" stroke-linecap="round" stroke-linejoin="round" stroke="#231f20"></path><path d="M20 31h-3a2 2 0 0 0-2 2v2h7v-2a2 2 0 0 0-2-2Z" fill="#e4e4e4" stroke-linecap="round" stroke-linejoin="round" stroke="#231f20"></path><path d="M18 35v-2a2 2 0 0 1 4 0v2Z" fill="#ffffff" stroke-linecap="round" stroke-linejoin="round" stroke="#231f20"></path><path d="M29 33h6a1 1 0 0 1 1 1v1l0 0h-8l0 0v-1a1 1 0 0 1 1-1Z" fill="#ffffff" stroke-linecap="round" stroke-linejoin="round" stroke="#231f20"></path><path d="M27 33h4a1 1 0 0 1 1 1v1l0 0h-6l0 0v-1a1 1 0 0 1 1-1Z" fill="#b1b1b1" stroke-linecap="round" stroke-linejoin="round" stroke="#231f20"></path><path d="M25 38h-6a2 2 0 0 0 0 4h6Z" fill="#c8d4fa" stroke-linecap="round" stroke-linejoin="round" stroke="#231f20"></path><path d="m22 39 0 2-7-3 0-2 7 3z" fill="#ffffff" stroke-linecap="round" stroke-linejoin="round" stroke="#231f20"></path><path d="m15 38-4 0 7 3 4 0-7-3z" fill="#b1b1b1" stroke-linecap="round" stroke-linejoin="round" stroke="#231f20"></path><path d="M25 42h-3a2 2 0 0 1 0-4h3Z" fill="#ffffff" stroke-linecap="round" stroke-linejoin="round" stroke="#231f20"></path><path d="m9 47 2 0 3-10-2 0-3 10z" fill="#e4e4e4" stroke-linecap="round" stroke-linejoin="round" stroke="#231f20"></path><path d="m11 47 2 0 3-10-2 0-3 10z" fill="#ffffff" stroke-linecap="round" stroke-linejoin="round" stroke="#231f20"></path><path d="M15 35h-3a2 2 0 0 0 0 4h3a2 2 0 0 0 0-4Z" fill="#e4e4e4" stroke-linecap="round" stroke-linejoin="round" stroke="#231f20"></path><path d="M13 37a2 2 0 1 0 4 0 2 2 0 1 0-4 0" fill="#ffffff" stroke-linecap="round" stroke-linejoin="round" stroke="#231f20"></path><path d="M4 49h14s1 0 1 1v2s0 1-1 1H4s-1 0-1-1v-2s0-1 1-1" fill="#ffffff" stroke-linecap="round" stroke-linejoin="round" stroke="#231f20"></path><path transform="rotate(-180 8 51)" d="M4 49h8s1 0 1 1v2s0 1-1 1H4s-1 0-1-1v-2s0-1 1-1" fill="#e4e4e4" stroke-linecap="round" stroke-linejoin="round" stroke="#231f20"></path><path d="m11.25 51-1 0" fill="none" stroke-linecap="round" stroke-linejoin="round" stroke="#231f20"></path><path d="m4.75 51 1 0" fill="none" stroke-linecap="round" stroke-linejoin="round" stroke="#231f20"></path><path d="M7.75 51a.25.25 0 1 0 .5 0 .25.25 0 1 0-.5 0" fill="#ff3446" stroke-linecap="round" stroke-linejoin="round" stroke="#231f20"></path><path d="M12.5 45h-3a2 2 0 0 0-2 2v2h7v-2a2 2 0 0 0-2-2Z" fill="#e4e4e4" stroke-linecap="round" stroke-linejoin="round" stroke="#231f20"></path><path d="M10.5 49v-2a2 2 0 0 1 4 0v2Z" fill="#ffffff" stroke-linecap="round" stroke-linejoin="round" stroke="#231f20"></path><path d="M1 21a2 2 0 1 0 4 0 2 2 0 1 0-4 0" fill="#ffc700" stroke="#ffc700" stroke-linecap="round" stroke-linejoin="round"></path><path d="M54 14a2 2 0 1 0 4 0 2 2 0 1 0-4 0" fill="#ffc700" stroke="#ffc700" stroke-linecap="round" stroke-linejoin="round"></path><path d="M38 16.125a.125.125 0 1 0 .25 0 .125.125 0 1 0-.25 0" fill="#ffc700" stroke="#ffc700" stroke-linecap="round" stroke-linejoin="round"></path><path d="M47 23a.125.125 0 1 0 .25 0 .125.125 0 1 0-.25 0" fill="#ffc700" stroke="#ffc700" stroke-linecap="round" stroke-linejoin="round"></path><path d="M7.875 28.875a.125.125 0 1 0 .25 0 .125.125 0 1 0-.25 0" fill="#ffc700" stroke="#ffc700" stroke-linecap="round" stroke-linejoin="round"></path><path d="M59 25a.125.125 0 1 0 .25 0 .125.125 0 1 0-.25 0" fill="#ffc700" stroke="#ffc700" stroke-linecap="round" stroke-linejoin="round"></path><path d="M23.75 1.938a.125.125 0 1 0 .25 0 .125.125 0 1 0-.25 0" fill="#ffc700" stroke="#ffc700" stroke-linecap="round" stroke-linejoin="round"></path><path d="M56.062 4.063A.063.063 0 1 1 56 4a.062.062 0 0 1 .062.063Z" fill="#ffc700" stroke="#ffc700" stroke-linecap="round" stroke-linejoin="round"></path><path d="M6.125 3.938a.063.063 0 1 1-.062-.063.062.062 0 0 1 .062.063Z" fill="#ffc700" stroke="#ffc700" stroke-linecap="round" stroke-linejoin="round"></path><path d="M27 25.5a.5.5 0 1 0 1 0 .5.5 0 1 0-1 0" fill="#ffc700" stroke="#ffc700" stroke-linecap="round" stroke-linejoin="round"></path><path d="M39 6.5a5.5 5.5 0 1 0 11 0 5.5 5.5 0 1 0-11 0" stroke="#e4e4e4" fill="#e4e4e4" stroke-linecap="round" stroke-linejoin="round"></path></g></g></svg>