<svg xmlns="http://www.w3.org/2000/svg" viewBox="0 0 400 400" xml:space="preserve" height="400" width="400"><g><switch><g><path fill="#56c8ee" d="M379.94 318.25c-0.73 -1.74 -1.45 -3.49 -2.18 -5.23 -0.13 -0.32 -0.44 -0.8 -0.55 -1.19 -0.61 0.07 -1.41 -0.07 -1.93 -0.07H175.89c-5.46 12.01 -10.92 24.01 -16.38 36.02 0.79 -0.03 1.73 0.12 2.34 0.11 2.01 -0.01 4.02 -0.03 6.03 -0.04 6.45 -0.04 12.9 -0.09 19.35 -0.13 19.74 -0.14 39.48 -0.27 59.22 -0.41 22.66 -0.16 45.31 -0.31 67.97 -0.47l56.41 -0.39c6.93 -0.05 13.87 -0.1 20.8 -0.14 -3.89 -9.35 -7.79 -18.71 -11.69 -28.06z" stroke-width="1"></path><path fill="#f33b2f" d="M38.05 184.64c-1.59 -1.14 -3.32 -1.47 -4.65 0.05 -1.44 1.65 -0.91 3.44 -0.5 5.5 0.19 0.93 -1.01 3.25 -2.12 2.19 -2.21 -2.12 -5.03 -4.76 -8.33 -4.68 -5.26 0.13 -5.26 6.27 -1.57 8.63 1.1 0.7 -0.23 2.59 -1.08 2.85 -2.62 0.83 -7.14 3.24 -6.98 6.6 0.18 3.6 5.28 2.17 7.5 2.29 1.28 0.07 0.26 2.2 -0.24 2.6 -2.51 2 -3.59 7.18 0.57 8.05 3.1 0.65 5.2 -1.99 6.69 -4.27 0.6 -0.93 2.27 -1.53 1.97 0.2 -0.61 3.47 0.05 7.55 4.29 8.04 1.29 0.15 2.3 -0.14 3.11 -0.7 0.28 -0.49 0.62 -0.76 0.93 -0.85 1.26 -1.48 1.85 -3.75 2.27 -5.68 0.1 -0.48 1.57 -2.73 2.14 -1.51 1.38 2.98 4.39 5.23 7.74 5.39 3.44 0.17 4.05 -2.89 2.63 -5.26 -0.93 -1.55 -2.35 -2.74 -3.71 -3.89 -0.93 -0.79 0.09 -2.6 1.08 -2.85 2.7 -0.68 8.3 -2.42 5.92 -6.28 -1.22 -1.98 -4.48 -1.81 -6.49 -1.75 -1.49 0.05 0.03 -2.49 0.53 -2.81 1.03 -0.65 2.32 -1.36 3.03 -2.39 1.3 -1.88 0.28 -3.81 -1.77 -4.22 -2.41 -0.49 -6.29 0.72 -7.38 3.05 -0.69 1.46 -2.94 1.76 -2.06 -0.16 0 -0.02 -0.01 -0.03 -0.02 -0.05 -0.45 -2.86 -0.97 -6.28 -3.5 -8.09zM205.99 51.76c1.37 -0.88 2.81 -1.61 4.3 -2.18a6.082 6.082 0 0 0 -2.4 -1.48c-1.32 -0.45 0.49 -2.82 1.36 -2.88 3.46 -0.25 6.72 -3.8 7.08 -7.23 0.31 -2.98 -2.67 -5.86 -4.97 -7.29 -5.16 -3.23 -11.95 -2.33 -15.97 2.27 -1.41 1.61 -2.27 -0.39 -1.21 -1.65 -0.11 -0.33 -0.07 -0.8 0.24 -1.33 1.5 -2.6 2.98 -7.65 0.44 -10.15 -3.41 -3.36 -6.33 4.63 -6.87 6.95 -0.16 0.67 -1.76 2.82 -2.26 1.25 -1.05 -3.32 -3.28 -6.52 -6.5 -8.06 -0.87 -0.42 -2.24 -0.86 -3.24 -0.56 -2.2 0.67 -1.7 3.45 -1.33 4.94 0.48 1.96 1.5 3.65 2.79 5.17 0.78 0.92 -0.7 3.03 -1.81 2.62 -2.14 -0.78 -15.87 -4.32 -13.65 1.92 1.38 3.87 7.56 3.31 10.72 4.27 1.33 0.4 0.25 2.37 -0.53 2.81 -3.3 1.85 -7.65 4.08 -8.34 8.2 -0.31 1.84 0.24 3.95 1.77 5.16 1.39 1.1 4.12 1.51 5.24 -0.31 0.83 -1.35 2.43 -1.17 1.87 0.58 -1.33 4.1 -2.33 9.93 1.37 13.17 5.01 4.4 8.05 -4.77 8.45 -8.3 0.08 -0.72 2.02 -2.79 2.26 -1.25 0.51 3.34 2.62 10.4 7.14 9.45 4.65 -0.98 4.82 -7.54 4.32 -11.2 -0.1 -0.75 1.2 -3.52 2.12 -2.19 2.37 3.4 7.03 5.61 10.99 3.41 2.57 -1.43 3.14 -3.9 2.38 -6.05 -2.01 0.57 -3.91 1.45 -5.7 2.6 -1.6 1.02 -1.08 -2.01 -0.06 -2.66zM63.05 75.64c-2.17 -2.77 -6.44 -5.91 -10.24 -5.4 -3.91 0.53 -2.24 5.31 -1.02 7.23 1.04 1.64 2.48 2.76 4.24 3.54 1.09 0.49 -0.22 2.77 -1.08 2.85 -2.11 0.21 -4.15 0.68 -6.03 1.72 -1.85 1.03 -4.31 3.08 -2.85 5.38 2.1 3.31 6.33 -1.05 8.56 -2.16 1.53 -0.76 1.22 1.49 0.62 2.17 -2.15 2.44 -3.5 6.98 -1.2 9.82 1.43 1.77 4.01 1.14 5.19 -0.6 0.86 -1.27 1.03 -3.05 1.28 -4.53 0.23 -1.35 2.5 -2.7 2.27 -0.58 -0.39 3.56 1.3 7.18 4.22 9.24 0.65 0.46 1.44 1.02 2.25 1.12 1.41 0.18 1.46 -0.37 1.79 -1.47 0.66 -2.22 0.19 -5.28 -0.15 -7.52 -0.12 -0.77 1.17 -3.48 2.12 -2.19 1.67 2.27 5.28 1.14 4.42 -1.99 -0.59 -2.15 -2.68 -3.42 -4.68 -4.05 -1.48 -0.46 -0.07 -2.6 0.83 -2.93 2.18 -0.8 4.12 -2.06 5.59 -3.87 1.07 -1.31 1.63 -3.48 -0.71 -3.45 -0.79 0.01 -1.63 0.62 -2.27 1.01 -1.52 0.92 -1.12 -1.54 -0.62 -2.17 2.6 -3.29 3.86 -10.15 -2.04 -10.26 -4.44 -0.08 -6.36 4.34 -7.83 7.81 -0.27 0.65 -0.84 1.07 -1.34 1.18 -0.46 0.41 -0.97 0.56 -1.32 0.1z" stroke-width="1"></path><path fill="#f546c4" d="M277.91 147.96c0.32 -0.76 0.64 -1.49 0.89 -2.18 0.25 -0.69 0.82 -1.12 1.31 -1.23 0.11 -0.17 0.24 -0.31 0.38 -0.4 0.61 -0.42 1.44 -0.55 2.36 -0.52 -0.85 -3.76 -1.69 -7.52 -2.54 -11.29 -5.09 5.21 -10.18 10.42 -15.27 15.62h12.87zm-35.23 37.67c-3.21 -0.28 -6.25 -1.4 -8.75 -3.63 -2.31 -2.07 -3.93 -4.89 -4.94 -7.95 -2.24 5.69 -4.14 11.52 -5.86 17.38 -0.11 0.36 -0.21 0.73 -0.31 1.09 3.44 -2.01 7.35 -3.47 9.67 -4.23 3.33 -1.1 6.75 -1.95 10.19 -2.66zm-8.62 5.1 -0.06 -0.18c-0.05 0.02 -0.11 0.03 -0.16 0.05 0.08 0.04 0.15 0.08 0.22 0.13z" stroke-width="1"></path><path fill="#f546c4" d="M308.5 148.73c-1.12 0.74 -2.39 1.94 -3.73 2.19 -0.98 0.18 -2.17 0 -3.17 0h-2.31c-0.05 0.4 -0.13 0.84 -0.21 1.34 -0.29 1.76 -0.36 3.92 -1.4 5.48 -0.18 0.27 -0.39 0.53 -0.64 0.76 -1.75 1.63 -4.39 0.86 -6.47 0.5 -2.22 -0.38 -4.43 -0.85 -6.61 -1.42 -1.04 -0.27 -2.07 -0.55 -3.09 -0.86 -1.59 -0.49 -3.18 -0.93 -3.89 -2.26 -0.21 -0.39 -0.34 -0.85 -0.37 -1.41 -0.04 -0.7 0.06 -1.41 0.24 -2.13h-31.39c-0.93 0 -2.15 -0.2 -3.11 -0.05 -0.04 0.06 -0.12 0.17 -0.27 0.39 -0.38 0.58 -1.08 1.08 -1.54 1.61a38.294 38.294 0 0 0 -3.09 4.05c-0.03 0.04 -0.06 0.09 -0.09 0.14 -0.64 0.96 -1.25 1.95 -1.83 2.95 -0.71 1.23 -1.39 2.47 -2.03 3.74 1.78 0.06 3.55 0.13 5.33 0.19 0.95 0.03 1.9 0.07 2.85 0.1 -0.42 -1.16 -0.31 -2.55 0.06 -3.96 0.27 -1.01 0.66 -2.02 1.1 -2.96 0.2 -0.42 0.4 -0.83 0.6 -1.21 -0.02 -0.84 0.82 -2.3 1.69 -2.38 3.48 -0.29 6.95 -0.2 10.39 0.38 0.45 0.08 0.96 0.16 1.49 0.25s1.09 0.19 1.66 0.3c1.88 0.37 3.85 0.92 5.07 1.87 0.37 0.29 0.61 0.64 0.77 1.04 0.35 0.88 0.28 1.97 0.17 2.97 -0.04 0.38 -0.09 0.74 -0.13 1.08 -0.12 1.18 -0.34 2.38 -0.89 3.39 13.52 0.48 27.05 0.95 40.57 1.43l18.87 -4.41c0.09 -0.28 0.17 -0.55 0.25 -0.82 0 -0.01 0.01 -0.03 0.01 -0.04 0.26 -0.97 0.52 -1.95 0.79 -2.92 0.75 -2.77 1.49 -5.54 2.24 -8.31 1.4 -5.19 2.79 -10.38 4.19 -15.58 -4.28 2.83 -8.57 5.65 -12.85 8.48 -3.05 2.02 -6.14 4.06 -9.23 6.09zm20.59 67.05c0 -0.02 -0.01 -0.04 -0.01 -0.07 -0.07 -0.5 -0.13 -1 -0.2 -1.51 -0.06 -0.49 -0.13 -0.98 -0.19 -1.47 -0.31 -2.35 -0.61 -4.71 -0.92 -7.06 -1.12 -8.61 -2.25 -17.22 -3.37 -25.84 -0.43 -3.28 -0.85 -6.55 -1.28 -9.83 -0.21 -1.64 -0.67 -3.43 -0.66 -5.09 0 -0.05 0.01 -0.11 0.01 -0.17 -5.33 1.25 -10.66 2.49 -15.99 3.74 -0.88 10.97 -10.19 20.38 -21.5 19.71 -8.5 -0.5 -16.02 -6.37 -18.49 -14.48 -1.19 1.69 -2.63 3.25 -4.11 4.62 -2.2 2.04 -5.04 3.86 -8.14 5.18 4.59 -0.77 9.23 -1.35 13.83 -0.48 1.45 0.27 0.1 3.19 -1.11 2.96 -5.87 -1.11 -11.8 0.19 -17.61 1.17 -4.29 0.73 -8.57 1.54 -12.77 2.65 0.55 1.29 1.47 2.68 1.82 3.82 0.54 1.76 0.85 3.59 0.95 5.43 0.21 3.8 -0.56 7.56 -2.15 11.01 5.21 0.84 10.59 1.02 15.79 1.27l1.75 0.09 3.43 0.18c1.88 0.09 3.76 0.18 5.64 0.24 4.52 0.16 9.04 0.21 13.55 0.03a19.732 19.732 0 0 1 1.05 -3.9c0.2 -0.51 0.42 -1.02 0.67 -1.51 0.85 -1.66 1.99 -3.11 3.47 -3.82 2 -0.96 3.29 0.69 4.16 2.84 0.19 0.46 0.36 0.95 0.51 1.44v0.01s0 -0.01 0.01 -0.01c0.26 -0.55 0.55 -1.09 0.87 -1.59 0.68 -1.05 1.5 -1.96 2.43 -2.62 2.46 -1.73 3.78 -0.08 4.57 2.05 0.19 0.51 0.34 1.04 0.48 1.57 0.12 0.47 0.23 0.94 0.32 1.37 0.06 0.29 0.12 0.57 0.18 0.82 0.03 0.12 0.02 0.26 0 0.4 1 -0.37 1.98 -0.8 2.93 -1.27 0.84 -0.43 1.66 -0.9 2.42 -1.41 0.72 -0.49 1.41 -1.01 2.04 -1.58 2.72 -2.45 4.5 -5.7 4.44 -9.96 -0.02 -1.23 2.3 -3.2 2.33 -1.29 0.07 4.57 -1.54 8.36 -4.15 11.38 -0.46 0.54 -0.96 1.05 -1.48 1.54s-1.08 0.96 -1.65 1.41c-4.15 3.21 -9.52 5.18 -14.64 6 -11.97 1.9 -24.29 1.26 -36.37 0.57l-2.6 -0.15c-0.63 -0.04 -1.27 -0.07 -1.92 -0.1 -1.46 -0.08 -2.98 -0.16 -4.52 -0.27 -8.42 -0.58 -17.75 -1.89 -23.81 -7.43 -0.24 0.98 -0.46 1.95 -0.69 2.93 -0.13 0.55 -0.26 1.11 -0.38 1.66 -0.13 0.56 -0.24 1.12 -0.37 1.67 -0.62 2.84 -1.2 5.68 -1.72 8.53l0.66 0.12c0.9 0.17 1.81 0.35 2.71 0.51 0.33 0.06 0.66 0.12 0.99 0.17 0.59 0.1 1.18 0.2 1.78 0.3 9.69 1.6 19.47 2.56 29.29 3.01 24.69 1.13 50.14 -0.18 74.58 -4.62 1.13 -0.2 2.25 -0.42 3.37 -0.64l0.31 -0.06 -0.36 -2.74 -0.18 -1.43zm58.08 14.45c1.08 -2.82 0.25 -6.02 -1.81 -8.2 -1 -1.06 -2.21 -1.7 -3.5 -2.06 -0.73 -0.2 -1.48 -0.32 -2.25 -0.36 -0.66 -0.04 -1.33 -0.03 -2 0.01 -0.42 0.03 -0.84 0.07 -1.25 0.12 -0.12 0.01 -0.24 0.03 -0.35 0.05 -0.3 0.04 -0.61 0.09 -0.91 0.14 -1.3 0.22 -2.59 0.5 -3.86 0.84 -1.2 0.32 -4.1 0.94 -4.77 2.11 -1.22 2.13 3.29 1.62 4.27 1.61 1.69 -0.02 3.36 -0.16 5.03 -0.38 0.29 -0.04 0.57 -0.07 0.86 -0.11 0.16 -0.02 0.28 -0.01 0.39 0.01 0.6 0.13 0.56 0.89 0.25 1.6 -0.25 0.56 -0.66 1.07 -1.08 1.25 -0.04 0.02 -0.07 0.03 -0.11 0.04 -1.92 0.52 -3.82 1.1 -5.69 1.77 -0.88 0.32 -1.76 0.66 -2.63 1.02 -0.88 0.37 -1.9 0.44 -0.65 1.01 1.42 0.65 4.65 0.1 6.08 -0.08 1.18 -0.15 2.33 -0.38 3.48 -0.67 0.41 -0.1 0.81 -0.21 1.22 -0.33 0.19 -0.05 0.37 -0.1 0.56 -0.16 0.37 -0.11 0.6 -0.03 0.71 0.17l0.01 0.01c0.07 0.13 0.1 0.32 0.08 0.53 -0.02 0.2 -0.06 0.42 -0.14 0.65 -0.17 0.5 -0.48 1.01 -0.83 1.32 -0.12 0.11 -0.25 0.19 -0.38 0.23 -0.27 0.09 -0.54 0.2 -0.81 0.3a52.29 52.29 0 0 0 -6.37 2.79c-0.52 0.27 -1.05 0.54 -1.56 0.83 -0.15 0.09 -0.31 0.18 -0.46 0.27 0.4 0.23 0.86 0.3 1.3 0.38 0.03 0 0.05 0.01 0.08 0.01 1.22 0.22 2.54 0.23 3.78 0.29 1.18 0.06 2.54 0.04 3.93 -0.09 0.23 -0.02 0.45 -0.05 0.68 -0.07 0.12 -0.01 0.24 -0.03 0.36 -0.05 0.43 -0.06 0.85 -0.13 1.27 -0.22 0.34 -0.07 0.68 -0.15 1.02 -0.23 2.89 -0.76 5.46 -2.24 6.43 -4.95 -0.47 -0.06 -0.72 -0.5 -0.38 -1.4zm-11.7 -12.89 0.99 -0.25v-0.01c0.01 -0.05 0.01 -0.11 0.02 -0.19 0.02 -0.23 0.05 -0.58 0.07 -1.01 0.13 -2.77 0.08 -8.93 -1.74 -7.79 -0.92 0.57 -1.49 3.82 -1.67 4.74 -0.2 0.97 -0.29 1.94 -0.33 2.92 -0.02 0.5 -0.03 1 -0.01 1.5 0 0.13 0 0.25 0.01 0.38v0.06c0 0.11 -0.02 0.24 -0.05 0.36l2.71 -0.71z" stroke-width="1"></path><path fill="#f4d300" d="M296.8 150.92c-0.04 -0.1 -0.08 -0.19 -0.13 -0.26 -0.37 -0.48 -1.38 -0.89 -2.45 -1.22 -1.15 -0.35 -2.38 -0.62 -2.95 -0.8 -0.82 -0.25 -1.66 -0.48 -2.49 -0.68 -0.79 -0.19 -1.58 -0.37 -2.38 -0.52 -0.25 -0.05 -0.49 -0.1 -0.74 -0.14 -0.18 -0.03 -0.41 -0.08 -0.66 -0.14 -0.41 -0.1 -0.9 -0.21 -1.41 -0.32 -1.18 -0.25 -2.45 -0.42 -3.03 -0.03 -0.14 0.38 -0.28 0.77 -0.42 1.15 -0.06 0.18 -0.13 0.35 -0.19 0.53 -0.1 0.27 -0.21 0.59 -0.32 0.95 -0.14 0.46 -0.28 0.98 -0.34 1.48 -0.09 0.72 -0.05 1.42 0.31 1.91 0.31 0.43 2.85 1.06 2.89 1.07 0.95 0.29 1.9 0.55 2.86 0.79 0.01 0 0.01 0 0.02 0.01 0.11 0.03 0.23 0.05 0.34 0.08 0.58 0.15 1.17 0.28 1.76 0.41 1.08 0.24 2.17 0.47 3.26 0.67 1.02 0.19 4.28 1.26 5.17 0.63 0.88 -0.61 1.37 -4.3 0.9 -5.57zm-34.48 9.39c-0.24 -1.06 -0.7 -1.38 -1.88 -1.93 -1.14 -0.53 -2.47 -0.85 -3.77 -1.11 -0.59 -0.12 -1.18 -0.22 -1.74 -0.33 -3.17 -0.58 -6.36 -0.74 -9.56 -0.56 -0.04 0.13 -0.09 0.25 -0.16 0.39 -0.06 0.12 -0.12 0.24 -0.19 0.36 -0.45 0.88 -0.9 1.94 -1.09 2.96 -0.28 1.52 0.04 2.93 1.89 3.47 1.19 0.35 2.46 0.57 3.71 0.74l9.34 0.33c1.06 -0.1 2.06 -0.37 2.73 -1.11 0.7 -0.78 0.96 -1.75 0.8 -2.81 -0.03 -0.14 -0.06 -0.28 -0.08 -0.4zm-76.67 -60.02c-15.73 4.82 -32.38 7.44 -48.74 9.07 -10.4 15.01 -19.37 31.04 -26.31 47.95 -8.65 21.05 -14.32 43.5 -15.61 66.26 -0.46 8.13 -0.64 17.07 0.67 24.96 19.52 -6.67 38.37 -15.32 55.81 -26.39 7.04 -4.47 13.85 -9.35 20.35 -14.6 0.21 -0.17 0.41 -0.33 0.61 -0.5 0.14 -0.11 0.27 -0.22 0.41 -0.34l0.02 -0.02c0.09 -0.07 0.17 -0.14 0.26 -0.21 0.43 -0.36 0.87 -0.7 1.3 -1.06 0.11 -0.09 0.22 -0.19 0.33 -0.28 4.31 -3.62 8.46 -7.42 12.45 -11.39 0.39 -0.39 0.79 -0.78 1.18 -1.17 0.39 -0.39 0.77 -0.79 1.15 -1.19 6.31 -6.5 12.15 -13.44 17.41 -20.83 2.46 -3.46 4.91 -7.06 7.16 -10.79 0.59 -0.98 1.16 -1.96 1.72 -2.95 1.89 -3.38 3.57 -6.84 4.89 -10.37 -11.48 -14.45 -18.71 -33.41 -21.38 -51.68 -4.3 2.41 -9 4.09 -13.68 5.53zm-72.36 71.57c-2.5 6.52 -4.49 13.27 -6.25 20.03 -3.59 13.79 -6.1 28.04 -5.88 42.33 0.02 1.23 -2.3 3.2 -2.33 1.29 -0.22 -14.53 2.29 -29.03 5.94 -43.05 1.82 -7.01 3.87 -14.03 6.46 -20.79 0.6 -1.55 2.83 -1.82 2.06 0.19zm6.4 8.9c0.92 -1.68 1.84 -3.37 2.76 -5.05 6.38 -11.66 12.75 -23.33 19.13 -34.99 0.09 -0.21 0.21 -0.42 0.35 -0.6 0.17 -0.25 0.35 -0.42 0.54 -0.53 0.31 -0.21 0.65 -0.3 0.97 -0.16 1 0.44 2 0.88 3 1.31 2.04 -3.09 4.52 -5.95 7.16 -8.52 4.36 -4.22 9.86 -7.91 16.06 -8.4 5.76 -0.46 12.98 2.16 14.97 8.07 2.5 7.42 -2.77 16.27 -7.64 22.21 0.32 0.14 0.63 0.28 0.95 0.41 0.64 0.28 0.36 1.16 0.06 1.76 -0.1 0.2 -0.2 0.37 -0.28 0.48 -0.6 0.86 -1.19 1.72 -1.79 2.57 -0.52 0.75 -1.04 1.49 -1.56 2.24l-0.81 1.17c-0.76 1.09 -1.52 2.18 -2.28 3.28 -6.75 9.72 -13.5 19.43 -20.25 29.15 -0.29 0.42 -0.9 0.78 -1.4 0.56 -9.97 -4.36 -19.94 -8.72 -29.91 -13.07 -0.67 -0.3 -0.26 -1.46 -0.03 -1.89zm89.19 -31.55c0.95 -1.74 2.62 -0.75 1.68 0.97 -1.21 2.21 -2.47 4.39 -3.79 6.53 -0.61 0.99 -1.23 1.97 -1.86 2.95 -5.07 7.85 -10.85 15.24 -17.19 22.12 -4.21 4.56 -8.65 8.9 -13.28 13.04 -0.77 0.68 -1.53 1.36 -2.31 2.04 -9.08 7.86 -18.86 14.92 -29.1 21.18 -7.2 4.41 -14.68 8.67 -22.49 11.91 -1.78 0.74 -1.2 -2.19 -0.04 -2.67 2.58 -1.07 5.09 -2.31 7.58 -3.57 15.62 -7.9 30.62 -17.76 43.98 -29.44 0.78 -0.68 1.55 -1.36 2.31 -2.05 10.73 -9.69 20.32 -20.58 28.22 -32.58 0.64 -0.98 1.27 -1.96 1.89 -2.95 1.55 -2.46 3.02 -4.95 4.4 -7.48z" stroke-width="1"></path><path fill="#f4d300" d="M180.13 145.74c2.17 -4.06 4.15 -9.54 1.33 -13.78 -3.28 -4.91 -10.57 -6.11 -15.9 -4.61 -7.08 2 -13.24 8.01 -17.32 14.17 8.95 3.91 17.89 7.83 26.84 11.74 1.93 -2.31 3.63 -4.87 5.05 -7.52z" stroke-width="1"></path><path fill="#56c8ee" d="m334.87 233.87 0.24 1.61h31.59c0.42 -0.57 0.99 -1.05 1.62 -1.46 -2.69 0 -4.81 -0.7 -4.56 -2.94 0.2 -1.86 1.57 -2.94 3.12 -3.69 -1.75 -0.14 -3.22 -0.71 -3.22 -2.79 0 -3.08 2.87 -4.9 5.76 -5.99 -5.52 -0.19 -11.04 -0.39 -16.56 -0.58 -7.02 -0.25 -14.05 -0.49 -21.07 -0.74 0.06 0.49 0.13 0.98 0.19 1.47 1.56 4.82 2.15 10.19 2.89 15.11zm-122.55 -2.29c0.3 -2.69 0.68 -5.36 1.17 -8 0 -0.02 0.01 -0.04 0.02 -0.06 -0.01 -0.04 -0.03 -0.09 -0.04 -0.14 -0.05 -0.24 -0.02 -0.53 0.06 -0.82 0.67 -3.71 1.43 -7.41 2.25 -11.1 -8.94 -5.54 -17.87 -11.08 -26.81 -16.61 -4.09 4.12 -8.35 8.06 -12.77 11.8 0.84 0.58 1.69 1.16 2.53 1.75 11.2 7.72 22.39 15.45 33.59 23.18zm55.22 37.1c-6.4 -13.46 -12.8 -26.93 -19.21 -40.39 0 -0.01 -0.01 -0.02 -0.01 -0.03 -9.61 -0.55 -19.16 -1.61 -28.59 -3.24 0.96 0.88 1.93 1.76 2.89 2.64l44.92 41.02zm59.15 -44.22c0.54 -0.48 1.07 -0.97 1.61 -1.45 -0.61 0.11 -1.22 0.22 -1.83 0.32 -1.35 0.23 -2.7 0.45 -4.05 0.66 -8.99 1.41 -18.09 2.56 -27.25 3.37 -0.77 1.68 -1.55 3.36 -2.32 5.04 -5.92 12.85 -11.85 25.71 -17.77 38.56l3.92 -3.53c15.9 -14.32 31.79 -28.65 47.69 -42.97zm-74.75 3.99c-0.12 -0.01 -0.25 -0.01 -0.37 -0.02 0 0.01 0.01 0.01 0.01 0.02h0.36zm71.65 1.63c-16.08 14.49 -32.16 28.97 -48.24 43.46h58.52c0.53 -3.96 0.63 -8.02 0.66 -12 0.06 -7.73 -0.48 -15.45 -1.52 -23.11l-0.21 -1.48c-0.07 -0.49 -0.14 -0.99 -0.22 -1.48 -0.56 -3.63 -1.22 -7.24 -1.99 -10.83 -0.05 -0.24 -0.11 -0.48 -0.16 -0.72l-3.27 2.94c-1.19 1.08 -2.38 2.15 -3.57 3.22zM214.38 233a115.368 115.368 0 0 0 -0.29 3.72c-0.8 12.28 0.07 24.85 1.57 36.82h52.52c-1.35 -1.23 -2.7 -2.46 -4.04 -3.69 -15.05 -13.75 -30.11 -27.5 -45.16 -41.25 -1.2 -1.1 -2.4 -2.2 -3.61 -3.29 -0.42 2.54 -0.75 5.11 -0.99 7.69zm162.79 78.59c-0.02 -0.5 -0.1 -0.22 0 0z" stroke-width="1"></path><path d="m190.06 37.66 0.06 -0.46c0.89 0.74 1.65 1.59 2.29 2.57 0.77 1.18 2.7 -1.38 2.01 -2.44 -0.91 -1.39 -2.09 -2.58 -3.46 -3.53a0.58 0.58 0 0 0 -0.35 -0.11c0.11 -0.8 0.22 -1.6 0.34 -2.4 0.29 -2.1 -2.07 -0.81 -2.27 0.58 -0.19 1.33 -0.37 2.66 -0.56 3.99 -0.12 0.83 -0.05 3.08 -0.5 3.89 0.07 -0.17 -0.28 -0.01 -0.47 0.06 -0.56 0.21 -1.39 0.2 -2 0.28 -1.64 0.21 -3.29 0.35 -4.94 0.45 -1.25 0.08 -2.45 3.04 -1.11 2.96 1.25 -0.08 2.5 -0.18 3.74 -0.31 0.02 0.17 0.08 0.33 0.19 0.45 0.98 1.1 1.97 2.19 2.95 3.29 0.98 1.09 2.84 -1.52 2.01 -2.44l-1.56 -1.74c0.89 -0.16 1.74 -0.43 2.38 -1.15 0.98 -1.11 1.05 -2.55 1.25 -3.94zm10.27 2c-4.54 1.96 -8.21 5.32 -10.73 9.55 -1.01 1.69 0.67 2.67 1.68 0.97 2.13 -3.58 5.28 -6.21 9.1 -7.86 1.15 -0.49 1.72 -3.42 -0.05 -2.66zM32.17 199.62c-1.03 -0.24 -1.97 -0.66 -2.87 -1.21 -1.11 -0.69 -2.75 2.09 -1.62 2.8 1.04 0.65 2.18 1.09 3.37 1.37 1.2 0.28 2.56 -2.62 1.12 -2.96zm4.7 2.4c0.66 -0.64 1.25 -1.03 2.11 -1.4 0.68 -0.3 1.16 -1.27 1.14 -1.98 -0.02 -0.75 -0.56 -0.96 -1.19 -0.69 -1 0.44 -1.92 1.06 -2.7 1.82 -0.52 0.5 -1.03 1.33 -0.8 2.09 0.21 0.7 1.01 0.58 1.44 0.16zm-7.78 5.5c-0.36 0.46 -0.91 1.51 -0.41 2.06 0.49 0.54 1.24 0.09 1.6 -0.38 1.86 -2.42 5.05 -2.26 7.29 -0.46 0.98 0.79 2.68 -1.95 1.62 -2.8 -3.27 -2.63 -7.64 -1.61 -10.1 1.58zM69.57 87.6c-0.38 -1.58 -1.41 -3.56 -3.34 -2.76 -1.89 0.79 -2.62 3.22 -1.89 5.02 0.07 0.16 0.15 0.27 0.24 0.35 -0.02 0.05 -0.03 0.11 -0.05 0.16 -0.44 1.72 1.06 3.26 2.76 2.53 2.01 -0.86 2.75 -3.32 2.28 -5.3zm-8.33 -5.71c-0.86 -1.15 -2.76 1.43 -2.01 2.44 0.47 0.63 0.95 1.26 1.42 1.89 0.86 1.15 2.76 -1.43 2.01 -2.44 -0.47 -0.63 -0.94 -1.26 -1.42 -1.89zm3.41 -1.49c0.29 0.19 0.51 0.41 0.7 0.71 0.08 0.12 0.15 0.25 0.18 0.34 0.03 0.08 0.06 0.17 0.08 0.25 0.01 0.03 0.06 0.29 0.05 0.14 0.04 0.28 0.08 0.59 0.36 0.75 0.25 0.14 0.6 0.07 0.83 -0.07 0.59 -0.35 1.24 -1.24 1.14 -1.98 -0.16 -1.22 -0.68 -2.25 -1.72 -2.95 -0.6 -0.4 -1.4 0.45 -1.65 0.92 -0.29 0.53 -0.6 1.47 0.03 1.89zm130.44 235.18h-13.1c-1.26 0 -2.5 2.96 -1.11 2.96h13.1c1.25 0 2.49 -2.96 1.11 -2.96zm15.19 0h-5.66c-1.26 0 -2.5 2.96 -1.11 2.96h5.66c1.26 0 2.49 -2.96 1.11 -2.96zm15.09 0h-5.66c-1.26 0 -2.5 2.96 -1.11 2.96h5.66c1.26 0 2.49 -2.96 1.11 -2.96zm15.09 0h-5.66c-1.26 0 -2.5 2.96 -1.11 2.96h5.66c1.26 0 2.49 -2.96 1.11 -2.96zm15.09 0h-5.66c-1.26 0 -2.5 2.96 -1.11 2.96h5.66c1.26 0 2.49 -2.96 1.11 -2.96zm15.09 0h-5.66c-1.26 0 -2.5 2.96 -1.11 2.96h5.66c1.26 0 2.49 -2.96 1.11 -2.96zm15.09 0h-5.66c-1.26 0 -2.5 2.96 -1.11 2.96h5.66c1.26 0 2.49 -2.96 1.11 -2.96zm15.09 0h-5.66c-1.26 0 -2.5 2.96 -1.11 2.96h5.66c1.26 0 2.5 -2.96 1.11 -2.96zm15.09 0h-5.66c-1.26 0 -2.5 2.96 -1.11 2.96h5.66c1.26 0 2.5 -2.96 1.11 -2.96zm15.09 0h-5.66c-1.26 0 -2.5 2.96 -1.11 2.96h5.66c1.26 0 2.5 -2.96 1.11 -2.96zm15.09 0h-5.66c-1.26 0 -2.5 2.96 -1.11 2.96h5.66c1.26 0 2.5 -2.96 1.11 -2.96zm15.09 0h-5.66c-1.26 0 -2.5 2.96 -1.11 2.96h5.66c1.26 0 2.5 -2.96 1.11 -2.96z" stroke-width="1"></path><path d="M53.1 196.48c2.44 -2.5 4.27 -5.89 1.31 -8.55 -2.04 -1.84 -5.57 -1.05 -7.82 -0.1a9.167 9.167 0 0 0 -2.95 1.96c-0.88 -4.33 -3.06 -10.06 -8.5 -9.04 -3.59 0.67 -4.75 3.8 -4.87 7 -3.56 -2.75 -7.89 -4.52 -11.79 -0.92 -3.13 2.89 -3.54 7.56 -1.03 10.66 -3.14 1.65 -5.91 4.31 -6.73 7.79 -0.4 1.7 -0.32 3.69 1.09 4.91 1.45 1.26 3.43 1.07 5.32 0.92 -1.93 3.06 -2.76 7.26 0.24 9.63 0.38 0.3 0.76 0.53 1.14 0.71a12.91 12.91 0 0 0 -4 7.43c-0.34 2.09 2.05 0.8 2.27 -0.58 0.5 -3.1 2.59 -5.54 5.56 -6.58 0.27 -0.09 0.52 -0.25 0.73 -0.46 1.33 -0.64 2.57 -1.69 3.64 -2.84 -0.03 1.51 0.22 2.99 1.11 4.31a6.537 6.537 0 0 0 5.8 2.91c0.59 -0.03 1.15 -0.13 1.66 -0.28 -0.78 2.45 -1.01 5.01 -0.64 7.66 0.11 0.79 1.05 0.46 1.44 0.16 0.63 -0.48 0.91 -1.33 0.8 -2.09 -0.35 -2.49 0.02 -4.95 1.06 -7.21 1.59 -1.4 2.63 -3.46 3.35 -5.6 2.94 3.59 8.79 5.88 12.4 2.28 3.74 -3.73 1.6 -8.1 -1.37 -11.31 3.1 -1.26 5.79 -3.33 6.25 -7 0.47 -3.83 -2.36 -5.33 -5.47 -5.77zm-3.29 10.86c-1 0.25 -2.02 2.06 -1.08 2.85 1.36 1.15 2.78 2.34 3.71 3.89 1.42 2.37 0.81 5.42 -2.63 5.26 -3.36 -0.16 -6.36 -2.4 -7.74 -5.39 -0.57 -1.22 -2.03 1.02 -2.14 1.51 -0.42 1.93 -1.01 4.2 -2.27 5.68 -0.32 0.09 -0.65 0.36 -0.93 0.85 -0.81 0.56 -1.82 0.85 -3.11 0.7 -4.25 -0.48 -4.9 -4.56 -4.29 -8.04 0.3 -1.73 -1.37 -1.12 -1.97 -0.2 -1.49 2.28 -3.59 4.92 -6.69 4.27 -4.16 -0.87 -3.08 -6.05 -0.57 -8.05 0.5 -0.4 1.52 -2.53 0.24 -2.6 -2.23 -0.12 -7.32 1.31 -7.5 -2.29 -0.17 -3.36 4.35 -5.77 6.98 -6.6 0.85 -0.27 2.18 -2.15 1.08 -2.85 -3.69 -2.37 -3.69 -8.5 1.57 -8.63 3.29 -0.08 6.12 2.56 8.33 4.68 1.11 1.07 2.31 -1.25 2.12 -2.19 -0.41 -2.06 -0.94 -3.85 0.5 -5.5 1.34 -1.53 3.07 -1.19 4.65 -0.05 2.53 1.81 3.05 5.23 3.53 8.08 0 0.02 0.01 0.03 0.02 0.05 -0.88 1.92 1.37 1.63 2.06 0.16 1.09 -2.32 4.97 -3.54 7.38 -3.05 2.04 0.41 3.07 2.34 1.77 4.22 -0.71 1.03 -2 1.73 -3.03 2.39 -0.5 0.32 -2.02 2.86 -0.53 2.81 2 -0.06 5.26 -0.23 6.49 1.75 2.35 3.87 -3.26 5.61 -5.95 6.29zM161.58 38.43c2 1.59 4.52 1.86 7 2.23 -4.16 2.85 -7.92 6.79 -7.08 12.16 0.71 4.52 4.98 6.49 8.35 4.85 -1.11 5.28 -1.22 12.57 4.51 14.15 4.53 1.26 7.59 -3.28 9.19 -7.69 1.68 4.51 5.14 8.89 10.01 5.68 3.54 -2.34 4.91 -6.39 5.13 -10.47 3.9 3.02 9.54 3.26 13.19 -0.79 1.81 -2.01 2.69 -4.77 2.42 -7.29 0.03 0 0.05 -0.01 0.08 -0.01 2.14 -0.3 7.4 -0.72 8.98 1.13 0.95 1.11 2.82 -1.49 2.01 -2.44 -1.91 -2.24 -6.67 -1.97 -9.32 -1.72 -0.86 0.08 -1.7 0.21 -2.54 0.39 -0.33 -0.63 -0.76 -1.21 -1.29 -1.72 2.09 -1.22 3.77 -3.16 4.92 -5.33 2.06 -3.88 2.05 -7.51 -0.9 -10.9 -0.17 -0.19 -0.34 -0.38 -0.52 -0.56 1.01 -1.92 5.11 -3.44 6.86 -4.04 2.51 -0.86 5.09 -1.2 7.73 -1.14 1.26 0.03 2.51 -2.93 1.11 -2.96 -3.67 -0.08 -7.24 0.58 -10.59 2.09 -2.29 1.03 -5.09 2.53 -6.57 4.73 -5.04 -3.95 -11.89 -3.72 -17.05 -0.17 1.61 -4.14 2.62 -10.49 -1.69 -12.28 -3.96 -1.64 -6.94 3.18 -8.57 7.26 -2.19 -4.25 -6.59 -8.79 -11.35 -6.78 -4.48 1.89 -4.16 7.13 -2.44 11.26 -5.09 -1.24 -11.08 -1.37 -13.27 3.98 -0.98 2.37 -0.32 4.78 1.69 6.38zm14.07 -6.3c1.12 0.4 2.6 -1.7 1.81 -2.62 -1.3 -1.52 -2.31 -3.21 -2.79 -5.17 -0.36 -1.49 -0.87 -4.27 1.33 -4.94 1 -0.3 2.37 0.14 3.24 0.56 3.22 1.54 5.45 4.74 6.5 8.06 0.5 1.57 2.1 -0.58 2.26 -1.25 0.54 -2.32 3.46 -10.3 6.87 -6.95 2.54 2.51 1.06 7.55 -0.44 10.15 -0.31 0.54 -0.35 1 -0.24 1.33 -1.06 1.26 -0.19 3.26 1.21 1.65 4.02 -4.61 10.81 -5.5 15.97 -2.27 2.3 1.44 5.27 4.32 4.97 7.29 -0.36 3.44 -3.61 6.98 -7.08 7.23 -0.88 0.06 -2.69 2.43 -1.36 2.88 0.94 0.31 1.75 0.83 2.4 1.48 -1.5 0.57 -2.94 1.3 -4.3 2.18 -1.01 0.66 -1.54 3.69 0.04 2.67 1.78 -1.15 3.68 -2.03 5.7 -2.6 0.77 2.15 0.19 4.62 -2.38 6.05 -3.96 2.2 -8.62 -0.01 -10.99 -3.41 -0.93 -1.33 -2.23 1.44 -2.12 2.19 0.51 3.66 0.33 10.22 -4.32 11.2 -4.52 0.96 -6.63 -6.11 -7.14 -9.45 -0.23 -1.53 -2.17 0.54 -2.26 1.25 -0.4 3.53 -3.44 12.7 -8.45 8.3 -3.69 -3.24 -2.7 -9.07 -1.37 -13.17 0.57 -1.75 -1.04 -1.93 -1.87 -0.58 -1.11 1.81 -3.84 1.41 -5.24 0.31 -1.53 -1.21 -2.08 -3.32 -1.77 -5.16 0.7 -4.12 5.04 -6.36 8.34 -8.2 0.78 -0.44 1.87 -2.41 0.53 -2.81 -3.16 -0.96 -9.34 -0.4 -10.72 -4.27 -2.2 -6.25 11.53 -2.71 13.67 -1.93zM78.66 75.35c2.05 -4.38 2.84 -10.36 -2.74 -11.58 -5.81 -1.27 -9.32 4.01 -11.5 8.68 -3.42 -3.7 -11.19 -8.08 -14.9 -3.03 -2.91 3.95 -1.32 9.25 2 12.42 -4.32 1.45 -8.64 4.56 -8.21 9.29 0.2 2.27 1.77 4.13 4.16 4.04 1.51 -0.06 2.85 -0.83 4.14 -1.7 -1.58 3.88 -1.96 8.72 1.64 10.86 2.06 1.22 4.65 0.17 6.24 -1.32a8.08 8.08 0 0 0 1.54 -2.02c1.06 3.59 3.53 6.82 7.33 7.52 4.95 0.92 5.47 -5.39 5.19 -10.09 2.3 0.44 4.86 -1.24 5.85 -3.61 1.45 -3.48 -0.17 -6.49 -2.91 -8.28 2.83 -1.75 5.35 -4.31 6.16 -7.43 0.9 -3.52 -1.52 -4.28 -3.99 -3.75zm0.49 6.1c-1.48 1.81 -3.42 3.07 -5.59 3.87 -0.9 0.33 -2.31 2.47 -0.83 2.93 2 0.62 4.09 1.89 4.68 4.05 0.86 3.13 -2.74 4.26 -4.42 1.99 -0.96 -1.3 -2.24 1.41 -2.12 2.19 0.35 2.23 0.82 5.3 0.15 7.52 -0.33 1.1 -0.38 1.65 -1.79 1.47 -0.81 -0.1 -1.6 -0.66 -2.25 -1.12 -2.92 -2.06 -4.61 -5.68 -4.22 -9.24 0.23 -2.13 -2.04 -0.78 -2.27 0.58 -0.25 1.48 -0.42 3.27 -1.28 4.53 -1.17 1.74 -3.75 2.37 -5.19 0.6 -2.3 -2.85 -0.94 -7.39 1.2 -9.82 0.6 -0.68 0.91 -2.94 -0.62 -2.17 -2.22 1.11 -6.46 5.47 -8.56 2.16 -1.46 -2.31 1 -4.36 2.85 -5.38 1.87 -1.04 3.92 -1.51 6.03 -1.72 0.87 -0.08 2.18 -2.36 1.08 -2.85 -1.76 -0.79 -3.2 -1.91 -4.24 -3.54 -1.22 -1.92 -2.89 -6.7 1.02 -7.23 3.81 -0.52 8.08 2.63 10.24 5.4 0.36 0.45 0.87 0.31 1.31 -0.08 0.49 -0.12 1.06 -0.53 1.34 -1.18 1.47 -3.46 3.39 -7.89 7.83 -7.81 5.9 0.11 4.64 6.97 2.04 10.26 -0.5 0.63 -0.9 3.09 0.62 2.17 0.64 -0.39 1.48 -1 2.27 -1.01 2.35 -0.05 1.79 2.12 0.72 3.43zm315.74 265.36 -15.63 -37.5c-0.1 -0.24 -0.26 -0.51 -0.57 -0.51H184.41c-2.6 0 -5.43 -0.32 -8.01 0 -0.11 0.01 -0.23 0 -0.34 0 -0.42 0 -0.84 0.34 -1.16 0.78 -0.17 0.17 -0.31 0.37 -0.42 0.6 -5.93 13.04 -11.86 26.08 -17.78 39.12 -0.19 0.43 -0.27 1.58 0.47 1.57 7.83 -0.05 15.66 -0.11 23.49 -0.16l56.41 -0.39c22.66 -0.16 45.31 -0.31 67.97 -0.47 19.74 -0.14 39.48 -0.27 59.22 -0.41 6.45 -0.04 12.9 -0.09 19.35 -0.13 3.01 -0.02 6.21 0.26 9.21 -0.06 0.13 -0.01 0.28 0 0.41 0 0.95 0 2.06 -1.49 1.66 -2.44zm-24.05 -0.35 -56.41 0.39c-22.66 0.16 -45.31 0.31 -67.97 0.47 -19.74 0.14 -39.48 0.27 -59.22 0.41 -6.45 0.04 -12.9 0.09 -19.35 0.13 -2.01 0.01 -4.02 0.03 -6.03 0.04 -0.6 0 -1.55 -0.14 -2.34 -0.11 5.46 -12.01 10.92 -24.01 16.38 -36.02h199.39c0.52 0 1.32 0.14 1.93 0.07 0.11 0.39 0.42 0.87 0.55 1.19 0.73 1.74 1.45 3.49 2.18 5.23 3.9 9.36 7.8 18.71 11.7 28.07 -6.95 0.03 -13.88 0.08 -20.81 0.13zm6.33 -34.87c-0.1 -0.22 -0.02 -0.5 0 0z" stroke-width="1"></path><path d="M305.94 332.82h-59.82c-0.6 0 -1.19 0.67 -1.5 1.38 -0.14 0.25 -0.22 0.51 -0.22 0.75v7.31c0 0.34 0.19 0.84 0.61 0.83 17.44 -0.25 34.88 -0.49 52.31 -0.74 2.5 -0.04 5.01 -0.07 7.51 -0.11 1 -0.01 1.72 -1.21 1.72 -2.13v-6.47c0 -0.33 -0.19 -0.82 -0.61 -0.82zm-52.31 7.21c-2.3 0.03 -4.6 0.06 -6.9 0.1v-4.34h57.49v3.53c-16.86 0.23 -33.73 0.47 -50.59 0.71zm136.25 -112.31c0.36 -3.13 -0.61 -6.35 -2.99 -8.6 -1.42 -1.34 -3.1 -2.03 -4.88 -2.32 0.67 -14.33 1.34 -28.66 2.02 -42.98 0.22 -4.76 0.45 -9.51 0.67 -14.27 0.02 -0.35 -0.2 -0.83 -0.61 -0.83l-21.02 -0.24 -36.78 -0.42c0.53 -1.95 1.05 -3.9 1.58 -5.86 1.87 -6.94 3.74 -13.88 5.6 -20.83 0.2 -0.73 -0.38 -1.56 -1.16 -1.05 -8.91 5.88 -17.74 11.88 -26.72 17.63 -0.53 0.01 -1.07 0 -1.6 0h-5.68c-0.25 -0.17 -0.55 -0.33 -0.92 -0.49 -2.93 -1.27 -6.05 -2.2 -9.17 -2.84 -0.69 -0.14 -1.61 -0.39 -2.59 -0.61 -1.12 -4.98 -2.24 -9.96 -3.36 -14.93 -0.16 -0.71 -1.04 -0.57 -1.44 -0.16 -6.2 6.35 -12.41 12.69 -18.61 19.04h-7.07c-3.78 0 -8.05 -0.56 -11.8 0 -1.88 0.28 -3.54 2.69 -4.7 4.1 -1.29 1.57 -2.46 3.24 -3.54 4.96 -5.76 -0.07 -11.52 -0.13 -17.27 -0.2 1.47 -2.69 2.85 -5.43 4.08 -8.23 0.41 -0.94 1.56 -2.79 1.27 -3.9 -0.31 -1.17 -1.94 -2.57 -2.66 -3.56 -0.97 -1.34 -1.9 -2.71 -2.79 -4.11a93.416 93.416 0 0 1 -4.79 -8.5c-2.84 -5.68 -5.14 -11.63 -7.04 -17.68 -1.38 -4.38 -2.54 -8.83 -3.47 -13.33 -0.27 -1.29 -0.52 -2.59 -0.74 -3.89 -0.06 -0.38 -0.12 -0.76 -0.19 -1.15 -0.02 -0.14 -0.12 -0.82 -0.04 -0.26 -0.09 -0.63 -0.52 -1.09 -1.19 -0.69 -8.72 5.24 -19.27 7.57 -29.11 9.66 -9.31 1.97 -18.73 3.46 -28.18 4.63 -1.93 0.24 -3.87 0.47 -5.81 0.66 -0.23 -0.09 -0.53 -0.01 -0.86 0.37 -0.18 0.17 -0.34 0.4 -0.47 0.64 -17.19 24.76 -30.54 52.2 -37.74 81.54 -4.22 17.19 -6.49 35.13 -5.51 52.84 0.17 3.11 0.39 6.26 0.94 9.33 0.07 0.38 0.49 0.61 0.85 0.49 28.11 -9.52 55.05 -23.3 78.11 -41.96 0.48 17.13 0.95 34.27 1.43 51.4 0.13 4.85 0.27 9.7 0.4 14.55v19.94c0 0.34 0.19 0.83 0.61 0.83h194.28c2.6 0 5.43 0.32 8.01 0 0.11 -0.01 0.23 0 0.34 0 0.6 0 1.19 -0.67 1.5 -1.38 0.14 -0.25 0.22 -0.51 0.22 -0.75v-19.94l1.65 -35.17c4.88 -1.5 8.84 -4.79 9.28 -10.73 0.06 -0.51 -0.1 -0.72 -0.34 -0.75zm-54.51 -66.59 21.64 0.24c5.76 0.07 11.51 0.13 17.27 0.2l5.49 0.06c0.57 0.01 1.85 0.25 2.56 0.12 -0.59 12.65 -1.19 25.31 -1.78 37.96 -0.26 5.64 -0.53 11.27 -0.79 16.91 -0.35 0 -0.71 0.01 -1.06 0.03 0.01 -0.05 0.03 -0.1 0.04 -0.16 0.35 -2.24 1.35 -13.27 -3.42 -11.46 -2 0.76 -2.96 3.43 -3.59 5.25 -0.61 1.75 -0.99 3.55 -1.16 5.37l-38.68 -1.35c-0.16 -0.01 -0.32 -0.01 -0.47 -0.02 -1.4 -10.77 -2.81 -21.54 -4.21 -32.3 -0.76 -5.86 -1.34 -11.78 -2.3 -17.62 -0.01 -0.04 -0.01 -0.1 -0.02 -0.18 3.19 -0.75 6.37 -1.49 9.56 -2.24 0.33 -0.06 0.66 -0.4 0.92 -0.81zm37.42 56.49c0 -0.13 0 -0.25 -0.01 -0.38 -0.01 -0.5 -0.01 -1 0.01 -1.5 0.04 -0.98 0.14 -1.95 0.33 -2.92 0.19 -0.91 0.75 -4.16 1.67 -4.74 1.83 -1.14 1.87 5.02 1.74 7.79 -0.02 0.44 -0.05 0.79 -0.07 1.01 -0.01 0.07 -0.02 0.14 -0.02 0.19v0.01l-0.99 0.25 -2.73 0.71c0.03 -0.12 0.05 -0.24 0.05 -0.36 0.02 -0.02 0.02 -0.04 0.02 -0.06zm-5.91 9.78c-1.55 0.74 -2.92 1.83 -3.12 3.69 -0.24 2.24 1.88 2.93 4.56 2.94 -0.64 0.41 -1.2 0.89 -1.62 1.46h-31.59l-0.24 -1.61c-0.74 -4.92 -1.34 -10.29 -2.89 -15.09 -0.06 -0.49 -0.13 -0.98 -0.19 -1.47 7.02 0.25 14.05 0.49 21.07 0.74 5.52 0.19 11.04 0.39 16.56 0.58 -2.9 1.09 -5.76 2.91 -5.76 5.99 -0.01 2.06 1.47 2.63 3.22 2.77zm-153.41 -4.03c0.01 0.05 0.02 0.1 0.04 0.14 0 0.02 -0.01 0.04 -0.02 0.06 -0.49 2.64 -0.87 5.31 -1.17 8 -11.2 -7.73 -22.39 -15.46 -33.59 -23.19 -0.84 -0.58 -1.69 -1.16 -2.53 -1.75 4.42 -3.74 8.68 -7.68 12.77 -11.8 8.94 5.54 17.87 11.08 26.81 16.61 -0.82 3.69 -1.58 7.39 -2.25 11.1 -0.06 0.19 -0.08 0.37 -0.08 0.55 0 0.11 0 0.2 0.02 0.28zm0.62 13.35c0.04 -0.62 0.09 -1.24 0.13 -1.87a115.66 115.66 0 0 1 1.14 -9.55c1.2 1.1 2.4 2.2 3.61 3.29 15.05 13.75 30.11 27.5 45.16 41.25 1.35 1.23 2.7 2.46 4.04 3.69h-52.52c-1.49 -11.97 -2.36 -24.53 -1.56 -36.81zm53.45 31.96c-14.97 -13.67 -29.94 -27.35 -44.91 -41.02 -0.96 -0.88 -1.93 -1.76 -2.89 -2.64 9.43 1.64 18.99 2.69 28.59 3.24 0 0.01 0 0.02 0.01 0.03 6.4 13.47 12.8 26.93 19.2 40.39zm-15.97 -40.25c0.12 0.01 0.25 0.01 0.37 0.02 1.94 -0.02 4.6 -0.05 7.66 -0.09l0.15 0.33c1.62 3.69 3.23 7.38 4.85 11.07 0.1 0.23 0.26 0.51 0.57 0.51h1.33l-3.11 13.01c-3.38 -7.12 -6.77 -14.23 -10.15 -21.35 -0.55 -1.16 -1.11 -2.32 -1.66 -3.49 -0.01 0 -0.01 0 -0.01 -0.01zm-0.19 -3.16c-9.81 -0.45 -19.6 -1.41 -29.29 -3.01 -0.59 -0.1 -1.18 -0.19 -1.78 -0.3 -0.33 -0.06 -0.66 -0.11 -0.99 -0.17 -0.9 -0.16 -1.81 -0.34 -2.71 -0.51l-0.66 -0.12c0.53 -2.85 1.1 -5.69 1.72 -8.53 0.12 -0.56 0.24 -1.12 0.37 -1.67 0.12 -0.56 0.26 -1.11 0.38 -1.66 0.23 -0.98 0.45 -1.96 0.69 -2.93 6.06 5.54 15.39 6.86 23.81 7.43 1.55 0.11 3.06 0.19 4.52 0.27 0.65 0.03 1.29 0.07 1.92 0.1l2.6 0.15c12.07 0.69 24.4 1.33 36.37 -0.57 5.13 -0.82 10.5 -2.79 14.64 -6 0.58 -0.45 1.13 -0.91 1.65 -1.41 0.52 -0.49 1.02 -1 1.48 -1.54 2.6 -3.03 4.22 -6.81 4.15 -11.38 -0.03 -1.9 -2.35 0.06 -2.33 1.29 0.07 4.26 -1.71 7.51 -4.44 9.96a17.6 17.6 0 0 1 -2.04 1.58c-0.77 0.51 -1.58 0.98 -2.42 1.41 -0.94 0.48 -1.92 0.9 -2.93 1.27 0.02 -0.14 0.03 -0.28 0 -0.4 -0.05 -0.25 -0.11 -0.52 -0.18 -0.82 -0.09 -0.43 -0.2 -0.89 -0.32 -1.37 -0.14 -0.52 -0.29 -1.06 -0.48 -1.57 -0.79 -2.13 -2.11 -3.78 -4.57 -2.05 -0.94 0.66 -1.76 1.57 -2.43 2.62 -0.33 0.5 -0.62 1.04 -0.87 1.59 0 0 0 0.01 -0.01 0.01v-0.01c-0.15 -0.49 -0.32 -0.98 -0.51 -1.44 -0.87 -2.14 -2.16 -3.8 -4.16 -2.84 -1.48 0.71 -2.62 2.16 -3.47 3.82 -0.25 0.49 -0.47 1 -0.67 1.51 -0.19 0.48 -0.35 0.97 -0.49 1.45 -0.25 0.85 -0.44 1.69 -0.56 2.45 -4.51 0.18 -9.04 0.13 -13.55 -0.03 -1.88 -0.07 -3.77 -0.15 -5.64 -0.24l-3.43 -0.18 -1.75 -0.09c-5.21 -0.25 -10.58 -0.43 -15.79 -1.27 1.58 -3.45 2.36 -7.2 2.15 -11.01 -0.1 -1.84 -0.41 -3.67 -0.95 -5.43 -0.35 -1.14 -1.27 -2.53 -1.82 -3.82 4.21 -1.11 8.49 -1.92 12.77 -2.65 5.8 -0.99 11.73 -2.29 17.61 -1.17 1.22 0.23 2.56 -2.68 1.11 -2.96 -4.6 -0.87 -9.25 -0.29 -13.83 0.48 3.1 -1.32 5.94 -3.14 8.14 -5.18 1.48 -1.37 2.92 -2.92 4.11 -4.62 2.47 8.11 10 13.98 18.49 14.48 11.31 0.67 20.62 -8.75 21.5 -19.71 5.33 -1.25 10.66 -2.49 15.99 -3.74 0 0.06 -0.01 0.11 -0.01 0.17 -0.01 1.66 0.45 3.45 0.66 5.09 0.43 3.28 0.85 6.55 1.28 9.83 1.12 8.61 2.25 17.22 3.37 25.84 0.31 2.35 0.61 4.71 0.92 7.06 0.06 0.49 0.13 0.98 0.19 1.47 0.07 0.5 0.13 1 0.2 1.51 0 0.02 0.01 0.04 0.01 0.07 0.06 0.48 0.13 0.96 0.19 1.44l0.36 2.74 -0.31 0.06c-1.12 0.22 -2.24 0.43 -3.37 0.64 -24.45 4.43 -49.9 5.74 -74.59 4.61zm-18.9 -36.98c-2.32 0.76 -6.23 2.22 -9.67 4.23 0.11 -0.36 0.21 -0.73 0.31 -1.09 1.72 -5.86 3.62 -11.69 5.86 -17.38 1.01 3.05 2.63 5.88 4.94 7.95 2.5 2.24 5.54 3.36 8.75 3.63 -3.43 0.71 -6.85 1.56 -10.19 2.66zm47.06 23.63c0.01 -0.04 0.02 -0.08 0.03 -0.11v-0.02c0.08 -0.59 0.28 -1.62 0.61 -2.66 0.16 -0.49 0.34 -0.99 0.56 -1.44 0.32 -0.68 0.71 -1.26 1.17 -1.58 0.4 -0.29 0.86 -0.39 1.37 -0.18 0.14 0.06 0.29 0.14 0.45 0.25 0.31 0.22 0.57 0.6 0.8 1.05 0.19 0.38 0.36 0.82 0.5 1.29 0.24 0.79 0.43 1.66 0.59 2.45l0.06 0.3c-1.55 0.18 -3.11 0.32 -4.67 0.43l-1.47 0.22zm8.83 -1.01c0.01 -0.12 0.03 -0.24 0.05 -0.38 0.1 -0.66 0.31 -1.55 0.6 -2.41 0.17 -0.49 0.37 -0.96 0.59 -1.39 0.66 -1.23 1.56 -2.04 2.68 -1.36 0.29 0.18 0.53 0.59 0.72 1.12 0.15 0.4 0.27 0.86 0.37 1.34 0.14 0.66 0.25 1.34 0.33 1.88v0.03c-1.79 0.51 -3.61 0.9 -5.34 1.17zm-44.44 -50.81c0.19 -1.02 0.64 -2.08 1.09 -2.96 0.06 -0.12 0.13 -0.25 0.19 -0.36 0.07 -0.13 0.12 -0.26 0.16 -0.39 3.2 -0.18 6.4 -0.02 9.56 0.56 0.56 0.1 1.15 0.21 1.74 0.33 1.3 0.26 2.63 0.58 3.77 1.11 1.18 0.55 1.64 0.87 1.88 1.93 0.03 0.13 0.06 0.26 0.08 0.41 0.16 1.06 -0.1 2.03 -0.8 2.81 -0.67 0.74 -1.67 1.01 -2.73 1.11l-9.34 -0.33c-1.25 -0.17 -2.51 -0.39 -3.71 -0.74 -1.86 -0.55 -2.17 -1.97 -1.89 -3.48zm49.1 67.26c-0.03 0.06 -0.06 0.13 -0.09 0.19 -4.03 8.74 -8.05 17.47 -12.08 26.21l-5.68 -13.48h1.08c0.79 0 1.28 -0.75 1.58 -1.38 1.67 -3.55 3.34 -7.1 5.02 -10.65 0.06 -0.12 0.11 -0.24 0.17 -0.36 4.74 -0.15 8.5 -0.33 10 -0.53zm-0.18 5.04c0.77 -1.68 1.55 -3.36 2.32 -5.04 9.16 -0.81 18.26 -1.96 27.25 -3.37 1.35 -0.21 2.7 -0.43 4.05 -0.66 0.61 -0.1 1.22 -0.21 1.83 -0.32 -0.54 0.48 -1.07 0.97 -1.61 1.45 -15.9 14.32 -31.8 28.65 -47.7 42.97l-3.92 3.53c5.93 -12.85 11.86 -25.71 17.78 -38.56zm30.74 -2.32 3.57 -3.21 3.27 -2.94c0.05 0.24 0.11 0.48 0.16 0.72 0.77 3.59 1.44 7.2 1.99 10.83 0.08 0.49 0.15 0.99 0.22 1.48l0.21 1.48c1.04 7.66 1.58 15.38 1.52 23.11 -0.03 3.97 -0.13 8.03 -0.66 12h-58.52c16.08 -14.5 32.16 -28.98 48.24 -43.47zm2.91 -69.05c-0.36 0.08 -0.72 0.17 -1.09 0.25 0.02 -0.09 0.05 -0.18 0.07 -0.27 0.35 0.01 0.69 0.02 1.02 0.02zm-41.52 -13.87c0.25 0.06 0.48 0.11 0.66 0.14 0.25 0.04 0.49 0.09 0.74 0.14 0.8 0.15 1.59 0.32 2.38 0.52 0.84 0.21 1.67 0.43 2.49 0.68 0.58 0.18 1.8 0.44 2.95 0.8 1.07 0.33 2.09 0.74 2.45 1.22 0.05 0.07 0.09 0.16 0.13 0.26 0.48 1.26 -0.02 4.96 -0.9 5.58 -0.9 0.62 -4.15 -0.45 -5.17 -0.63 -1.09 -0.2 -2.18 -0.43 -3.26 -0.67 -0.59 -0.13 -1.17 -0.27 -1.76 -0.41 -0.11 -0.03 -0.23 -0.05 -0.34 -0.08 -0.01 0 -0.01 0 -0.02 -0.01 -0.96 -0.24 -1.92 -0.51 -2.86 -0.79 -0.04 -0.01 -2.59 -0.64 -2.89 -1.07 -0.35 -0.49 -0.4 -1.19 -0.31 -1.91 0.06 -0.5 0.2 -1.02 0.34 -1.48 0.11 -0.35 0.23 -0.68 0.32 -0.95 0.06 -0.18 0.13 -0.35 0.19 -0.53 0.14 -0.38 0.28 -0.77 0.42 -1.15 0.57 -0.38 1.84 -0.21 3.03 0.03 0.51 0.1 1 0.22 1.41 0.31zm-4.67 -14.82c0.85 3.76 1.69 7.52 2.54 11.29 -0.92 -0.02 -1.75 0.11 -2.36 0.52 -0.14 0.09 -0.26 0.24 -0.38 0.4 -0.49 0.1 -1.06 0.54 -1.31 1.23s-0.57 1.43 -0.89 2.18h-12.87c5.09 -5.21 10.18 -10.41 15.27 -15.62zM235.57 160c0.58 -1 1.19 -1.99 1.83 -2.95 0.03 -0.04 0.06 -0.09 0.09 -0.14 0.94 -1.41 1.97 -2.77 3.09 -4.05 0.46 -0.53 1.16 -1.03 1.54 -1.61 0.15 -0.22 0.23 -0.34 0.27 -0.39 0.97 -0.15 2.18 0.05 3.11 0.05h31.39c-0.18 0.72 -0.28 1.43 -0.24 2.13 0.03 0.56 0.16 1.02 0.37 1.41 0.7 1.33 2.3 1.77 3.89 2.26 1.02 0.32 2.06 0.6 3.09 0.86 2.18 0.56 4.39 1.03 6.61 1.42 2.07 0.36 4.72 1.13 6.47 -0.5 0.25 -0.23 0.46 -0.49 0.64 -0.76 1.03 -1.56 1.11 -3.72 1.4 -5.48 0.08 -0.49 0.16 -0.94 0.21 -1.34h2.31c0.99 0 2.19 0.18 3.17 0 1.34 -0.25 2.61 -1.45 3.73 -2.19l9.26 -6.11c4.28 -2.83 8.57 -5.65 12.85 -8.48 -1.4 5.19 -2.79 10.38 -4.19 15.58 -0.75 2.77 -1.49 5.54 -2.24 8.31 -0.26 0.97 -0.52 1.95 -0.79 2.92 0 0.01 -0.01 0.03 -0.01 0.04 -0.07 0.27 -0.16 0.54 -0.25 0.82l-18.87 4.41c-13.52 -0.48 -27.05 -0.95 -40.57 -1.43 0.55 -1.01 0.77 -2.21 0.89 -3.39 0.03 -0.34 0.08 -0.7 0.13 -1.08 0.11 -1 0.19 -2.09 -0.17 -2.97 -0.16 -0.4 -0.4 -0.75 -0.77 -1.04 -1.22 -0.95 -3.19 -1.5 -5.07 -1.87 -0.57 -0.11 -1.13 -0.21 -1.66 -0.3 -0.54 -0.09 -1.04 -0.17 -1.49 -0.25 -3.44 -0.59 -6.91 -0.68 -10.39 -0.38 -0.87 0.07 -1.71 1.54 -1.69 2.38 -0.2 0.38 -0.41 0.79 -0.6 1.21 -0.43 0.94 -0.83 1.95 -1.1 2.96 -0.37 1.41 -0.48 2.8 -0.06 3.96 -0.95 -0.03 -1.9 -0.07 -2.85 -0.1 -1.78 -0.06 -3.55 -0.13 -5.33 -0.19 0.61 -1.24 1.28 -2.49 2 -3.72zm-2.22 -0.02c-0.23 0.41 -0.45 0.82 -0.67 1.23 -0.44 0.81 -0.85 1.63 -1.27 2.46 -0.67 -0.02 -1.33 -0.05 -2 -0.07 -1.01 -0.04 -1.71 1.25 -1.72 2.13 -0.02 1.65 0.14 3.38 0.46 5.1 -1.95 4.67 -3.64 9.45 -5.18 14.25 -0.98 3.05 -1.91 6.11 -2.8 9.2 -3.66 2.77 -5.8 6.29 -2.76 10.28 -0.3 1.19 -0.59 2.39 -0.87 3.58 -8.42 -5.22 -16.84 -10.43 -25.26 -15.65 2.18 -2.28 4.32 -4.61 6.4 -7 6.91 -7.97 13.2 -16.55 18.48 -25.69 5.73 0.05 11.46 0.11 17.19 0.18zm-58.94 45.43c-0.43 0.36 -0.87 0.71 -1.3 1.06 -0.09 0.07 -0.17 0.14 -0.26 0.21l-0.02 0.02c-0.14 0.11 -0.27 0.22 -0.41 0.34 -0.2 0.17 -0.41 0.34 -0.61 0.5 -6.5 5.26 -13.31 10.14 -20.35 14.6 -17.43 11.07 -36.28 19.72 -55.81 26.39 -1.32 -7.88 -1.13 -16.83 -0.67 -24.96 1.29 -22.76 6.96 -45.22 15.61 -66.26 6.95 -16.9 15.91 -32.93 26.31 -47.95 16.36 -1.63 33.01 -4.25 48.74 -9.07 4.68 -1.44 9.39 -3.11 13.67 -5.53 2.67 18.27 9.91 37.23 21.38 51.68 -1.33 3.53 -3 6.99 -4.89 10.37 -0.56 0.99 -1.13 1.98 -1.72 2.95 -2.25 3.73 -4.7 7.34 -7.16 10.79 -5.26 7.39 -11.11 14.33 -17.41 20.83 -0.38 0.4 -0.76 0.8 -1.15 1.19 -0.39 0.39 -0.79 0.78 -1.18 1.17 -3.98 3.97 -8.14 7.77 -12.45 11.39 -0.1 0.09 -0.21 0.19 -0.32 0.28zm1.16 29.4c-0.23 -8.39 -0.47 -16.78 -0.7 -25.17 11.97 8.26 23.94 16.53 35.91 24.79 0.39 0.27 0.79 0.54 1.18 0.81 -1.06 12.72 -0.29 25.8 1.21 38.29h-28.75c-2.52 0 -5.25 -0.3 -7.77 -0.02l-1.08 -38.7zm201.41 58.67H179.12c-0.52 0 -1.77 -0.22 -2.45 -0.09V276.5h94.67c0.16 0.12 0.35 0.1 0.55 0h102.65c0.52 0 1.77 0.22 2.45 0.09 -0.01 5.63 -0.01 11.26 -0.01 16.89zm0.67 -32.08 -0.57 12.14h-41.03c1.78 -11.44 1.01 -23.6 -0.53 -35.11h30.67c0.93 1.38 3.88 1.62 5.58 1.73 2.25 0.15 4.62 0.04 6.89 -0.39 -0.34 7.21 -0.68 14.42 -1.01 21.63zm9.86 -29.75c-0.97 2.71 -3.54 4.2 -6.43 4.95 -0.34 0.09 -0.68 0.17 -1.02 0.23 -0.42 0.09 -0.85 0.16 -1.27 0.22 -0.12 0.02 -0.24 0.03 -0.36 0.05 -0.23 0.03 -0.45 0.05 -0.68 0.07 -1.39 0.13 -2.74 0.15 -3.93 0.09 -1.24 -0.06 -2.56 -0.07 -3.78 -0.29 -0.03 0 -0.05 -0.01 -0.08 -0.01 -0.44 -0.08 -0.9 -0.15 -1.3 -0.38 0.15 -0.09 0.31 -0.18 0.46 -0.27 0.52 -0.29 1.04 -0.56 1.56 -0.83 2.06 -1.07 4.18 -2 6.37 -2.79 0.27 -0.1 0.54 -0.21 0.81 -0.3 0.13 -0.04 0.25 -0.13 0.38 -0.23 0.35 -0.3 0.65 -0.81 0.83 -1.32 0.08 -0.23 0.13 -0.45 0.14 -0.65 0.02 -0.21 -0.01 -0.4 -0.08 -0.53l-0.01 -0.01c-0.11 -0.2 -0.34 -0.28 -0.71 -0.17 -0.19 0.06 -0.37 0.11 -0.56 0.16 -0.41 0.12 -0.81 0.23 -1.22 0.33 -1.14 0.29 -2.3 0.53 -3.48 0.67 -1.42 0.18 -4.65 0.73 -6.07 0.08 -1.24 -0.57 -0.23 -0.64 0.65 -1.01 0.87 -0.36 1.74 -0.7 2.63 -1.02 1.87 -0.67 3.77 -1.25 5.69 -1.77 0.04 -0.01 0.07 -0.03 0.11 -0.04 0.42 -0.18 0.83 -0.7 1.08 -1.25 0.32 -0.71 0.35 -1.47 -0.25 -1.6a0.999 0.999 0 0 0 -0.39 -0.01c-0.29 0.04 -0.57 0.08 -0.86 0.11 -1.67 0.22 -3.35 0.36 -5.03 0.38 -0.97 0.01 -5.49 0.52 -4.27 -1.61 0.67 -1.17 3.57 -1.79 4.77 -2.11 1.26 -0.34 2.56 -0.62 3.86 -0.84 0.3 -0.05 0.61 -0.1 0.91 -0.14 0.12 -0.02 0.24 -0.03 0.35 -0.05 0.41 -0.05 0.83 -0.09 1.25 -0.12 0.67 -0.04 1.34 -0.05 2 -0.02 0.77 0.05 1.53 0.16 2.25 0.36 1.3 0.36 2.5 1 3.5 2.06 2.05 2.17 2.88 5.38 1.81 8.2 -0.31 0.89 -0.06 1.33 0.37 1.41z" stroke-width="1"></path><path d="M271 278.44c-2.87 0.39 -5.07 3.28 -5.04 6.12 0.03 2.82 2.36 5.14 5.23 4.84 2.98 -0.32 4.89 -3.04 5.16 -5.84 0.02 -0.1 0.03 -0.2 0.03 -0.29l-0.03 -0.29c-0.29 -2.73 -2.44 -4.94 -5.35 -4.54zm-2.71 4.82c0.05 -1.51 1.66 -2.09 2.97 -1.86 1.56 0.28 2.69 1.58 2.78 3.15 -0.18 3.43 -5.86 1.79 -5.75 -1.29zM119.72 182.64c9.97 4.36 19.94 8.72 29.91 13.07 0.5 0.22 1.11 -0.14 1.4 -0.56 6.75 -9.72 13.5 -19.43 20.25 -29.15 0.76 -1.09 1.52 -2.18 2.28 -3.28l0.81 -1.17c0.52 -0.75 1.04 -1.49 1.56 -2.24 0.6 -0.86 1.19 -1.72 1.79 -2.57 0.07 -0.1 0.18 -0.27 0.28 -0.48 0.3 -0.6 0.58 -1.48 -0.06 -1.76 -0.32 -0.14 -0.63 -0.28 -0.95 -0.41 4.87 -5.93 10.14 -14.79 7.64 -22.21 -1.99 -5.92 -9.21 -8.54 -14.97 -8.07 -6.2 0.5 -11.7 4.19 -16.06 8.4 -2.65 2.56 -5.12 5.42 -7.16 8.52 -1 -0.44 -2 -0.88 -3 -1.31 -0.32 -0.14 -0.66 -0.05 -0.97 0.16 -0.19 0.11 -0.37 0.28 -0.54 0.53 -0.14 0.19 -0.26 0.39 -0.35 0.6 -6.38 11.66 -12.75 23.33 -19.13 34.99 -0.92 1.68 -1.84 3.37 -2.76 5.05 -0.23 0.44 -0.64 1.6 0.03 1.89zm45.84 -55.28c5.33 -1.5 12.62 -0.31 15.9 4.61 2.83 4.24 0.85 9.72 -1.33 13.78 -1.42 2.65 -3.12 5.21 -5.06 7.52 -8.95 -3.91 -17.89 -7.83 -26.84 -11.74 4.09 -6.16 10.25 -12.18 17.33 -14.17zm-24.85 19c0.68 -1.24 1.36 -2.48 2.04 -3.73 10.39 4.55 20.78 9.09 31.17 13.64 0.46 0.2 0.91 0.4 1.37 0.6 -0.56 0.81 -1.13 1.62 -1.69 2.44 -0.04 0.06 -0.08 0.11 -0.12 0.17 -0.76 1.09 -1.52 2.18 -2.28 3.28l-18 25.92c-0.91 1.3 -1.81 2.61 -2.72 3.91 -9.43 -4.12 -18.85 -8.24 -28.28 -12.36 6.17 -11.3 12.34 -22.59 18.51 -33.87z" stroke-width="1"></path><path d="M155.49 163.22c0.03 -0.06 0.05 -0.11 0.07 -0.17 0.04 -0.07 0.08 -0.15 0.11 -0.22 1.11 -2.66 1.57 -7.32 -1.91 -8.49 -3.18 -1.07 -6.17 2.11 -7.38 4.69 -0.84 1.81 -1.32 4.54 -0.48 6.52 -2.73 2.97 -5.46 5.95 -8.19 8.92 -0.38 0.41 -1 1.85 -0.21 2.24 2.52 1.26 5.03 2.52 7.55 3.77 0.8 0.4 1.61 -0.69 1.83 -1.3 1.44 -3.87 2.88 -7.74 4.33 -11.61 1.87 -0.8 3.44 -2.72 4.28 -4.35zm-44.25 8.45c-2.6 6.77 -4.64 13.78 -6.46 20.79 -3.65 14.02 -6.17 28.52 -5.94 43.05 0.03 1.9 2.35 -0.06 2.33 -1.29 -0.22 -14.29 2.28 -28.54 5.88 -42.33 1.76 -6.75 3.74 -13.51 6.25 -20.03 0.76 -2.01 -1.47 -1.74 -2.06 -0.19zm93.68 -12.01c0.63 -0.98 1.25 -1.96 1.86 -2.95 1.32 -2.14 2.58 -4.32 3.79 -6.53 0.94 -1.72 -0.73 -2.71 -1.68 -0.97 -1.39 2.54 -2.86 5.02 -4.39 7.47 -0.62 0.99 -1.25 1.97 -1.89 2.95 -7.9 12 -17.49 22.89 -28.22 32.58 -0.76 0.69 -1.54 1.37 -2.31 2.05 -13.36 11.68 -28.36 21.54 -43.98 29.44 -2.49 1.26 -5 2.5 -7.58 3.57 -1.16 0.48 -1.73 3.4 0.04 2.67 7.81 -3.24 15.29 -7.51 22.49 -11.91 10.24 -6.26 20.02 -13.32 29.1 -21.18 0.78 -0.67 1.54 -1.35 2.31 -2.04 4.63 -4.13 9.07 -8.47 13.28 -13.04 6.33 -6.87 12.11 -14.26 17.18 -22.11zM153.89 55.37c-9.18 13.1 -13.69 28.66 -11.96 44.65 0.47 4.34 1.29 8.83 2.61 13.12L126.2 93.6c-12.49 -13.3 -24.97 -26.61 -37.46 -39.91 -2.88 -3.07 -5.76 -6.14 -8.65 -9.21 -1.01 -1.08 -2.85 1.54 -2.01 2.44 7.88 8.39 15.76 16.79 23.63 25.18l37.47 39.9c2.88 3.07 5.76 6.14 8.65 9.21 1.08 1.15 2.54 -1.43 2.01 -2.44 -3 -5.68 -4.6 -12.43 -5.42 -18.74 -1.98 -15.26 1.84 -30.38 10.67 -42.98 0.92 -1.33 0.04 -3.45 -1.2 -1.68zm-38.5 108.31 -59.72 -39.53c-2.8 -1.85 -5.59 -3.7 -8.39 -5.55 -1.08 -0.72 -2.74 2.06 -1.62 2.8l59.72 39.53c0.38 0.25 0.76 0.5 1.13 0.75 -4.25 -0.58 -8.58 -0.7 -12.75 -0.55 -16.31 0.58 -31.63 6.64 -44.31 16.84 -1.08 0.87 -1.02 3.58 0.63 2.25 12.49 -10.04 27.76 -15.86 43.82 -16.17 6.44 -0.12 14.08 0.5 19.87 2.43 1.23 0.4 2.78 -2.04 1.62 -2.8zm-52.92 -49.63c-13.02 -7.94 -26.04 -15.88 -39.06 -23.83 -1.12 -0.68 -2.76 2.1 -1.62 2.8 13.02 7.94 26.04 15.88 39.06 23.83 1.12 0.69 2.76 -2.1 1.62 -2.8zm11.86 -56.48c0.9 0.82 2.63 -1.88 1.62 -2.8L59.1 39.45c-0.9 -0.82 -2.63 1.88 -1.62 2.8 5.61 5.11 11.23 10.22 16.85 15.32z" stroke-width="1"></path><path d="M137.33 76.04c-0.05 0.62 0.06 -0.48 0.08 -0.69 0.11 -0.84 0.24 -1.67 0.4 -2.5 0.52 -2.84 1.27 -5.64 2.22 -8.36 2.91 -8.32 7.74 -15.77 14.77 -21.17 1.11 -0.85 1.04 -3.54 -0.63 -2.25 -10.94 8.4 -18.05 22.53 -19.17 36.26 -0.16 1.87 2.23 -0.09 2.33 -1.29zM74.58 159.5c1.26 -0.06 2.46 -3.02 1.11 -2.96 -4.68 0.23 -9.4 1.45 -13.86 2.8 -11.98 3.61 -23.15 9.53 -33.36 16.7 -0.98 0.69 -1.48 3.74 0.04 2.67 10.03 -7.05 20.99 -12.92 32.77 -16.46 4.25 -1.29 8.87 -2.54 13.3 -2.75z" stroke-width="1"></path></g></switch></g></svg>